<svg width="428" height="1105" fill="none" xmlns="http://www.w3.org/2000/svg"><path fill-rule="evenodd" clip-rule="evenodd" d="M428 0H0v1024h428V0zM0 1024v56.25l17.833-5.62c17.834-5.63 53.5-16.88 89.167-20.63 23.778-2.5 47.556-1.67 71.333-.83 11.889.41 23.778.83 35.667.83 10.955 0 21.91-.84 32.864-1.69 24.712-1.91 49.424-3.81 74.136 3.98 8.423 1.32 12.507 2.7 17.087 4.26 4.47 1.51 9.413 3.19 19.323 5.12 20.062 3.9 41.462 15.49 52.757 25.62 11.294 10.13 17.833 13.13 17.833 13.13V1024H0z" fill="#0D090A"/></svg>