<svg width="428" height="688" fill="none" xmlns="http://www.w3.org/2000/svg"><path fill-rule="evenodd" clip-rule="evenodd" d="M17.833 43.499C.721 57.462 0 61.759 0 61.759v625.244h428V64.979l-17.833-4.835c-7.94-2.152-18.885-6.637-31.969-11.998-16.303-6.68-35.927-14.72-57.198-21.306-6.012-1.862-11.81-3.03-17.625-4.2-9.411-1.895-18.864-3.798-29.336-8.667-14.592-8.69-29.773-9.9-44.907-11.104-5.057-.403-10.109-.805-15.132-1.486-35.667-4.834-68.807 3.507-107 17.19-16.928 6.065-33.004 8.907-47.149 11.407-17.77 3.141-32.49 5.744-42.018 13.519z" fill="#141414"/></svg>