<svg style="display: none;" xmlns="http://www.w3.org/2000/svg">
    <symbol id="calendar" viewBox="0 0 24 24">
        <g>
            <path d="M3 22H21C21.2652 22 21.5196 21.8946 21.7071 21.7071C21.8946 21.5196 22 21.2652 22 21V6C22 5.73478 21.8946 5.48043 21.7071 5.29289C21.5196 5.10536 21.2652 5 21 5H17V3C17 2.73478 16.8946 2.48043 16.7071 2.29289C16.5196 2.10536 16.2652 2 16 2C15.7348 2 15.4804 2.10536 15.2929 2.29289C15.1054 2.48043 15 2.73478 15 3V5H9V3C9 2.73478 8.89464 2.48043 8.70711 2.29289C8.51957 2.10536 8.26522 2 8 2C7.73478 2 7.48043 2.10536 7.29289 2.29289C7.10536 2.48043 7 2.73478 7 3V5H3C2.73478 5 2.48043 5.10536 2.29289 5.29289C2.10536 5.48043 2 5.73478 2 6V21C2 21.2652 2.10536 21.5196 2.29289 21.7071C2.48043 21.8946 2.73478 22 3 22ZM4 7H20V10H4V7ZM4 12H20V20H4V12Z"/>
        </g>
    </symbol>

    <symbol id="check" viewBox="0 0 16 16">
        <g>
            <path d="M5.72752 13.8039C5.84907 13.9258 6.01306 13.996 6.18516 13.9997C6.35726 14.0035 6.52414 13.9405 6.65085 13.8239L15.1175 6.04128C15.2476 5.92178 15.325 5.75553 15.3326 5.57903C15.3403 5.40253 15.2775 5.23022 15.1582 5.09994L12.5235 2.21661C12.4643 2.15189 12.3929 2.09948 12.3134 2.06239C12.234 2.02531 12.1479 2.00427 12.0603 2.0005C11.9727 1.99672 11.8851 2.01027 11.8028 2.04038C11.7204 2.07049 11.6447 2.11655 11.5802 2.17594L6.33685 6.99594L4.56285 5.21794C4.43533 5.09726 4.26643 5.03 4.09085 5.03C3.91528 5.03 3.74637 5.09726 3.61885 5.21794L0.861518 7.98261C0.736944 8.10757 0.666992 8.27683 0.666992 8.45328C0.666992 8.62973 0.736944 8.79898 0.861518 8.92394L5.72752 13.8039ZM4.09085 6.63261L5.84485 8.39061C5.96628 8.51241 6.13009 8.58256 6.30203 8.58641C6.47397 8.59026 6.64076 8.52751 6.76752 8.41128L11.9902 3.61128L13.7235 5.51061L6.22018 12.4093L2.27485 8.45328L4.09085 6.63261Z"/>
        </g>
    </symbol>

    <symbol id="chevron" viewBox="0 0 28 28">
        <g>
        <path d="M21.7776 7.77777H6.22204C5.92618 7.77763 5.63642 7.86187 5.38675 8.0206C5.13707 8.17934 4.93784 8.40598 4.81243 8.67395C4.68702 8.94191 4.64063 9.24009 4.6787 9.53349C4.71678 9.82689 4.83773 10.1033 5.02738 10.3304L12.8052 19.6638C12.9511 19.8388 13.1338 19.9797 13.3403 20.0763C13.5467 20.173 13.7719 20.2231 13.9998 20.2231C14.2278 20.2231 14.4529 20.173 14.6594 20.0763C14.8658 19.9797 15.0485 19.8388 15.1945 19.6638L22.9723 10.3304C23.1619 10.1033 23.2829 9.82689 23.3209 9.53349C23.359 9.24009 23.3126 8.94191 23.1872 8.67395C23.0618 8.40598 22.8626 8.17934 22.6129 8.0206C22.3632 7.86187 22.0735 7.77763 21.7776 7.77777ZM14 17L9 10.5H19L14 17Z"/>
        </g>
    </symbol>

    <symbol id="sun" viewBox="0 0 24 24">
        <g>
            <path d="M12 18.5C13.1867 18.5 14.3467 18.1481 15.3334 17.4888C16.3201 16.8295 17.0892 15.8925 17.5433 14.7961C17.9974 13.6997 18.1162 12.4933 17.8847 11.3295C17.6532 10.1656 17.0818 9.09647 16.2426 8.25736C15.4035 7.41824 14.3344 6.8468 13.1705 6.61529C12.0067 6.38378 10.8003 6.5026 9.7039 6.95672C8.60754 7.41085 7.67047 8.17988 7.01118 9.16658C6.35189 10.1533 6 11.3133 6 12.5C6.00159 14.0908 6.63424 15.616 7.75911 16.7409C8.88399 17.8658 10.4092 18.4984 12 18.5ZM12 8.5C12.7911 8.5 13.5645 8.7346 14.2223 9.17412C14.8801 9.61365 15.3928 10.2384 15.6955 10.9693C15.9983 11.7002 16.0775 12.5044 15.9231 13.2804C15.7688 14.0563 15.3878 14.769 14.8284 15.3284C14.269 15.8878 13.5563 16.2688 12.7804 16.4231C12.0044 16.5775 11.2002 16.4983 10.4693 16.1955C9.73836 15.8928 9.11365 15.3801 8.67412 14.7223C8.2346 14.0645 8 13.2911 8 12.5C8 11.4391 8.42143 10.4217 9.17157 9.67157C9.92172 8.92143 10.9391 8.5 12 8.5ZM11 3.5V2.5C11 2.23478 11.1054 1.98043 11.2929 1.79289C11.4804 1.60536 11.7348 1.5 12 1.5C12.2652 1.5 12.5196 1.60536 12.7071 1.79289C12.8946 1.98043 13 2.23478 13 2.5V3.5C13 3.76522 12.8946 4.01957 12.7071 4.20711C12.5196 4.39464 12.2652 4.5 12 4.5C11.7348 4.5 11.4804 4.39464 11.2929 4.20711C11.1054 4.01957 11 3.76522 11 3.5ZM12 20.5C12.2652 20.5 12.5196 20.6054 12.7071 20.7929C12.8946 20.9804 13 21.2348 13 21.5V22.5C13 22.7652 12.8946 23.0196 12.7071 23.2071C12.5196 23.3946 12.2652 23.5 12 23.5C11.7348 23.5 11.4804 23.3946 11.2929 23.2071C11.1054 23.0196 11 22.7652 11 22.5V21.5C11 21.2348 11.1054 20.9804 11.2929 20.7929C11.4804 20.6054 11.7348 20.5 12 20.5ZM17.657 6.843C17.4695 6.65547 17.3642 6.40116 17.3642 6.136C17.3642 5.87084 17.4695 5.61653 17.657 5.429L18.364 4.722C18.5526 4.53984 18.8052 4.43905 19.0674 4.44133C19.3296 4.4436 19.5804 4.54877 19.7658 4.73418C19.9512 4.91959 20.0564 5.1704 20.0587 5.4326C20.061 5.6948 19.9602 5.9474 19.778 6.136L19.071 6.843C18.8835 7.03047 18.6292 7.13579 18.364 7.13579C18.0988 7.13579 17.8445 7.03047 17.657 6.843ZM6.343 18.157C6.53047 18.3445 6.63579 18.5988 6.63579 18.864C6.63579 19.1292 6.53047 19.3835 6.343 19.571L5.636 20.278C5.4474 20.4602 5.1948 20.561 4.9326 20.5587C4.6704 20.5564 4.41959 20.4512 4.23418 20.2658C4.04877 20.0804 3.9436 19.8296 3.94133 19.5674C3.93905 19.3052 4.03984 19.0526 4.222 18.864L4.929 18.157C5.11653 17.9695 5.37084 17.8642 5.636 17.8642C5.90116 17.8642 6.15547 17.9695 6.343 18.157ZM23 12.5C23 12.7652 22.8946 13.0196 22.7071 13.2071C22.5196 13.3946 22.2652 13.5 22 13.5H21C20.7348 13.5 20.4804 13.3946 20.2929 13.2071C20.1054 13.0196 20 12.7652 20 12.5C20 12.2348 20.1054 11.9804 20.2929 11.7929C20.4804 11.6054 20.7348 11.5 21 11.5H22C22.2652 11.5 22.5196 11.6054 22.7071 11.7929C22.8946 11.9804 23 12.2348 23 12.5ZM1 12.5C1 12.2348 1.10536 11.9804 1.29289 11.7929C1.48043 11.6054 1.73478 11.5 2 11.5H3C3.26522 11.5 3.51957 11.6054 3.70711 11.7929C3.89464 11.9804 4 12.2348 4 12.5C4 12.7652 3.89464 13.0196 3.70711 13.2071C3.51957 13.3946 3.26522 13.5 3 13.5H2C1.73478 13.5 1.48043 13.3946 1.29289 13.2071C1.10536 13.0196 1 12.7652 1 12.5ZM19.071 18.157L19.778 18.864C19.8735 18.9562 19.9497 19.0666 20.0021 19.1886C20.0545 19.3106 20.0821 19.4418 20.0833 19.5746C20.0844 19.7074 20.0591 19.8391 20.0088 19.962C19.9585 20.0849 19.8843 20.1965 19.7904 20.2904C19.6965 20.3843 19.5849 20.4585 19.462 20.5088C19.3391 20.5591 19.2074 20.5844 19.0746 20.5833C18.9418 20.5821 18.8106 20.5545 18.6886 20.5021C18.5666 20.4497 18.4562 20.3735 18.364 20.278L17.657 19.571C17.4748 19.3824 17.374 19.1298 17.3763 18.8676C17.3786 18.6054 17.4838 18.3546 17.6692 18.1692C17.8546 17.9838 18.1054 17.8786 18.3676 17.8763C18.6298 17.874 18.8824 17.9748 19.071 18.157ZM4.222 6.136C4.03984 5.9474 3.93905 5.6948 3.94133 5.4326C3.9436 5.1704 4.04877 4.91959 4.23418 4.73418C4.41959 4.54877 4.6704 4.4436 4.9326 4.44133C5.1948 4.43905 5.4474 4.53984 5.636 4.722L6.343 5.429C6.43851 5.52125 6.51469 5.63159 6.5671 5.7536C6.61951 5.8756 6.6471 6.00682 6.64825 6.1396C6.6494 6.27238 6.6241 6.40406 6.57382 6.52695C6.52354 6.64985 6.44929 6.7615 6.35539 6.85539C6.2615 6.94929 6.14985 7.02354 6.02695 7.07382C5.90406 7.1241 5.77238 7.1494 5.6396 7.14825C5.50682 7.1471 5.3756 7.11951 5.2536 7.0671C5.13159 7.01469 5.02125 6.93851 4.929 6.843L4.222 6.136Z"/>
        </g>
    </symbol>

    <symbol id="external-link" viewBox="0 0 22 22">
        <g>
            <path d="M20.1668 11V19.25C20.1668 19.4932 20.0703 19.7263 19.8983 19.8982C19.7264 20.0701 19.4933 20.1667 19.2502 20.1667H2.75016C2.50705 20.1667 2.27389 20.0701 2.10198 19.8982C1.93007 19.7263 1.8335 19.4932 1.8335 19.25V2.75004C1.8335 2.50693 1.93007 2.27377 2.10198 2.10186C2.27389 1.92995 2.50705 1.83337 2.75016 1.83337H11.0002C11.2433 1.83337 11.4764 1.92995 11.6483 2.10186C11.8203 2.27377 11.9168 2.50693 11.9168 2.75004C11.9168 2.99316 11.8203 3.22631 11.6483 3.39822C11.4764 3.57013 11.2433 3.66671 11.0002 3.66671H3.66683V18.3334H18.3335V11C18.3335 10.7569 18.4301 10.5238 18.602 10.3519C18.7739 10.18 19.007 10.0834 19.2502 10.0834C19.4933 10.0834 19.7264 10.18 19.8983 10.3519C20.0703 10.5238 20.1668 10.7569 20.1668 11ZM19.6003 1.90396C19.4894 1.85749 19.3704 1.83349 19.2502 1.83337H14.6668C14.4237 1.83337 14.1906 1.92995 14.0186 2.10186C13.8467 2.27377 13.7502 2.50693 13.7502 2.75004C13.7502 2.99316 13.8467 3.22631 14.0186 3.39822C14.1906 3.57013 14.4237 3.66671 14.6668 3.66671H17.0373L10.3521 10.352C10.2645 10.4365 10.1947 10.5377 10.1467 10.6495C10.0986 10.7613 10.0733 10.8816 10.0723 11.0033C10.0712 11.1251 10.0944 11.2458 10.1405 11.3584C10.1866 11.4711 10.2546 11.5734 10.3407 11.6595C10.4268 11.7456 10.5291 11.8136 10.6418 11.8597C10.7544 11.9058 10.8751 11.929 10.9969 11.9279C11.1186 11.9269 11.2389 11.9016 11.3507 11.8536C11.4625 11.8055 11.5637 11.7357 11.6482 11.6481L18.3335 4.96287V7.33337C18.3335 7.57649 18.4301 7.80965 18.602 7.98155C18.7739 8.15346 19.007 8.25004 19.2502 8.25004C19.4933 8.25004 19.7264 8.15346 19.8983 7.98155C20.0703 7.80965 20.1668 7.57649 20.1668 7.33337V2.75004C20.1663 2.62984 20.1423 2.51091 20.0962 2.39987C20.0032 2.17537 19.8248 1.99699 19.6003 1.90396Z"/>
        </g>
    </symbol>

    <symbol id="lune" viewBox="0 0 24 24">
        <g>
            <path d="M2.99999 12.485C2.94523 15.0808 3.92161 17.5924 5.71523 19.4696C7.50884 21.3468 9.97342 22.4365 12.569 22.5C14.2807 22.4809 15.9556 22.001 17.4178 21.1108C18.8799 20.2206 20.0752 18.9529 20.878 17.441C20.964 17.2835 21.0061 17.1058 20.9998 16.9265C20.9935 16.7472 20.9391 16.5729 20.8422 16.4218C20.7454 16.2708 20.6097 16.1486 20.4494 16.068C20.289 15.9875 20.11 15.9515 19.931 15.964L19.821 15.972C19.69 15.982 19.558 15.992 19.421 15.992C17.3558 15.9287 15.3999 15.0498 13.9813 13.5476C12.5627 12.0454 11.7971 10.0424 11.852 7.977C11.8518 6.57981 12.2011 5.20476 12.868 3.977C12.9539 3.81969 12.9959 3.64219 12.9897 3.46306C12.9835 3.28393 12.9293 3.10977 12.8327 2.95879C12.7361 2.80781 12.6007 2.68557 12.4406 2.60486C12.2806 2.52415 12.1018 2.48793 11.923 2.5C9.45142 2.7344 7.15939 3.893 5.5051 5.74419C3.8508 7.59537 2.95615 10.0027 2.99999 12.485ZM10.343 4.833C10.0198 5.8497 9.85515 6.91015 9.85499 7.977C9.81555 10.3494 10.6304 12.657 12.1507 14.4786C13.6711 16.3002 15.7958 17.5145 18.137 17.9C17.4493 18.707 16.5963 19.3567 15.6356 19.8053C14.675 20.2539 13.6292 20.4908 12.569 20.5C10.5038 20.4367 8.54786 19.5578 7.12927 18.0556C5.71069 16.5534 4.94506 14.5504 4.99999 12.485C4.97662 10.8106 5.47982 9.17109 6.43852 7.79808C7.39723 6.42507 8.763 5.38789 10.343 4.833Z"/>
        </g>
    </symbol>

    <symbol id="plus" viewBox="0 0 36 36">
        <g>
            <path d="M4.5 16.5H16.5V4.5C16.5 4.10218 16.658 3.72064 16.9393 3.43934C17.2206 3.15804 17.6022 3 18 3C18.3978 3 18.7794 3.15804 19.0607 3.43934C19.342 3.72064 19.5 4.10218 19.5 4.5V16.5H31.5C31.8978 16.5 32.2794 16.658 32.5607 16.9393C32.842 17.2206 33 17.6022 33 18C33 18.3978 32.842 18.7794 32.5607 19.0607C32.2794 19.342 31.8978 19.5 31.5 19.5H19.5V31.5C19.5 31.8978 19.342 32.2794 19.0607 32.5607C18.7794 32.842 18.3978 33 18 33C17.6022 33 17.2206 32.842 16.9393 32.5607C16.658 32.2794 16.5 31.8978 16.5 31.5V19.5H4.5C4.10218 19.5 3.72064 19.342 3.43934 19.0607C3.15804 18.7794 3 18.3978 3 18C3 17.6022 3.15804 17.2206 3.43934 16.9393C3.72064 16.658 4.10218 16.5 4.5 16.5Z"/>
        </g>
    </symbol>

    <symbol id="stat-down" viewBox="0 0 96 96">
        <g>
            <path d="M84 76.0001V88.0001C84 89.061 83.5786 90.0784 82.8284 90.8286C82.0783 91.5787 81.0609 92.0001 80 92.0001C78.9391 92.0001 77.9217 91.5787 77.1716 90.8286C76.4214 90.0784 76 89.061 76 88.0001V76.0001C76 74.9393 76.4214 73.9218 77.1716 73.1717C77.9217 72.4215 78.9391 72.0001 80 72.0001C81.0609 72.0001 82.0783 72.4215 82.8284 73.1717C83.5786 73.9218 84 74.9393 84 76.0001ZM44 60.0001V88.0001C44 89.061 44.4214 90.0784 45.1716 90.8286C45.9217 91.5787 46.9391 92.0001 48 92.0001C49.0609 92.0001 50.0783 91.5787 50.8284 90.8286C51.5786 90.0784 52 89.061 52 88.0001V60.0001C52 58.9393 51.5786 57.9218 50.8284 57.1717C50.0783 56.4216 49.0609 56.0001 48 56.0001C46.9391 56.0001 45.9217 56.4216 45.1716 57.1717C44.4214 57.9218 44 58.9393 44 60.0001ZM12 88.0001C12 89.061 12.4214 90.0784 13.1716 90.8286C13.9217 91.5787 14.9391 92.0001 16 92.0001C17.0609 92.0001 18.0783 91.5787 18.8284 90.8286C19.5786 90.0784 20 89.061 20 88.0001V48.0001C20 46.9393 19.5786 45.9218 18.8284 45.1717C18.0783 44.4216 17.0609 44.0001 16 44.0001C14.9391 44.0001 13.9217 44.4216 13.1716 45.1717C12.4214 45.9218 12 46.9393 12 48.0001V88.0001ZM84 24.0001C84 22.9393 83.5786 21.9218 82.8284 21.1717C82.0783 20.4216 81.0609 20.0001 80 20.0001C78.9391 20.0001 77.9217 20.4216 77.1716 21.1717C76.4214 21.9218 76 22.9393 76 24.0001V30.3441L50.828 5.17212C50.0779 4.42224 49.0607 4.00098 48 4.00098C46.9393 4.00098 45.9221 4.42224 45.172 5.17212L32 18.3441L18.828 5.17212C18.0736 4.44349 17.0632 4.04031 16.0144 4.04943C14.9656 4.05854 13.9624 4.47922 13.2207 5.22085C12.4791 5.96248 12.0584 6.96573 12.0493 8.01452C12.0402 9.0633 12.4434 10.0737 13.172 10.8281L29.172 26.8281C29.9221 27.578 30.9393 27.9993 32 27.9993C33.0607 27.9993 34.0779 27.578 34.828 26.8281L48 13.6561L70.344 36.0001H64C62.9391 36.0001 61.9217 36.4216 61.1716 37.1717C60.4214 37.9218 60 38.9393 60 40.0001C60 41.061 60.4214 42.0784 61.1716 42.8285C61.9217 43.5787 62.9391 44.0001 64 44.0001H80C81.0609 44.0001 82.0783 43.5787 82.8284 42.8285C83.5786 42.0784 84 41.061 84 40.0001V24.0001Z"/>
        </g>
    </symbol>

    <symbol id="stat-up" viewBox="0 0 96 96">
        <g>
            <path d="M16 92C14.9391 92 13.9217 91.5786 13.1716 90.8284C12.4214 90.0783 12 89.0609 12 88V76C12 74.9391 12.4214 73.9217 13.1716 73.1716C13.9217 72.4214 14.9391 72 16 72C17.0609 72 18.0783 72.4214 18.8284 73.1716C19.5786 73.9217 20 74.9391 20 76V88C20 89.0609 19.5786 90.0783 18.8284 90.8284C18.0783 91.5786 17.0609 92 16 92ZM52 88V60C52 58.9391 51.5786 57.9217 50.8284 57.1716C50.0783 56.4214 49.0609 56 48 56C46.9391 56 45.9217 56.4214 45.1716 57.1716C44.4214 57.9217 44 58.9391 44 60V88C44 89.0609 44.4214 90.0783 45.1716 90.8284C45.9217 91.5786 46.9391 92 48 92C49.0609 92 50.0783 91.5786 50.8284 90.8284C51.5786 90.0783 52 89.0609 52 88ZM80 44C78.9391 44 77.9217 44.4214 77.1716 45.1716C76.4214 45.9217 76 46.9391 76 48V88C76 89.0609 76.4214 90.0783 77.1716 90.8284C77.9217 91.5786 78.9391 92 80 92C81.0609 92 82.0783 91.5786 82.8284 90.8284C83.5786 90.0783 84 89.0609 84 88V48C84 46.9391 83.5786 45.9217 82.8284 45.1716C82.0783 44.4214 81.0609 44 80 44ZM81.528 4.308C81.0441 4.10522 80.5247 4.00053 80 4H64C62.9391 4 61.9217 4.42143 61.1716 5.17157C60.4214 5.92172 60 6.93913 60 8C60 9.06087 60.4214 10.0783 61.1716 10.8284C61.9217 11.5786 62.9391 12 64 12H70.344L48 34.344L34.828 21.172C34.0779 20.4221 33.0607 20.0009 32 20.0009C30.9393 20.0009 29.9221 20.4221 29.172 21.172L13.172 37.172C12.4434 37.9264 12.0402 38.9368 12.0493 39.9856C12.0584 41.0344 12.4791 42.0376 13.2207 42.7793C13.9624 43.5209 14.9656 43.9416 16.0144 43.9507C17.0632 43.9598 18.0736 43.5566 18.828 42.828L32 29.656L45.172 42.828C45.9221 43.5779 46.9393 43.9991 48 43.9991C49.0607 43.9991 50.0779 43.5779 50.828 42.828L76 17.656V24C76 25.0609 76.4214 26.0783 77.1716 26.8284C77.9217 27.5786 78.9391 28 80 28C81.0609 28 82.0783 27.5786 82.8284 26.8284C83.5786 26.0783 84 25.0609 84 24V8C83.9991 7.20916 83.7638 6.43634 83.3238 5.77921C82.8838 5.12207 82.2589 4.6101 81.528 4.308Z"/>
        </g>
    </symbol>
</svg>