<svg width="1024" height="844" fill="none" xmlns="http://www.w3.org/2000/svg"><path fill-rule="evenodd" clip-rule="evenodd" d="M1024 0H0v777.6l42.667-15.36c42.666-15.36 128-46.08 213.333-56.32 56.889-6.827 113.778-4.551 170.667-2.276 28.444 1.138 56.889 2.276 85.333 2.276 26.21 0 52.419-2.308 78.629-4.616 59.124-5.205 118.247-10.411 177.371 10.873 20.152 3.599 29.924 7.38 40.881 11.619 10.696 4.138 22.52 8.713 46.23 13.981 48 10.667 99.2 42.312 126.222 69.974 27.027 27.662 42.667 35.84 42.667 35.84V0z" fill="#0D090A"/></svg>