<svg width="1024" height="325" fill="none" xmlns="http://www.w3.org/2000/svg"><path fill-rule="evenodd" clip-rule="evenodd" d="M42.667 56.686C1.725 71.483 0 76.036 0 76.036V325h1024V79.447l-42.667-5.123c-18.996-2.28-45.182-7.032-76.486-12.713C865.841 54.533 818.89 46.012 768 39.033c-23.368-3.204-45.386-8.545-68.415-14.132-14.088-3.417-28.555-6.927-43.941-10.095-34.911-9.209-71.232-10.49-107.44-11.766-12.1-.427-24.187-.853-36.204-1.574-85.333-5.123-164.622 3.717-256 18.216-26.903 4.269-52.907 7.949-77.255 11.395-58.352 8.257-107.19 15.169-136.078 25.61z" fill="#141414"/></svg>