<svg width="28" height="28" viewBox="0 0 28 28" fill="none" xmlns="http://www.w3.org/2000/svg">
<path d="M21.7778 7.77777H6.22229C5.92643 7.77763 5.63666 7.86187 5.38699 8.0206C5.13732 8.17934 4.93809 8.40598 4.81268 8.67395C4.68727 8.94191 4.64088 9.24009 4.67895 9.53349C4.71702 9.82689 4.83797 10.1033 5.02762 10.3304L12.8054 19.6638C12.9514 19.8388 13.1341 19.9797 13.3405 20.0763C13.547 20.173 13.7721 20.2231 14.0001 20.2231C14.228 20.2231 14.4532 20.173 14.6596 20.0763C14.8661 19.9797 15.0487 19.8388 15.1947 19.6638L22.9725 10.3304C23.1622 10.1033 23.2831 9.82689 23.3212 9.53349C23.3593 9.24009 23.3129 8.94191 23.1875 8.67395C23.062 8.40598 22.8628 8.17934 22.6131 8.0206C22.3635 7.86187 22.0737 7.77763 21.7778 7.77777ZM14.0002 17L9.00024 10.5H19.0002L14.0002 17Z" fill="#0D090A"/>
</svg>
