<svg style="display: none;" xmlns="http://www.w3.org/2000/svg">
    <symbol id="facebook" viewBox="0 0 40 40">
        <g>
            <path id="Vector" d="M21.6025 35.9998V21.4031H26.502L27.2355 15.7145H21.6025V12.0825C21.6025 10.4356 22.0599 9.31309 24.4218 9.31309L27.4341 9.3117V4.22391C26.9129 4.15484 25.1249 4 23.0446 4C18.7015 4 15.7281 6.65091 15.7281 11.5194V15.7147H10.8159V21.4033H15.728V36L21.6025 35.9998Z"/>
        </g>
    </symbol>

    <symbol id="instagram" viewBox="0 0 40 40"> 
        <g>
            <path id="Vector" d="M15.0013 20C15.0013 17.2387 17.2392 14.9996 20.0005 14.9996C22.7618 14.9996 25.0009 17.2387 25.0009 20C25.0009 22.7613 22.7618 25.0004 20.0005 25.0004C17.2392 25.0004 15.0013 22.7613 15.0013 20ZM12.2982 20C12.2982 24.254 15.7465 27.7023 20.0005 27.7023C24.2545 27.7023 27.7028 24.254 27.7028 20C27.7028 15.746 24.2545 12.2977 20.0005 12.2977C15.7465 12.2977 12.2982 15.746 12.2982 20ZM26.2077 11.9923C26.2076 12.3483 26.313 12.6963 26.5107 12.9924C26.7083 13.2885 26.9894 13.5193 27.3182 13.6557C27.6471 13.7921 28.009 13.8279 28.3582 13.7586C28.7074 13.6892 29.0282 13.5179 29.28 13.2663C29.5318 13.0147 29.7034 12.694 29.773 12.3449C29.8426 11.9957 29.8071 11.6338 29.671 11.3048C29.5349 10.9759 29.3043 10.6947 29.0084 10.4968C28.7124 10.2989 28.3645 10.1931 28.0084 10.193H28.0077C27.5305 10.1932 27.0729 10.3828 26.7354 10.7202C26.3979 11.0576 26.2081 11.5151 26.2077 11.9923ZM13.9405 32.2096C12.478 32.143 11.6832 31.8994 11.1549 31.6936C10.4546 31.421 9.95493 31.0963 9.42957 30.5716C8.90421 30.047 8.57901 29.5478 8.30757 28.8475C8.10165 28.3195 7.85805 27.5244 7.79157 26.0619C7.71885 24.4808 7.70433 24.0058 7.70433 20.0001C7.70433 15.9944 7.72005 15.5208 7.79157 13.9383C7.85817 12.4759 8.10357 11.6823 8.30757 11.1528C8.58021 10.4524 8.90493 9.95276 9.42957 9.4274C9.95421 8.90204 10.4534 8.57684 11.1549 8.3054C11.6829 8.09948 12.478 7.85588 13.9405 7.7894C15.5216 7.71668 15.9966 7.70216 20.0005 7.70216C24.0044 7.70216 24.4798 7.71788 26.0623 7.7894C27.5247 7.856 28.3183 8.1014 28.8478 8.3054C29.5482 8.57684 30.0478 8.90276 30.5732 9.4274C31.0986 9.95204 31.4226 10.4524 31.6952 11.1528C31.9011 11.6808 32.1447 12.4759 32.2112 13.9383C32.2839 15.5208 32.2984 15.9944 32.2984 20.0001C32.2984 24.0058 32.2839 24.4795 32.2112 26.0619C32.1446 27.5244 31.8998 28.3192 31.6952 28.8475C31.4226 29.5478 31.0978 30.0475 30.5732 30.5716C30.0486 31.0958 29.5482 31.421 28.8478 31.6936C28.3198 31.8996 27.5247 32.1432 26.0623 32.2096C24.4812 32.2824 24.0062 32.2969 20.0005 32.2969C15.9948 32.2969 15.5211 32.2824 13.9405 32.2096ZM13.8163 5.09084C12.2194 5.16356 11.1283 5.41676 10.1754 5.78756C9.18849 6.17048 8.35305 6.6842 7.51821 7.51772C6.68337 8.35124 6.17097 9.188 5.78805 10.1749C5.41725 11.1284 5.16405 12.219 5.09133 13.8158C5.01741 15.4152 5.00049 15.9265 5.00049 20C5.00049 24.0735 5.01741 24.5848 5.09133 26.1842C5.16405 27.7812 5.41725 28.8716 5.78805 29.8251C6.17097 30.8114 6.68349 31.6491 7.51821 32.4823C8.35293 33.3154 9.18849 33.8284 10.1754 34.2124C11.1301 34.5832 12.2194 34.8364 13.8163 34.9092C15.4165 34.9819 15.927 35 20.0005 35C24.074 35 24.5853 34.9831 26.1847 34.9092C27.7816 34.8364 28.8721 34.5832 29.8256 34.2124C30.8119 33.8284 31.6479 33.3158 32.4828 32.4823C33.3176 31.6488 33.8289 30.8114 34.2129 29.8251C34.5837 28.8716 34.8381 27.781 34.9096 26.1842C34.9824 24.5836 34.9993 24.0735 34.9993 20C34.9993 15.9265 34.9824 15.4152 34.9096 13.8158C34.8369 12.2188 34.5837 11.1278 34.2129 10.1749C33.8289 9.1886 33.3163 8.35256 32.4828 7.51772C31.6492 6.68288 30.8119 6.17048 29.8268 5.78756C28.8721 5.41676 27.7815 5.16236 26.1859 5.09084C24.5865 5.01812 24.0752 5 20.0017 5C15.9282 5 15.4165 5.01692 13.8163 5.09084Z"/>
        </g>
    </symbol>

    <symbol id="telegram" viewBox="0 0 40 40">
        <g>
            <path id="Exclude" fill-rule="evenodd" clip-rule="evenodd" d="M25.3356 31.8843C27.0131 32.6182 27.6422 31.0805 27.6422 31.0805L32.0806 8.7836C32.0456 7.28083 30.0186 8.18948 30.0186 8.18948L5.17051 17.94C5.17051 17.94 3.98227 18.3594 4.08712 19.0933C4.19196 19.8272 5.13556 20.1767 5.13556 20.1767L11.3913 22.2736C11.3913 22.2736 13.2785 28.4594 13.6629 29.6476C14.0124 30.8009 14.3269 30.8359 14.3269 30.8359C14.6764 30.9757 14.9909 30.731 14.9909 30.731L19.0449 27.0615L25.3356 31.8843ZM26.419 12.7327C26.419 12.7327 27.2927 12.2085 27.2577 12.7327C27.2577 12.7327 27.3975 12.8026 26.9432 13.2919C26.5238 13.7112 16.6335 22.5881 15.3055 23.7763C15.2006 23.8462 15.1307 23.951 15.1307 24.0908L14.7463 27.376C14.6764 27.7254 14.2221 27.7604 14.1172 27.4459L12.4747 22.0638C12.4048 21.8542 12.4747 21.6095 12.6844 21.4697L26.419 12.7327Z"/>
        </g>
    </symbol>

    <symbol id="viber" viewBox="0 0 40 40">
        <g>
            <path id="Vector" d="M31.7535 8.18454C30.9596 7.45468 27.7456 5.11782 20.5814 5.08581C20.5814 5.08581 12.1367 4.57362 8.02002 8.351C5.72798 10.643 4.92129 13.9915 4.83806 18.153C4.75483 22.3081 4.64599 30.0998 12.1559 32.2125H12.1623L12.1559 35.4329C12.1559 35.4329 12.1111 36.739 12.969 37.0015C14.0062 37.3216 14.6208 36.3292 15.6132 35.26C16.1574 34.671 16.9065 33.8131 17.4763 33.1537C22.611 33.5826 26.5612 32.5967 27.0094 32.4494C28.0465 32.1101 33.9175 31.361 34.8714 23.5694C35.8574 15.5536 34.3913 10.4766 31.7535 8.18454ZM32.6242 23.006C31.8175 29.5107 27.0606 29.9205 26.1835 30.2022C25.8121 30.3238 22.3421 31.1882 17.9757 30.9C17.9757 30.9 14.7233 34.8247 13.7117 35.8427C13.5516 36.0027 13.366 36.0667 13.2443 36.0347C13.0715 35.9899 13.0202 35.785 13.0267 35.4841C13.0267 35.0488 13.0523 30.1254 13.0523 30.1254C13.0459 30.1254 13.0459 30.1254 13.0523 30.1254C6.69474 28.3647 7.06607 21.7319 7.1365 18.2618C7.20692 14.7918 7.85996 11.9427 9.79987 10.0284C13.2763 6.87847 20.4534 7.34584 20.4534 7.34584C26.51 7.37145 29.4102 9.19611 30.0825 9.80434C32.3169 11.725 33.4565 16.3027 32.6242 23.006Z"/>
            <path id="Vector_2" d="M23.5331 18.3835C23.3218 18.3835 23.1425 18.217 23.1297 17.9993C23.0593 16.6228 22.4127 15.9506 21.0938 15.8802C20.8697 15.8674 20.6968 15.6753 20.7097 15.4512C20.7225 15.2271 20.9145 15.0543 21.1386 15.0671C22.88 15.1631 23.8532 16.1619 23.9428 17.9545C23.9556 18.1786 23.7828 18.3707 23.5587 18.3771C23.5459 18.3835 23.5395 18.3835 23.5331 18.3835Z"/>
            <path id="Vector_3" d="M25.6072 19.075H25.6008C25.3767 19.0686 25.1974 18.883 25.2038 18.6589C25.2359 17.276 24.8389 16.1556 23.9938 15.2336C23.1551 14.3117 21.9963 13.8123 20.4661 13.7035C20.242 13.6843 20.0756 13.4922 20.0948 13.2681C20.114 13.044 20.306 12.8776 20.5301 12.8968C22.2588 13.0248 23.6225 13.6266 24.5956 14.6894C25.5752 15.7586 26.0489 17.0967 26.0169 18.6781C26.0105 18.9022 25.8249 19.075 25.6072 19.075Z"/>
            <path id="Vector_4" d="M27.733 19.9072C27.5089 19.9072 27.3296 19.7279 27.3296 19.5038C27.3104 17.0261 26.5998 15.1374 25.1528 13.7225C23.7251 12.3268 21.9133 11.6161 19.7813 11.5969C19.5572 11.5969 19.3779 11.4112 19.3779 11.1872C19.3779 10.9631 19.5636 10.7838 19.7813 10.7838C22.1309 10.803 24.1285 11.5905 25.7098 13.1399C27.2976 14.6892 28.1107 16.8276 28.1363 19.491C28.1427 19.7215 27.9635 19.9072 27.733 19.9072C27.7394 19.9072 27.7394 19.9072 27.733 19.9072Z"/>
            <path id="Vector_5" d="M21.1897 23.3964C21.1897 23.3964 21.7595 23.4477 22.0668 23.0699L22.6622 22.3209C22.9503 21.9495 23.6482 21.7126 24.3268 22.0904C24.7046 22.3016 25.3896 22.7242 25.8122 23.0379C26.2667 23.3708 27.1887 24.1391 27.1951 24.1455C27.6368 24.5169 27.7393 25.0611 27.4384 25.6437C27.4384 25.6437 27.4384 25.6501 27.4384 25.6565C27.131 26.2007 26.7149 26.7129 26.1963 27.1866C26.1899 27.1866 26.1899 27.193 26.1835 27.193C25.7545 27.5516 25.332 27.7564 24.9222 27.8013C24.871 27.8141 24.8134 27.8141 24.7366 27.8141C24.5573 27.8141 24.378 27.7885 24.1988 27.7308L24.186 27.7116C23.5457 27.5324 22.4829 27.0842 20.7159 26.1046C19.5635 25.4708 18.6095 24.8242 17.7964 24.1775C17.3675 23.8382 16.9321 23.4605 16.484 23.0123C16.4711 22.9995 16.4519 22.9803 16.4391 22.9675C16.4263 22.9547 16.4071 22.9355 16.3943 22.9227C16.3815 22.9099 16.3623 22.8907 16.3495 22.8779C16.3367 22.8651 16.3175 22.8458 16.3047 22.833C15.8629 22.3849 15.4788 21.9495 15.1395 21.5206C14.4928 20.7139 13.8462 19.7535 13.2124 18.6011C12.2328 16.8276 11.7846 15.7649 11.6054 15.131L11.5862 15.1182C11.5285 14.939 11.5029 14.7597 11.5029 14.5804C11.5029 14.5036 11.5029 14.446 11.5157 14.3948C11.567 13.9786 11.7718 13.5624 12.124 13.1335C12.124 13.1271 12.1304 13.1271 12.1304 13.1207C12.6041 12.5957 13.1163 12.1859 13.6605 11.8786C13.6605 11.8786 13.6669 11.8786 13.6733 11.8786C14.2495 11.5777 14.7937 11.6802 15.1715 12.1219C15.1715 12.1219 15.9462 13.0503 16.2791 13.5048C16.5928 13.9338 17.0153 14.6124 17.2266 14.9902C17.6044 15.6688 17.3675 16.3667 16.9961 16.6548L16.2471 17.2502C15.8693 17.5575 15.9205 18.1273 15.9205 18.1273C15.9205 18.1273 17.0282 22.3401 21.1897 23.3964Z"/>
        </g>
    </symbol>
</svg>