<svg width="1440" height="301" viewBox="0 0 1440 301" fill="none" xmlns="http://www.w3.org/2000/svg">
<path d="M1434.57 187.852C1422.72 191.206 1418.97 200.142 1419.96 222.599C1420.78 241.344 1425.06 261.61 1433.81 288.132L1437.72 300H1439.63L1439.52 296.961C1439.3 290.547 1437.57 282.266 1434.19 271.511C1423.03 235.937 1421.03 213.566 1427.89 201.125C1431.57 194.462 1435.15 192.885 1438.02 196.668C1439.72 198.914 1439.92 198.52 1439.96 192.712C1439.98 189.163 1439.85 186.316 1439.66 186.383C1439.47 186.45 1437.18 187.111 1434.57 187.852Z" fill="#9E9D9D"/>
<path d="M1.84184 294.245C0.577274 290.61 0.412921 291.133 0.31784 299.099C0.314139 299.405 0.312134 299.705 0.31215 300H4.02501C2.85901 296.98 2.08245 294.936 1.84184 294.245Z" fill="#9E9D9D"/>
<path fill-rule="evenodd" clip-rule="evenodd" d="M133.964 114.302C112.756 117.144 91.7159 125.765 79.3704 136.672C71.4801 143.643 63.0179 158.809 61.752 168.251C61.0987 173.124 60.5214 173.855 56.7589 174.576C54.4186 175.025 40.6917 177.943 26.2517 181.063L0 186.734L0.593574 194.987C1.02008 200.922 3.18112 208.008 8.28966 220.218C13.5355 232.755 24.8832 265.8 36.0679 300H44.6134C44.2748 298.842 43.9456 297.714 43.627 296.622L41.1508 288.132H45.4702C51.2484 288.132 156.72 296.124 157.138 296.593C157.254 296.723 157.703 298.077 158.279 300H164.093C163.87 298.856 163.645 297.561 163.391 296.102C163.347 295.845 163.301 295.582 163.254 295.315C162.127 288.836 162.108 285.966 163.188 284.879C164.78 283.274 189.69 277.317 193.077 277.73C194.192 277.868 195.859 279.552 196.781 281.475C197.703 283.399 198.624 288.555 198.828 292.931L199.159 300H205.098C205.241 298.364 205.23 296.198 205.089 293.332L204.633 284.112L246.741 260.344C284.462 239.053 290.867 235.645 290.892 236.857C290.896 237.043 293.906 260.964 297.58 290.012C298.028 293.551 298.447 296.876 298.837 300H305.033C304.46 295.079 303.858 289.956 303.236 284.736C298.98 249.022 297.037 228.226 297.818 226.759C299.764 223.099 299.264 216.217 295.596 196.199C291.238 172.425 285.025 147.503 281.297 138.836C276.054 126.646 278.761 126.813 235.848 136.033C200.572 143.613 197.871 144.009 196.637 141.787C193.741 136.564 180.497 124.013 174.41 120.721C163.22 114.673 148.559 112.346 133.964 114.302ZM171.991 125.405C168.98 123.9 162.908 122.001 158.499 121.186C144.848 118.662 130.346 120.131 111.59 125.934C97.5281 130.286 92.3897 132.837 83.4616 139.895C75.6555 146.064 68.1251 159.267 68.1251 166.782C68.1251 171.911 68.7078 172.077 78.6451 169.784C84.5251 168.426 85.6648 167.553 88.4764 162.255C96.6425 146.86 110.194 137.536 128.998 134.374C142.387 132.123 153.233 134.853 165.407 143.541C173.492 149.311 174.363 149.619 179.149 148.421C181.96 147.717 185.949 146.761 188.013 146.297C191.629 145.482 191.696 145.313 189.823 141.745C187.094 136.544 178.47 128.643 171.991 125.405ZM290.806 197.727C285.918 172.308 281.052 152.452 277.172 142.078C274.159 134.029 273.367 133.678 263.719 136.138C261.104 136.805 240.017 141.346 216.858 146.231C193.699 151.116 154.886 159.342 130.607 164.51C59.8667 179.571 16.2153 188.754 10.7224 189.733C7.91205 190.233 5.33809 191.089 5.00123 191.634C4.66573 192.178 9.47273 206.014 15.6842 222.38C21.8957 238.747 28.9669 258.141 31.3969 265.479C33.8269 272.817 36.515 279.057 37.3693 279.348C38.2223 279.639 54.2026 281.149 72.8792 282.704C91.5557 284.261 116.616 286.422 128.569 287.506C157.33 290.118 156.414 290.159 156.414 286.26C156.414 281.379 159.193 279.919 175.101 276.445C193.505 272.426 197.781 272.354 200.347 276.018C202.3 278.806 202.548 278.719 218.421 269.746C257.191 247.832 284.267 230.55 291.244 223.268L294.969 219.38L290.806 197.727ZM164.325 148.611C163.336 147.416 159.47 145.013 155.735 143.272C137.803 134.911 104.095 144.739 95.8207 160.741C94.6729 162.963 94.0726 165.12 94.4869 165.535C95.1415 166.189 146.306 155.854 160.929 152.114C165.483 150.95 165.902 150.518 164.325 148.611Z" fill="#9E9D9D"/>
<path d="M1238.97 224.878C1224.02 229.038 1210.83 238.965 1201.28 253.251C1192.4 266.533 1188.66 277.514 1187.74 293.056C1187.59 295.528 1187.52 297.828 1187.53 300H1193.46C1193.38 291.906 1194.46 283.414 1196.67 276.936C1202.39 260.192 1217.48 240.707 1229.65 234.367C1243.1 227.358 1260.92 226.759 1277.24 232.766C1291.96 238.185 1306.29 247.92 1313.03 257.075C1321.81 269.003 1323.17 273.062 1323 300H1327.74C1327.81 295.669 1327.86 291.485 1327.88 288.098C1327.94 273.148 1327.75 272.047 1323.58 263.649C1312.29 240.866 1281.92 222.749 1255.54 223.055C1249.79 223.123 1242.33 223.942 1238.97 224.878Z" fill="#9E9D9D"/>
<path d="M1287.04 275.969C1282.71 270.826 1280.92 270.8 1275.33 275.8L1270.89 279.766L1271.03 293.798C1271.05 296.101 1271.1 298.14 1271.19 300H1274.93C1274.08 291.697 1274.1 283.726 1275.63 280.026C1278.15 273.931 1282.02 274.605 1285.13 281.68C1287.67 287.474 1289.21 293.862 1289.77 300H1293.69C1293.44 288.272 1291.45 281.218 1287.04 275.969Z" fill="#9E9D9D"/>
<path d="M887.896 281.273C887.458 281.982 888.221 283.164 889.593 283.897C891.966 285.167 909.458 292.559 927.398 300H937.017C934.559 298.96 931.953 297.865 929.197 296.713C907.206 287.517 889.096 279.992 888.953 279.989C888.811 279.985 888.335 280.562 887.896 281.273Z" fill="#9E9D9D"/>
<path fill-rule="evenodd" clip-rule="evenodd" d="M803.434 8.66365C789.718 27.1065 773.981 68.51 761.744 118.346C754.511 147.806 747.271 184.569 747.271 191.84C747.271 201.742 752.234 209.229 763.012 215.586C766.066 217.387 818.253 239.634 878.983 265.024C917.637 281.184 945.399 292.639 963.802 300H981.94L884.192 260.316C825.695 236.566 777.235 216.59 776.506 215.923C775.242 214.77 810.823 104.749 812.45 104.774C812.835 104.779 822.622 112.49 834.202 121.91C845.781 131.33 865.8 147.568 878.686 157.994C891.572 168.422 902.116 177.346 902.116 177.825C902.116 178.306 901.11 181.335 899.879 184.557C896.281 193.977 897.796 195.612 917.686 203.79C928.903 208.403 935.817 210.542 937.634 209.967C939.304 209.437 941.727 206.12 943.691 201.681L946.964 194.278L954.762 195.112C959.052 195.571 981.071 197.659 1003.69 199.752C1026.32 201.845 1045.16 203.886 1045.56 204.285C1045.96 204.684 1039.26 218.365 1030.68 234.686C1022.1 251.009 1011.09 272.002 1006.22 281.341C1001.98 289.472 997.25 297.199 994.86 300H1002.41C1007.72 290.741 1017.4 273.044 1027.8 253.496C1046.31 218.723 1055.83 202.213 1058.7 199.91C1063.48 196.067 1073.15 176.405 1084.46 147.52C1093.4 124.688 1095.33 117.842 1094.75 110.957L1094.31 105.727L1058.66 90.7996L1023 75.8719V70.8069C1023 62.3284 1020.43 51.5504 1016.37 42.966C1010.61 30.8187 1000.55 21.6326 984.293 13.6825C949.894 -3.14126 919.315 -2.24887 899.155 16.1696L893.287 21.5307L867.555 10.8532C846.651 2.17781 840.493 0.174325 834.744 0.174325C828.38 0.174325 827.735 0.443267 828.361 2.83794C830.423 10.7201 811.347 81.445 787.132 155.699C772.5 200.566 770.205 207.262 769.046 208.459C765.676 211.937 754.101 196.412 754.075 188.379C754.037 176.358 776.697 81.2155 785.959 54.506C795.723 26.3527 807.164 7.87177 818.194 2.43588L822.656 0.236807L816.202 0.205566C809.852 0.174325 809.645 0.311513 803.434 8.66365ZM950.336 51.7378C943.612 48.8963 916.107 37.2842 889.213 25.9343C862.318 14.5844 839.397 5.03837 838.277 4.71917C836.656 4.25735 834.749 10.1958 828.956 33.7364C824.95 50.0155 819.71 70.1956 817.31 78.5817C814.909 86.9665 813.296 94.3447 813.726 94.9777C814.155 95.6106 834.892 113.093 859.807 133.83C903.559 170.243 905.175 171.436 907.085 168.708C909.962 164.6 913.726 165.161 930.168 172.146C946.604 179.131 949.657 181.24 949.657 185.616L949.656 185.729L949.656 185.797V185.798C949.654 186.299 949.653 186.721 949.793 187.09C950.546 189.071 955.395 189.495 986.301 192.196L988.368 192.377C1011.39 194.39 1050.9 195.086 1056.53 193.579C1059.63 192.746 1068.23 175.179 1080.01 145.613C1085.32 132.297 1091.65 111.751 1090.69 110.947C1090.44 110.737 1061.51 98.4916 1026.4 83.7364C991.288 68.98 957.059 54.5807 950.336 51.7378ZM1017.29 66.1792C1018.49 44.7331 999.501 24.83 966.365 12.8064C955.159 8.74107 950.904 7.90165 939.469 7.50367C931.999 7.24423 924.358 7.53491 922.491 8.15157C911.775 11.6886 898.768 21.8486 901.515 24.538C902.218 25.228 905.755 26.9476 909.374 28.3602L915.952 30.9288L927.595 26.2535C938.062 22.051 940.212 21.6448 948.862 22.2411C966.293 23.4391 984.03 33.1632 991.842 45.8048C993.475 48.4467 995.841 54.0795 997.1 58.3201C999.367 65.9537 999.477 66.0678 1008.14 69.689L1016.89 73.3469L1017.29 66.1792ZM991.473 57.2959C988.76 46.613 977.42 37.037 961.15 31.6948C952.11 28.727 945.226 27.6227 940.149 28.3249C935.21 29.0081 925.207 32.8263 925.207 34.0284C925.207 34.9412 989.848 62.6558 991.98 62.6558C992.45 62.6558 992.221 60.2434 991.473 57.2959ZM943.43 183.962C942.746 182.885 936.439 179.599 929.417 176.661C922.393 173.723 915.599 171.319 914.318 171.319C911.699 171.319 903.044 189.009 904.205 191.988C905.062 194.187 932.966 205.342 935.336 204.432C938.133 203.359 944.892 186.263 943.43 183.962Z" fill="#9E9D9D"/>
<path fill-rule="evenodd" clip-rule="evenodd" d="M521.397 259.448C517.574 263.534 514.6 268.289 513.643 271.837C511.01 281.621 513.273 284.614 534.189 299.024L535.605 300H541.773C539.518 298.382 539.38 297.249 539.906 294.014C540.566 289.944 545.429 281.341 547.07 281.341C547.422 281.341 550.131 282.575 553.09 284.085L558.469 286.828L555.363 291.895C553.828 294.401 551.96 297.846 550.954 300H554.659C555.392 298.371 556.492 296.391 557.935 293.912L561.291 288.147L569.446 292.263L577.6 296.38L575.023 300H578.798C579.247 299.37 579.622 298.999 579.87 298.999C580.237 298.999 581.376 299.39 582.856 300H595.309C577.134 292.463 559.399 283.711 547.602 276.272C539.031 270.867 527.228 259.865 527.228 257.283C527.228 254.346 541.972 255.207 556.623 259C581.043 265.321 597.938 271.74 620.837 283.4C633.169 289.678 643.39 295.238 651.38 300H658.673C628.669 279.162 561.934 252.817 534.795 252.817C527.935 252.817 527.309 253.126 521.397 259.448ZM529.761 268.63L526.797 265.5C525.166 263.779 523.444 262.361 522.97 262.348C521.041 262.296 517.291 269.966 516.716 275.139C516.212 279.682 516.682 281.202 519.37 283.712L522.635 286.762L526.198 277.695L529.761 268.63ZM538.064 289.921C542.801 279.212 542.764 278.289 537.464 274.889C534.842 273.207 532.454 271.833 532.156 271.833C531.217 271.833 527.554 280.473 526.63 284.867C525.855 288.553 526.331 289.52 530.49 292.693L535.236 296.313L538.064 289.921Z" fill="#9E9D9D"/>
<path fill-rule="evenodd" clip-rule="evenodd" d="M170.224 45.76C153.723 37.3155 144.669 19.0437 149.756 4.45159C150.713 1.7024 152.157 0.174325 153.797 0.174325C155.973 0.174325 156.152 0.685043 155.022 3.65834C150.726 14.958 156.528 30.3529 167.931 37.905C185.805 49.7452 203.801 44.8485 210.804 26.2399C213.7 18.5439 213.957 8.49794 211.411 2.43181C210.545 0.368561 210.913 0.0154049 213.53 0.394368C220.304 1.37641 220.544 19.4091 213.946 31.5319C204.288 49.2779 187.667 54.6867 170.224 45.76ZM462.03 31.2914C462.03 27.7368 463.307 19.2814 464.869 12.5022C467.29 1.9795 468.108 0.174325 470.448 0.174325C472.62 0.174325 473.029 0.815439 472.417 3.25629C471.991 4.95144 470.685 12.2944 469.514 19.5721L469.365 20.4971C468.109 28.2849 467.482 32.1769 468.856 35.1419C470.228 38.104 473.597 40.1408 480.332 44.2125L481.133 44.6964L485.975 47.6249L492.651 24.4158C498.622 3.6597 501.184 -1.87262 503.672 0.61577C504.1 1.04363 501.265 12.1653 497.375 25.3326C493.484 38.4985 490.51 49.4151 490.767 49.589C491.023 49.7628 509.695 57.6844 532.259 67.1924C578.532 86.6907 596.98 93.8218 613.968 98.7755C625.234 102.061 640.516 103.626 643.362 101.784C644.109 101.302 654.805 78.2476 667.132 50.5547C687.335 5.16469 689.856 0.202849 692.713 0.189266C694.457 0.181117 695.679 0.680968 695.429 1.30035C688.495 18.552 647.859 104.619 645.554 106.937C640.695 111.822 635.531 111.133 609.571 102.133C526.095 73.192 487.961 57.2919 470.519 44.1504C462.191 37.8764 462.03 37.6319 462.03 31.2914ZM559.916 4.20166C556.176 6.20378 550.676 5.78 542.848 2.88683L536.057 0.378069L549.3 0.573663C562.541 0.769257 564.852 1.55978 559.916 4.20166ZM591.548 20.9399C577.745 16.3434 575.099 13.544 576.667 5.18914C577.266 1.99579 578.365 0.174325 579.692 0.174325C581.29 0.174325 581.572 1.1034 580.898 4.16906C580.416 6.36678 580.66 9.35909 581.441 10.8206C583.101 13.9216 600.714 19.7609 604.645 18.5126C606.298 17.9883 608.208 14.6415 610.104 8.94074C611.949 3.40027 613.765 0.174325 615.04 0.174325C616.515 0.174325 616.798 0.99745 616.089 3.23048C612.059 15.9373 610.108 20.0652 607.061 22.3403C603.591 24.9306 603.515 24.9238 591.548 20.9399ZM626.936 15.8191C629.935 6.796 631.622 3.70996 634.373 2.21584C634.62 2.08148 634.851 1.95417 635.069 1.83413L635.073 1.83146L635.086 1.82444L635.106 1.81372L635.115 1.80827C636.292 1.15958 637.075 0.727545 637.912 0.549387C639.582 0.194103 641.466 0.848463 647.109 2.80773C647.667 3.00145 648.262 3.20792 648.897 3.42743C662.651 8.18417 662.675 8.19776 664.32 12.1708C665.562 15.1658 665.241 17.5618 662.546 25.4861C658.054 38.6955 656.877 40.5726 652.484 41.5384C646.455 42.8614 627.66 35.7317 625.101 31.1502C623.21 27.764 623.349 26.6135 626.936 15.8191ZM676.64 61.7403C676.64 61.2363 682.896 47.178 690.542 30.4995C698.813 12.456 705.198 0.174325 706.308 0.174325C706.383 0.174325 706.456 0.173169 706.527 0.172051C706.876 0.166535 707.166 0.161945 707.342 0.301564C708.216 0.994063 706.276 5.2342 694.718 30.505L693.225 33.7703C685.971 49.6338 679.272 62.6218 678.338 62.634C677.405 62.6462 676.64 62.2442 676.64 61.7403ZM986.67 5.6659C982.002 3.35137 978.181 1.08846 978.181 0.637503C978.181 -1.40401 987.865 1.72142 995.62 6.26626C1008.13 13.597 1018.08 24.3832 1024.36 37.4037C1029.75 48.5893 1032.89 62.6558 1030 62.6558C1029.17 62.6558 1028.11 60.9755 1027.65 58.9204C1024.17 43.4712 1021.67 37.6781 1013.82 26.9028C1008.15 19.1252 998.351 11.4577 986.67 5.6659ZM1194.67 47.1916C1195.97 41.9866 1207.32 25.9303 1219.23 12.4329C1225.76 5.02343 1231.07 0.174325 1232.64 0.174325C1234.58 0.174325 1232.81 2.73606 1225.7 10.2175C1210.36 26.3676 1196.87 45.4747 1196.87 51.0424C1196.87 60.5803 1233.24 38.417 1262.27 11.1969C1268.74 5.13481 1275.12 0.174325 1276.45 0.174325C1278.5 0.174325 1278.33 0.743449 1275.33 3.90963L1271.79 7.64493L1278.29 14.67L1284.79 21.6951L1291.35 15.0272L1297.92 8.35939L1294 4.26686C1290.31 0.412026 1290.25 0.174325 1292.97 0.174325C1294.56 0.174325 1296.84 1.54892 1298.03 3.23048L1300.2 6.28664L1302.64 3.08786C1304.11 1.16044 1306.11 0.0914692 1307.68 0.399801C1311.42 1.136 1274.77 37.7243 1257.99 50.0005C1237.57 64.9445 1219.94 74.8804 1213.86 74.8804C1210.11 74.8804 1207.85 78.2598 1210.1 80.5091C1212.69 83.1021 1234.82 70.2676 1259.35 51.9361C1270.93 43.2784 1301.44 14.0615 1307.57 5.76234C1309.81 2.72384 1312.04 0.224582 1312.52 0.206924C1313.44 0.172967 1320.02 5.48661 1325.55 10.7269C1329.43 14.4106 1329.98 14.1484 1334.95 6.28392C1337.28 2.60023 1339.82 0.1784 1341.35 0.177042C1343.16 0.175683 1343.53 0.664669 1342.62 1.87219C1341.92 2.80669 1339.27 6.3206 1336.74 9.68237C1332 15.9767 1332.74 15.5896 1344.09 5.86557C1351.03 -0.0796747 1354.43 -1.26546 1354.43 2.25523C1354.43 8.09588 1344.71 22.7777 1341.97 21.0825C1341.2 20.6071 1342.04 18.7137 1343.92 16.664C1354.87 4.76128 1353.96 0.630711 1342.54 10.4308C1325.05 25.4521 1316.24 34.8135 1311.94 42.9605C1306.26 53.7087 1293.7 66.1534 1286.6 68.0645C1281.51 69.4363 1258.31 85.2238 1258.09 87.4704C1257.94 88.9672 1264.55 87.1756 1270.89 83.9972C1292.95 72.9475 1331.53 40.1054 1354.01 13.2438C1359.71 6.42926 1365.26 0.641577 1366.35 0.383502C1368.46 -0.116349 1367.77 1.77168 1364.43 5.68627C1362.88 7.50639 1363.58 8.81578 1369.43 15.0463C1373.17 19.0301 1376.39 22.051 1376.59 21.7589C1376.79 21.4669 1378.61 18.9772 1380.63 16.2253C1385.06 10.2067 1385.13 9.11868 1381.46 4.46381C1378.91 1.227 1378.86 0.805931 1380.91 0.390293C1382.17 0.134935 1384.15 1.28405 1385.32 2.94388L1387.43 5.96065L1389.91 2.72791C1391.74 0.350903 1392.41 0.0643036 1392.43 1.64671C1392.49 6.15217 1372.66 31.6813 1353.28 52.0489C1327.32 79.3288 1285.64 108.838 1273.07 108.838C1267.97 108.838 1261.45 103.411 1257.76 96.1023C1256.21 93.0217 1254.75 90.2915 1254.53 90.0348C1254.3 89.7795 1248.97 92.3765 1242.67 95.8076C1227.85 103.885 1223.32 104.05 1216.04 96.776C1210.77 91.4964 1205.31 79.0544 1207.05 76.2455C1207.53 75.4685 1205.52 72.1 1202.57 68.7586C1196.83 62.2347 1193.31 52.6166 1194.67 47.1916ZM1218.6 26.1177C1218.6 28.003 1219 27.7001 1237.3 12.0798C1255.85 -3.76065 1259.81 -3.84486 1250.43 11.7999C1240.98 27.5629 1227.67 37.4594 1219.88 34.5174C1216.92 33.4009 1215.69 33.5516 1214 35.2346C1212.83 36.4068 1211.4 36.8767 1210.82 36.2791C1210.24 35.6814 1211.15 34.2688 1212.83 33.1387C1214.51 32.0086 1215.88 29.8557 1215.88 28.3534C1215.88 24.8654 1220.67 17.0769 1224.45 14.435C1229.92 10.6019 1229.81 12.3976 1224.2 18.4814C1221.12 21.8255 1218.6 25.262 1218.6 26.1177ZM159.779 9.68237C160.882 9.68237 162.786 8.15429 164.01 6.28664C165.233 4.41899 167.081 2.89091 168.116 2.89091C170.61 2.89091 170.504 4.85364 167.896 7.01876C164.944 9.46912 167.721 10.9931 175.182 11.0203C179.432 11.0352 182.324 10.0654 185.695 7.49416C191.431 3.1191 196.318 3.90012 199.631 9.72312C200.889 11.9317 202.951 13.7437 204.214 13.7491C207.527 13.7613 208.643 16.3516 205.738 17.282C204.384 17.7167 201.053 19.2407 198.336 20.6682C195.62 22.0972 192.716 23.2653 191.885 23.2653C188.968 23.2653 190.407 20.4672 194.107 18.9418C197.728 17.4504 197.618 17.3676 190.563 16.2484C183.618 15.1481 183.062 15.288 178.509 19.2855C174.809 22.5345 172.936 23.287 170.17 22.6337C166.271 21.7128 161.847 17.2752 161.847 14.2856C161.847 13.2479 160.93 12.399 159.81 12.399C158.689 12.399 157.772 11.7877 157.772 11.0407C157.772 10.2936 158.676 9.68237 159.779 9.68237ZM659.659 12.3949C658.384 10.9877 653.62 8.57944 649.069 7.04321C644.519 5.50698 640.359 4.2492 639.823 4.2492C637.649 4.2492 631.924 12.7344 629.817 19.0777C626.819 28.1022 628.214 30.4085 638.848 33.9985C648.515 37.2638 652.648 37.5667 654.559 35.1503C655.3 34.2172 657.269 29.2907 658.939 24.2039C661.806 15.466 661.845 14.8126 659.659 12.3949ZM1229.21 30.1858C1235.07 27.1962 1245.79 16.2049 1249.12 9.7693C1250.37 7.34203 1251.17 5.12802 1250.89 4.84957C1250.13 4.09164 1219.96 30.141 1219.96 31.5536C1219.96 33.5258 1223.77 32.9621 1229.21 30.1858ZM1326.41 17.4858L1320.12 11.5473C1316.67 8.28061 1313.34 5.63466 1312.74 5.66862C1312.14 5.70257 1309.12 8.61611 1306.04 12.145L1300.44 18.5602L1306.93 25.6233L1313.42 32.685L1319.92 25.0854L1326.41 17.4858ZM1360.74 58.7208C1373.94 45.5752 1385.18 31.3661 1394.5 16.0011C1400.46 6.18341 1403.33 3.38261 1403.33 7.36784C1403.33 9.7204 1392.82 26.6406 1384.81 37.1878C1371.99 54.0836 1348.99 75.9697 1348.99 71.285C1348.99 70.8014 1354.28 65.1469 1360.74 58.7208ZM191.051 12.5715C194.039 13.0659 196.755 13.2126 197.087 12.8974C197.42 12.581 196.485 11.1181 195.013 9.64434C192.45 7.0826 192.189 7.06766 188.975 9.3197L185.617 11.6723L191.051 12.5715ZM514.196 25.3041C516.015 19.5762 518.563 13.7179 519.859 12.2862C521.253 10.7459 524.005 9.68237 526.593 9.68237C533.393 9.68237 547.917 15.701 550.964 19.7813L553.647 23.374L549.606 35.1775C543.978 51.6142 542.241 52.4957 526.235 47.0286C510.549 41.6715 509.563 39.8908 514.196 25.3041ZM1282.44 25.0718C1282.44 24.6059 1280.26 21.5633 1277.59 18.3102C1270 9.04669 1268.87 8.86332 1262.05 15.8042L1256.18 21.7902L1259.91 27.1649C1267.11 37.5627 1267.55 37.6836 1275.47 31.43C1279.3 28.3983 1282.44 25.5377 1282.44 25.0718ZM544.615 37.8669C550.772 21.2428 550.579 20.6085 537.969 15.9346C532.723 13.9895 527.949 12.399 527.361 12.399C523.377 12.399 514.541 31.2575 516.284 36.0414C517.466 39.285 530.715 44.7874 537.657 44.9178C541.646 44.9912 542.174 44.4574 544.615 37.8669ZM1371.52 21.5905C1370.36 19.822 1367.59 17.0307 1365.37 15.3872C1363.15 13.7437 1360.85 12.4438 1360.25 12.4995C1358.77 12.6367 1347.64 25.7768 1347.64 27.3904C1347.64 28.1103 1348.15 28.6985 1348.77 28.6985C1349.39 28.6985 1352.58 31.1692 1355.85 34.19C1356.47 34.7625 1357.02 35.2862 1357.51 35.7562L1357.51 35.7588C1359.36 37.518 1360.41 38.525 1361.47 38.5238C1362.88 38.5222 1364.29 36.7132 1367.58 32.482C1368.24 31.6369 1368.98 30.6952 1369.8 29.652C1373.4 25.0976 1373.5 24.6141 1371.52 21.5905ZM172.079 19.1904C175.283 19.1904 178.731 16.1519 177.23 14.651C176.738 14.1593 173.592 13.7572 170.239 13.7572C164.228 13.7572 164.178 13.7953 166.601 16.4738C167.953 17.9679 170.418 19.1904 172.079 19.1904ZM1311.3 35.733L1304.83 28.8207C1301.28 25.0175 1297.97 21.907 1297.48 21.907C1296.99 21.907 1293.91 24.6317 1290.64 27.9623L1284.7 34.0162L1290.57 40.5265C1293.8 44.1056 1296.83 47.4904 1297.31 48.046C1297.79 48.6015 1301.13 46.0588 1304.74 42.3941L1311.3 35.733ZM1265.98 39.2089L1260.29 31.9923C1257.15 28.0234 1253.94 24.7417 1253.14 24.6996C1250.97 24.5855 1240.33 33.1115 1240.33 34.9697C1240.33 35.858 1242.96 39.4846 1246.16 43.0271C1251.61 49.047 1252.21 49.3554 1255.33 47.7458C1257.17 46.7991 1260.31 44.4913 1262.32 42.6169L1265.98 39.2089ZM559.827 53.7223C559.827 47.758 565.878 31.2398 568.862 29.0584C572.148 26.6569 575.628 26.9001 585.71 30.2374C595.604 33.5122 600.576 37.3127 600.576 41.6009C600.576 46.435 593.914 64.5696 591.47 66.3911C588.085 68.9134 583.293 68.4747 572.864 64.6932C561.15 60.4445 559.827 59.3307 559.827 53.7223ZM92.8365 61.542C84.2779 53.547 84.2127 39.338 92.7034 32.1947C97.9464 27.7816 108.659 27.3347 115.095 31.2602C123.417 36.3348 125.919 48.3407 120.407 56.7526C114.427 65.8803 100.139 68.3633 92.8365 61.542ZM595.959 40.3078C595.349 37.8751 593.269 36.4516 587.338 34.4046C583.039 32.9214 578.476 31.2806 577.197 30.7563C574.003 29.4509 569.225 34.8624 566.254 43.1507C563.462 50.9432 563.267 55.0154 565.6 56.9142C569.2 59.8454 585.777 64.0331 588.344 62.6598C591.474 60.9837 597.044 44.6339 595.959 40.3078ZM1359.18 42.1062L1352.6 36.0821C1348.98 32.7679 1345.59 30.0567 1345.07 30.0567C1344.55 30.0567 1341.43 32.8086 1338.13 36.1718L1332.12 42.2868L1338.83 49.0932L1345.53 55.8996L1352.36 49.0036L1359.18 42.1062ZM119.395 45.9569C118.942 41.2423 117.767 38.3328 115.334 35.8988C111.415 31.9814 101.72 30.3732 97.3284 32.9132C86.64 39.0975 87.474 55.2069 98.7587 60.5613C105.448 63.7356 111.758 62.4262 116.408 56.898C119.534 53.1844 119.945 51.6794 119.395 45.9569ZM100.721 47.322C96.9698 48.3027 94.0984 45.5562 94.2247 41.1078C94.3143 37.9471 94.9568 37.3535 98.5454 37.1158C101.621 36.9107 102.225 37.1823 100.778 38.1169C97.7413 40.0796 102.804 45.2098 106.789 44.2101C110.213 43.3503 112.299 45.453 113.248 50.7218C113.857 54.1067 113.591 54.3702 109.98 53.9491C105.369 53.4126 103.168 51.8098 106.949 51.7446C109.362 51.7025 109.329 51.5123 106.502 49.153C104.739 47.6819 102.298 46.9091 100.721 47.322ZM1250.03 51.6237L1244.29 45.2547C1241.14 41.7516 1238.17 38.4347 1237.69 37.8846C1236.58 36.5833 1226.75 43.2539 1226.75 45.3131C1226.75 48.0351 1233.73 57.099 1236.5 57.9805C1238.19 58.517 1241.12 57.5173 1244.59 55.2218L1250.03 51.6237ZM1295.16 51.856L1289.67 45.3701C1286.65 41.8032 1283.33 38.7498 1282.29 38.5841C1281.25 38.4184 1277.72 40.6446 1274.45 43.531L1268.49 48.7794L1272.27 53.7291C1274.34 56.4511 1277.69 59.8495 1279.7 61.2825L1283.36 63.8864L1289.26 57.8705L1295.16 51.856ZM98.8524 44.998C100.658 44.998 100.751 44.6299 99.3658 42.9605C98.4354 41.8399 97.4439 40.9231 97.1627 40.9231C96.8802 40.9231 96.6493 41.8399 96.6493 42.9605C96.6493 44.0811 97.6408 44.998 98.8524 44.998ZM610.109 60.5341C612.209 53.8391 614.517 49.2779 616.655 47.5964C620.833 44.3093 622.111 44.3405 633.465 47.9971C648.966 52.9901 650.528 56.2107 645.214 72.2399C641.18 84.4074 639.383 86.1732 631.818 85.4112C628.456 85.0716 622.05 83.3276 617.585 81.536C606.716 77.1718 605.747 74.4471 610.109 60.5341ZM1287.51 65.3723C1289.43 65.3723 1302.1 53.8839 1305.61 48.9547C1307.16 46.7787 1308.24 45.0265 1308 45.0618C1306.62 45.2642 1286.33 65.3723 1287.51 65.3723ZM1342.88 58.7697L1340.12 55.0846C1338.61 53.0567 1335.43 49.9 1333.05 48.0691L1328.74 44.7385L1322.25 50.8685L1315.76 56.9985L1321.25 63.4762C1324.27 67.0376 1327.46 70.1916 1328.33 70.4822C1329.2 70.7729 1332.83 68.2573 1336.4 64.8915L1342.88 58.7697ZM108.901 48.4263C110.765 50.6715 112.429 50.1703 110.967 47.8055C110.475 47.0082 109.421 46.3562 108.628 46.3562C107.726 46.3562 107.829 47.1359 108.901 48.4263ZM1229.59 55.1607C1226.53 51.8465 1224.03 48.5091 1224.03 47.7444C1224.03 46.9811 1223.57 46.4228 1223.01 46.5029C1221.11 46.7787 1211.81 52.4631 1211.81 53.3528C1211.81 54.4462 1224.18 66.732 1225.27 66.7252C1225.71 66.7225 1228.11 65.4756 1230.61 63.9543L1235.14 61.1888L1229.59 55.1607ZM643.832 58.6461C643.462 56.1292 641.608 54.7709 635.212 52.3259C630.73 50.6145 625.731 49.1815 624.105 49.1435C620.305 49.0525 616.284 54.2126 613.407 62.8704C610.1 72.8294 611.51 74.9293 624.161 78.8969C633.875 81.9435 634.636 82.0005 637.017 79.8449C640.026 77.1229 644.5 63.2018 643.832 58.6461ZM1193.29 73.4148C1188.95 69.4241 1184.71 60.6142 1184.67 55.5247C1184.63 49.9394 1186.7 51.0179 1188.6 57.5622C1189.52 60.7365 1192.12 65.97 1194.39 69.1905C1199.13 75.9249 1198.52 78.2408 1193.29 73.4148ZM1271.49 72.5957C1274.9 69.996 1277.68 67.4138 1277.68 66.8583C1277.68 66.3028 1274.86 62.7033 1271.4 58.8607L1265.12 51.8723L1258.9 56.7146L1252.69 61.5583L1259 69.4404L1265.3 77.3226L1271.49 72.5957ZM1218.01 64.8806C1216.2 63.6908 1213.62 60.8696 1212.29 58.6121C1209.68 54.1882 1209.33 54.0958 1202.58 56.0409L1198.11 57.3299L1201.14 62.721C1205.62 70.6982 1209.56 72.8592 1216.07 70.9087C1222.17 69.0818 1222.56 67.8607 1218.01 64.8806ZM1326.2 74.0287L1322.28 70.0394C1320.13 67.8458 1317.16 64.431 1315.68 62.452L1313 58.8512L1306.63 63.7057C1299.48 69.1457 1299.49 69.2407 1307.56 78.6102C1313.02 84.9548 1313.28 84.9412 1321.64 77.8836L1326.2 74.0287ZM1261.83 79.5203C1262.08 79.3396 1259.63 75.823 1256.4 71.7033C1253.16 67.585 1250.21 64.2164 1249.84 64.2178C1247.95 64.2259 1239.07 71.7359 1239.02 73.3618C1239 74.3928 1241.72 77.9841 1245.08 81.3404L1251.18 87.4432L1256.28 83.6454C1259.09 81.5564 1261.59 79.6996 1261.83 79.5203ZM1303.33 90.6583C1306.35 88.8749 1308.97 86.8863 1309.15 86.2411C1309.33 85.5959 1306.6 81.8892 1303.09 78.0058L1296.7 70.9427L1293.43 73.6457C1291.63 75.1317 1289.26 76.8445 1288.18 77.4516C1285.36 79.0272 1287.03 83.0913 1292.88 88.9482L1297.84 93.9019L1303.33 90.6583ZM1248.48 89.1302C1248.48 88.9767 1245.34 85.7073 1241.5 81.8661C1237.65 78.0235 1234.44 74.9048 1234.36 74.9347C1231.14 76.1409 1226.75 79.4633 1226.76 80.6966C1226.77 83.1687 1231.38 89.6803 1234.82 92.0899C1237.57 94.0214 1238.31 93.9956 1243.16 91.8088C1246.09 90.4885 1248.48 89.2837 1248.48 89.1302ZM1216.9 92.5939C1222.49 98.4984 1228.77 100.568 1232.44 97.716C1234.53 96.0969 1234.15 95.3118 1228.37 89.1302C1222.17 82.5099 1221.86 82.3618 1216.9 83.5979C1214.1 84.2961 1211.81 85.3949 1211.81 86.0387C1211.81 86.6826 1214.1 89.6328 1216.9 92.5939ZM1294.51 95.7057C1294.8 95.502 1293.26 93.6357 1291.1 91.5588C1288.93 89.4834 1286.25 86.4422 1285.14 84.8013L1283.12 81.8172L1278.02 84.4944C1275.22 85.9654 1272.93 87.6891 1272.93 88.3234C1272.93 89.5486 1284.57 100.688 1285.85 100.688C1286.45 100.688 1291.84 97.5869 1294.51 95.7057ZM1280.51 103.074C1280.81 102.766 1278.33 99.6597 1274.98 96.1689C1271.64 92.6781 1268.43 89.9126 1267.86 90.0253C1267.29 90.1367 1265.14 90.4831 1263.08 90.7941C1258.01 91.5629 1258.34 94.5213 1264.14 100.318C1268.45 104.627 1269.49 105.036 1274.44 104.372C1277.47 103.965 1280.2 103.381 1280.51 103.074ZM119.38 105.938C120.058 105.26 123.321 104.133 126.629 103.433C129.937 102.735 138.145 102.39 144.869 102.668C163.538 103.438 181.279 110.915 192.901 122.907C199.976 130.206 196.758 131.834 189.209 124.773C180.703 116.816 171.518 111.611 160.685 108.607C150.75 105.852 134.131 105.346 126.174 107.555C120.88 109.026 117.174 108.144 119.38 105.938ZM426.707 125.815C429.121 117.163 439.869 105.885 447.814 103.669C455.022 101.659 467.299 102.554 473.615 105.552C495.188 115.789 501.595 145.866 485.462 161.169C477.528 168.692 471.922 170.603 457.738 170.622C445.359 170.639 444.281 170.409 438.721 166.565C427.145 158.562 422.226 141.879 426.707 125.815ZM490.451 137.647C490.656 128.799 479.372 112.9 471.109 110.394C449.591 103.865 431.543 115.923 429.77 138.01C429.155 145.677 429.497 147.424 432.684 152.861C437.932 161.816 445.551 165.886 457.071 165.886C475.573 165.886 490.081 153.612 490.451 137.647ZM464.153 122.421C467.38 122.421 470.397 121.809 470.859 121.062C471.32 120.315 472.6 119.704 473.703 119.704C475.265 119.704 475.397 120.285 474.302 122.331C473.529 123.776 472.896 126.782 472.896 129.011C472.896 134.035 471.686 137.362 469.856 137.362C469.015 137.362 468.775 135.346 469.246 132.268L470.027 127.175L464.836 132.935C460.105 138.185 459.704 139.227 460.317 144.661C460.87 149.567 460.45 151.166 457.956 153.66C455.521 156.095 453.881 156.553 449.648 155.985C446.746 155.597 444.031 155.832 443.613 156.507C441.855 159.351 440.984 157.295 441.116 150.605C441.309 140.76 441.617 140.08 443.511 145.313L445.16 149.868L450.21 144.278C454.574 139.448 455.227 137.87 455.03 132.654C454.732 124.761 456.819 122.421 464.153 122.421ZM462.03 131.249C464.271 129.102 466.105 126.849 466.105 126.241C466.105 125.048 462.397 124.929 459.653 126.036C458.72 126.414 457.955 128.618 457.955 130.937V135.153L462.03 131.249ZM356.689 156.333C355.705 148.689 360.078 139.47 366.811 134.996C370.173 132.761 373.415 131.929 378.75 131.929C403.29 131.929 411.903 157.679 392.519 173.093C378.811 183.993 359.06 174.753 356.689 156.333ZM396.314 144.467C395.08 142.079 392.276 139.197 390.085 138.064C387.893 136.931 383.105 136.004 379.443 136.004C361.187 136.004 354.127 156.052 367.628 169.553C371.357 173.282 373.128 174.036 378.158 174.036C393.068 174.036 403.13 157.648 396.314 144.467ZM377.225 143.253C378.297 142.841 379.174 141.653 379.174 140.612C379.174 137.063 381.207 138.739 383.488 144.167C385.889 149.887 385.437 151.18 382.423 147.209C380.824 145.104 380.614 145.442 380.576 150.179C380.546 153.778 381.461 156.512 383.377 158.551C386.142 161.496 386.061 167.244 383.254 167.244C382.61 167.244 381.114 168.215 379.926 169.403C377.954 171.375 377.54 171.286 375.121 168.384C372.249 164.938 371.352 161.595 374.012 164.256C376.76 167.004 377.816 166.102 377.816 161.007C377.816 158.202 376.673 154.675 375.129 152.712C372.258 149.061 373.203 144.796 377.225 143.253ZM449.582 152.624C451.208 154.249 455.956 151.857 457.118 148.829C457.581 147.622 457.446 145.719 456.818 144.597C455.889 142.938 454.992 143.375 451.985 146.947C449.657 149.715 448.77 151.811 449.582 152.624ZM375.751 150.901C377.032 152.974 379.174 151.25 379.174 148.148C379.174 146.697 378.544 145.512 377.774 145.512C375.94 145.512 374.61 149.055 375.751 150.901ZM381.397 165.603C382.62 164.381 383.25 162.416 382.798 161.238C381.381 157.545 379.174 158.899 379.174 163.46C379.174 167.504 379.338 167.661 381.397 165.603ZM1236.98 211.999C1234.77 215.576 1233.54 210.966 1233.54 199.084C1233.54 192.03 1234.09 186.26 1234.75 186.26C1236.22 186.26 1238.27 209.914 1236.98 211.999ZM1275.63 212.068C1273.36 212.068 1274.08 209.706 1279.82 198.284C1283.51 190.946 1285.81 187.73 1286.72 188.636C1288.25 190.174 1277.9 212.068 1275.63 212.068ZM421.178 215.776C423.026 210.177 428.987 204.21 434.326 202.613C436.49 201.966 439.073 201.689 440.069 201.999C441.063 202.307 443.03 202.56 444.437 202.56C448.719 202.56 456.216 211.23 457.255 217.384C459.192 228.848 451.769 239.234 441.639 239.234C426.858 239.234 417.121 228.07 421.178 215.776ZM443.427 235.041C456.743 231.221 458.881 216.228 447.227 208.383C441.586 204.586 436.911 204.452 431.216 207.925C425.714 211.279 423.998 214.537 423.998 221.621C423.998 226.144 424.807 228.033 428.04 231.054C432.723 235.428 437.636 236.7 443.427 235.041ZM1309.03 227.187C1308.58 226.456 1312.62 222.755 1318 218.963C1327.33 212.393 1331.34 210.67 1331.34 213.233C1331.34 214.257 1327.2 217.252 1313.47 226.171C1311.3 227.575 1309.53 227.983 1309.03 227.187ZM432.882 221.004C435.026 220.466 437.606 218.847 438.616 217.405C440.744 214.366 442.511 214.162 447.261 216.404L450.692 218.023L447.966 221.158C445.009 224.559 441.596 225.601 444.372 222.255C447.667 218.285 441.954 220.017 437.549 224.324C433.425 228.354 433.279 228.388 429.481 226.144C426.092 224.142 425.792 223.464 427.061 220.679C428.69 217.103 431.179 216.264 429.844 219.742C429.121 221.623 429.607 221.826 432.882 221.004ZM1195.66 236.517C1194.12 236.517 1179.21 218.118 1179.21 216.215C1179.21 212.952 1182.23 215.303 1189.34 224.104C1196.52 232.988 1198.31 236.517 1195.66 236.517ZM442.254 218.859C443.418 218.859 444.372 218.248 444.372 217.501C444.372 216.754 443.797 216.143 443.094 216.143C442.39 216.143 441.438 216.754 440.976 217.501C440.514 218.248 441.09 218.859 442.254 218.859ZM432.827 225.651C433.859 225.651 435.081 225.04 435.543 224.292C436.021 223.52 434.852 222.934 432.827 222.934C430.801 222.934 429.632 223.52 430.11 224.292C430.572 225.04 431.794 225.651 432.827 225.651ZM588.011 256.991C579.326 254.114 577.754 253 579.67 251.083C580.529 250.226 598.773 256.514 614.158 262.971C630.007 269.621 649.474 280.192 649.474 282.146C649.474 283.198 649.238 284.057 648.948 284.057C648.659 284.057 643.265 281.314 636.963 277.961C624.066 271.101 601.764 261.546 588.011 256.991ZM1169.21 274.549C1166.05 274.549 1146.61 265.04 1146.61 263.494C1146.61 261.493 1151.19 262.789 1162.02 267.86C1170.5 271.829 1173.43 274.549 1169.21 274.549Z" fill="#9E9D9D"/>
<path fill-rule="evenodd" clip-rule="evenodd" d="M547.602 263.5C547.602 264.247 548.825 265.246 550.319 265.72C551.992 266.251 553.035 267.775 553.035 269.688C553.035 279.225 575 289.49 595.406 289.49C600.775 289.49 605.957 291.27 621.758 298.541C622.852 299.044 623.899 299.531 624.9 300.001L631.177 300C629.186 299.079 627.07 298.076 624.9 297.021C609.034 289.309 607.476 288.271 612.8 288.972C616.162 289.413 623.293 291.58 628.649 293.787C632.956 295.563 637.18 297.889 640.271 300H644.207C635.745 292.76 615.55 284.853 603.895 285.583C601.403 285.739 592.479 282.38 580.201 276.664C559.789 267.16 559 266.74 559.94 265.883C560.54 265.336 571.099 268.024 575.108 269.745C576.466 270.328 577.485 270.184 577.485 269.41C577.485 267.047 566.515 263.554 559.991 263.838C556.538 263.989 552.34 263.668 550.658 263.126C548.869 262.55 547.602 262.705 547.602 263.5ZM579.928 285.249C587.685 286.892 594.734 287.271 593.436 285.973C592.995 285.532 584.336 281.297 574.193 276.562C558.983 269.461 555.752 268.37 555.752 270.336C555.752 275.393 567.437 282.601 579.928 285.249Z" fill="#9E9D9D"/>
</svg>
