<svg width="768" height="556" fill="none" xmlns="http://www.w3.org/2000/svg"><path fill-rule="evenodd" clip-rule="evenodd" d="M32 42.49C1.294 53.583 0 56.996 0 56.996V556h768V59.552l-32-3.84c-14.247-1.71-33.887-5.272-57.365-9.53C649.381 40.876 614.168 34.49 576 29.259c-17.526-2.402-34.04-6.406-51.311-10.593-10.566-2.562-21.417-5.193-32.956-7.567-26.183-6.903-53.424-7.863-80.58-8.82-9.075-.32-18.14-.64-27.153-1.18-64-3.84-123.467 2.786-192 13.654-20.177 3.2-39.68 5.958-57.941 8.541C90.294 29.484 53.666 34.664 32 42.491z" fill="#F5F5F5"/></svg>