<svg width="1440" height="301" fill="none" xmlns="http://www.w3.org/2000/svg"><path d="M1434.57 187.852c-11.85 3.354-15.6 12.29-14.61 34.747.82 18.745 5.1 39.011 13.85 65.533l3.91 11.868h1.91l-.11-3.039c-.22-6.414-1.95-14.695-5.33-25.45-11.16-35.574-13.16-57.945-6.3-70.386 3.68-6.663 7.26-8.24 10.13-4.457 1.7 2.246 1.9 1.852 1.94-3.956.02-3.549-.11-6.396-.3-6.329-.19.067-2.48.728-5.09 1.469zM1.842 294.245c-1.265-3.635-1.43-3.112-1.524 4.854-.004.306-.006.606-.006.901h3.713c-1.166-3.02-1.943-5.064-2.183-5.755z" fill="#666566"/><path fill-rule="evenodd" clip-rule="evenodd" d="M133.964 114.302c-21.208 2.842-42.248 11.463-54.594 22.37-7.89 6.971-16.352 22.137-17.618 31.579-.653 4.873-1.23 5.604-4.993 6.325-2.34.449-16.067 3.367-30.507 6.487L0 186.734l.594 8.253c.426 5.935 2.587 13.021 7.696 25.231C13.536 232.755 24.883 265.8 36.068 300h8.545l-.986-3.378-2.476-8.49h4.32c5.777 0 111.249 7.992 111.667 8.461.116.13.565 1.484 1.141 3.407h5.814c-.223-1.144-.448-2.439-.702-3.898l-.137-.787c-1.127-6.479-1.146-9.349-.066-10.436 1.592-1.605 26.502-7.562 29.889-7.149 1.115.138 2.782 1.822 3.704 3.745.922 1.924 1.843 7.08 2.047 11.456l.331 7.069h5.939c.143-1.636.132-3.802-.009-6.668l-.456-9.22 42.108-23.768c37.721-21.291 44.126-24.699 44.151-23.487.004.186 3.014 24.107 6.688 53.155.448 3.539.867 6.864 1.257 9.988h6.196a5744.203 5744.203 0 00-1.797-15.264c-4.256-35.714-6.199-56.51-5.418-57.977 1.946-3.66 1.446-10.542-2.222-30.56-4.358-23.774-10.571-48.696-14.299-57.363-5.243-12.19-2.536-12.023-45.449-2.803-35.276 7.58-37.977 7.976-39.211 5.754-2.896-5.223-16.14-17.774-22.227-21.066-11.19-6.048-25.851-8.375-40.446-6.419zm38.027 11.103c-3.011-1.505-9.083-3.404-13.492-4.219-13.651-2.524-28.153-1.055-46.909 4.748-14.062 4.352-19.2 6.903-28.128 13.961-7.806 6.169-15.337 19.372-15.337 26.887 0 5.129.583 5.295 10.52 3.002 5.88-1.358 7.02-2.231 9.831-7.529 8.166-15.395 21.718-24.719 40.522-27.881 13.389-2.251 24.235.479 36.409 9.167 8.085 5.77 8.956 6.078 13.742 4.88 2.811-.704 6.8-1.66 8.864-2.124 3.616-.815 3.683-.984 1.81-4.552-2.729-5.201-11.353-13.102-17.832-16.34zm118.815 72.322c-4.888-25.419-9.754-45.275-13.634-55.649-3.013-8.049-3.805-8.4-13.453-5.94-2.615.667-23.702 5.208-46.861 10.093a58027.483 58027.483 0 00-86.251 18.279c-70.74 15.061-114.392 24.244-119.885 25.223-2.81.5-5.384 1.356-5.72 1.901-.336.544 4.47 14.38 10.682 30.746 6.212 16.367 13.283 35.761 15.713 43.099 2.43 7.338 5.118 13.578 5.972 13.869.853.291 16.834 1.801 35.51 3.356 18.677 1.557 43.737 3.718 55.69 4.802 28.761 2.612 27.845 2.653 27.845-1.246 0-4.881 2.779-6.341 18.687-9.815 18.404-4.019 22.68-4.091 25.246-.427 1.953 2.788 2.201 2.701 18.074-6.272 38.77-21.914 65.846-39.196 72.823-46.478l3.725-3.888-4.163-21.653zm-126.481-49.116c-.989-1.195-4.855-3.598-8.59-5.339-17.932-8.361-51.64 1.467-59.914 17.469-1.148 2.222-1.748 4.379-1.334 4.794.654.654 51.819-9.681 66.442-13.421 4.554-1.164 4.973-1.596 3.396-3.503z" fill="#666566"/><path d="M1238.97 224.878c-14.95 4.16-28.14 14.087-37.69 28.373-8.88 13.282-12.62 24.263-13.54 39.805-.15 2.472-.22 4.772-.21 6.944h5.93c-.08-8.094 1-16.586 3.21-23.064 5.72-16.744 20.81-36.229 32.98-42.569 13.45-7.009 31.27-7.608 47.59-1.601 14.72 5.419 29.05 15.154 35.79 24.309 8.78 11.928 10.14 15.987 9.97 42.925h4.74c.07-4.331.12-8.515.14-11.902.06-14.95-.13-16.051-4.3-24.449-11.29-22.783-41.66-40.9-68.04-40.594-5.75.068-13.21.887-16.57 1.823z" fill="#666566"/><path d="M1287.04 275.969c-4.33-5.143-6.12-5.169-11.71-.169l-4.44 3.966.14 14.032c.02 2.303.07 4.342.16 6.202h3.74c-.85-8.303-.83-16.274.7-19.974 2.52-6.095 6.39-5.421 9.5 1.654 2.54 5.794 4.08 12.182 4.64 18.32h3.92c-.25-11.728-2.24-18.782-6.65-24.031zm-399.144 5.304c-.438.709.325 1.891 1.697 2.624 2.373 1.27 19.865 8.662 37.805 16.103h9.619c-2.458-1.04-5.064-2.135-7.82-3.287-21.991-9.196-40.101-16.721-40.244-16.724-.142-.004-.618.573-1.057 1.284z" fill="#666566"/><path fill-rule="evenodd" clip-rule="evenodd" d="M803.434 8.664c-13.716 18.443-29.453 59.846-41.69 109.682-7.233 29.46-14.473 66.223-14.473 73.494 0 9.902 4.963 17.389 15.741 23.746 3.054 1.801 55.241 24.048 115.971 49.438 38.654 16.16 66.416 27.615 84.819 34.976h18.138l-97.748-39.684c-58.497-23.75-106.957-43.726-107.686-44.393-1.264-1.153 34.317-111.174 35.944-111.149.385.005 10.172 7.716 21.752 17.136 11.579 9.42 31.598 25.658 44.484 36.084 12.886 10.428 23.43 19.352 23.43 19.831 0 .481-1.006 3.51-2.237 6.732-3.598 9.42-2.083 11.055 17.807 19.233 11.217 4.613 18.131 6.752 19.948 6.177 1.67-.53 4.093-3.847 6.057-8.286l3.273-7.403 7.798.834c4.29.459 26.309 2.547 48.928 4.64 22.63 2.093 41.47 4.134 41.87 4.533.4.399-6.3 14.08-14.88 30.401-8.58 16.323-19.59 37.316-24.46 46.655-4.24 8.131-8.97 15.858-11.36 18.659h7.55c5.31-9.259 14.99-26.956 25.39-46.504 18.51-34.773 28.03-51.283 30.9-53.586 4.78-3.843 14.45-23.505 25.76-52.39 8.94-22.832 10.87-29.678 10.29-36.563l-.44-5.23-35.65-14.927L1023 75.872v-5.065c0-8.479-2.57-19.257-6.63-27.841-5.76-12.147-15.82-21.333-32.077-29.284-34.399-16.823-64.978-15.93-85.138 2.488l-5.868 5.36-25.732-10.677C846.651 2.178 840.493.174 834.744.174c-6.364 0-7.009.27-6.383 2.664 2.062 7.882-17.014 78.607-41.229 152.861-14.632 44.867-16.927 51.563-18.086 52.76-3.37 3.478-14.945-12.047-14.971-20.08-.038-12.021 22.622-107.163 31.884-133.873 9.764-28.153 21.205-46.634 32.235-52.07l4.462-2.2-6.454-.03c-6.35-.032-6.557.106-12.768 8.458zm146.902 43.074a229811.51 229811.51 0 00-61.123-25.804c-26.895-11.35-49.816-20.896-50.936-21.215-1.621-.462-3.528 5.477-9.321 29.017-4.006 16.28-9.246 36.46-11.646 44.846-2.401 8.385-4.014 15.763-3.584 16.396.429.633 21.166 18.115 46.081 38.852 43.752 36.413 45.368 37.606 47.278 34.878 2.877-4.108 6.641-3.547 23.083 3.438 16.436 6.985 19.489 9.094 19.489 13.47l-.001.113v.069c-.002.501-.003.923.137 1.292.753 1.981 5.602 2.405 36.508 5.106l2.067.181c23.022 2.013 62.532 2.709 68.162 1.202 3.1-.833 11.7-18.4 23.48-47.966 5.31-13.316 11.64-33.862 10.68-34.666-.25-.21-29.18-12.455-64.29-27.21-35.112-14.757-69.341-29.156-76.064-32zm66.954 14.441c1.2-21.446-17.789-41.349-50.925-53.373-11.206-4.065-15.461-4.904-26.896-5.302-7.47-.26-15.111.03-16.978.648-10.716 3.537-23.723 13.697-20.976 16.386.703.69 4.24 2.41 7.859 3.822l6.578 2.569 11.643-4.675c10.467-4.203 12.617-4.61 21.267-4.013 17.431 1.198 35.168 10.922 42.98 23.564 1.633 2.642 3.999 8.275 5.258 12.515 2.267 7.634 2.377 7.748 11.04 11.369l8.75 3.658.4-7.168zm-25.817-8.883c-2.713-10.683-14.053-20.259-30.323-25.601-9.04-2.968-15.924-4.072-21.001-3.37-4.939.683-14.942 4.501-14.942 5.703 0 .913 64.641 28.628 66.773 28.628.47 0 .241-2.413-.507-5.36zM943.43 183.962c-.684-1.077-6.991-4.363-14.013-7.301-7.024-2.938-13.818-5.342-15.099-5.342-2.619 0-11.274 17.69-10.113 20.669.857 2.199 28.761 13.354 31.131 12.444 2.797-1.073 9.556-18.169 8.094-20.47zm-422.033 75.486c-3.823 4.086-6.797 8.841-7.754 12.389-2.633 9.784-.37 12.777 20.546 27.187l1.416.976h6.168c-2.255-1.618-2.393-2.751-1.867-5.986.66-4.07 5.523-12.673 7.164-12.673.352 0 3.061 1.234 6.02 2.744l5.379 2.743-3.106 5.067c-1.535 2.506-3.403 5.951-4.409 8.105h3.705c.733-1.629 1.833-3.609 3.276-6.088l3.356-5.765 8.155 4.116 8.154 4.117-2.577 3.62h3.775c.449-.63.824-1.001 1.072-1.001.367 0 1.506.391 2.986 1.001h12.453c-18.175-7.537-35.91-16.289-47.707-23.728-8.571-5.405-20.374-16.407-20.374-18.989 0-2.937 14.744-2.076 29.395 1.717 24.42 6.321 41.315 12.74 64.214 24.4 12.332 6.278 22.553 11.838 30.543 16.6h7.293c-30.004-20.838-96.739-47.183-123.878-47.183-6.86 0-7.486.309-13.398 6.631zm8.364 9.182l-2.964-3.13c-1.631-1.721-3.353-3.139-3.827-3.152-1.929-.052-5.679 7.618-6.254 12.791-.504 4.543-.034 6.063 2.654 8.573l3.265 3.05 3.563-9.067 3.563-9.065zm8.303 21.291c4.737-10.709 4.7-11.632-.6-15.032-2.622-1.682-5.01-3.056-5.308-3.056-.939 0-4.602 8.64-5.526 13.034-.775 3.686-.299 4.653 3.86 7.826l4.746 3.62 2.828-6.392z" fill="#666566"/><path fill-rule="evenodd" clip-rule="evenodd" d="M170.224 45.76c-16.501-8.444-25.555-26.716-20.468-41.308.957-2.75 2.401-4.278 4.041-4.278 2.176 0 2.355.511 1.225 3.484-4.296 11.3 1.506 26.695 12.909 34.247 17.874 11.84 35.87 6.944 42.873-11.665 2.896-7.696 3.153-17.742.607-23.808-.866-2.063-.498-2.417 2.119-2.038 6.774.982 7.014 19.015.416 31.138-9.658 17.746-26.279 23.155-43.722 14.228zM462.03 31.291c0-3.554 1.277-12.01 2.839-18.789C467.29 1.98 468.108.174 470.448.174c2.172 0 2.581.641 1.969 3.082-.426 1.695-1.732 9.038-2.903 16.316l-.149.925c-1.256 7.788-1.883 11.68-.509 14.645 1.372 2.962 4.741 4.999 11.476 9.07l.801.484 4.842 2.929 6.676-23.21c5.971-20.755 8.533-26.288 11.021-23.8.428.429-2.407 11.55-6.297 24.718-3.891 13.166-6.865 24.082-6.608 24.256.256.174 18.928 8.095 41.492 17.603 46.273 19.499 64.721 26.63 81.709 31.584 11.266 3.285 26.548 4.85 29.394 3.008.747-.482 11.443-23.536 23.77-51.23C687.335 5.165 689.856.204 692.713.19c1.744-.008 2.966.492 2.716 1.111-6.934 17.252-47.57 103.319-49.875 105.637-4.859 4.885-10.023 4.196-35.983-4.804-83.476-28.941-121.61-44.841-139.052-57.983-8.328-6.274-8.489-6.518-8.489-12.859zm97.886-27.09c-3.74 2.003-9.24 1.579-17.068-1.314L536.057.378 549.3.574c13.241.195 15.552.986 10.616 3.628zm31.632 16.739c-13.803-4.597-16.449-7.396-14.881-15.75.599-3.194 1.698-5.016 3.025-5.016 1.598 0 1.88.93 1.206 3.995-.482 2.198-.238 5.19.543 6.652 1.66 3.1 19.273 8.94 23.204 7.692 1.653-.525 3.563-3.872 5.459-9.572 1.845-5.54 3.661-8.767 4.936-8.767 1.475 0 1.758.823 1.049 3.056-4.03 12.707-5.981 16.835-9.028 19.11-3.47 2.59-3.546 2.584-15.513-1.4zm35.388-5.12c2.999-9.024 4.686-12.11 7.437-13.604l.696-.382.004-.003.013-.007.02-.01.009-.006c1.177-.648 1.96-1.08 2.797-1.259 1.67-.355 3.554.3 9.197 2.259l1.788.62c13.754 4.756 13.778 4.77 15.423 8.743 1.242 2.995.921 5.39-1.774 13.315-4.492 13.21-5.669 15.087-10.062 16.052-6.029 1.323-24.824-5.806-27.383-10.388-1.891-3.386-1.752-4.537 1.835-15.33zm49.704 45.92c0-.504 6.256-14.562 13.902-31.24C698.813 12.456 705.198.174 706.308.174c.075 0 .148 0 .219-.002.349-.005.639-.01.815.13.874.692-1.066 4.932-12.624 30.203l-1.493 3.265c-7.254 15.864-13.953 28.852-14.887 28.864-.933.012-1.698-.39-1.698-.894zM986.67 5.666c-4.668-2.315-8.489-4.578-8.489-5.028 0-2.042 9.684 1.083 17.439 5.628 12.51 7.331 22.46 18.117 28.74 31.138 5.39 11.185 8.53 25.252 5.64 25.252-.83 0-1.89-1.68-2.35-3.736-3.48-15.449-5.98-21.242-13.83-32.017-5.67-7.778-15.469-15.445-27.15-21.237zm208 41.526c1.3-5.205 12.65-21.262 24.56-34.76 6.53-7.409 11.84-12.258 13.41-12.258 1.94 0 .17 2.562-6.94 10.043-15.34 16.15-28.83 35.258-28.83 40.825 0 9.538 36.37-12.625 65.4-39.845 6.47-6.062 12.85-11.023 14.18-11.023 2.05 0 1.88.57-1.12 3.736l-3.54 3.735 6.5 7.025 6.5 7.025 6.56-6.668 6.57-6.668-3.92-4.092c-3.69-3.855-3.75-4.093-1.03-4.093 1.59 0 3.87 1.375 5.06 3.056l2.17 3.057 2.44-3.2c1.47-1.927 3.47-2.996 5.04-2.687 3.74.736-32.91 37.324-49.69 49.6-20.42 14.945-38.05 24.88-44.13 24.88-3.75 0-6.01 3.38-3.76 5.63 2.59 2.592 24.72-10.242 49.25-28.574 11.58-8.658 42.09-37.874 48.22-46.174 2.24-3.038 4.47-5.537 4.95-5.555.92-.034 7.5 5.28 13.03 10.52 3.88 3.684 4.43 3.421 9.4-4.443 2.33-3.684 4.87-6.106 6.4-6.107 1.81-.001 2.18.488 1.27 1.695-.7.935-3.35 4.449-5.88 7.81-4.74 6.295-4 5.908 7.35-3.816 6.94-5.946 10.34-7.131 10.34-3.61 0 5.84-9.72 20.522-12.46 18.826-.77-.475.07-2.368 1.95-4.418 10.95-11.903 10.04-16.033-1.38-6.233-17.49 15.021-26.3 24.383-30.6 32.53-5.68 10.748-18.24 23.192-25.34 25.103-5.09 1.372-28.29 17.16-28.51 19.406-.15 1.497 6.46-.294 12.8-3.473 22.06-11.05 60.64-43.892 83.12-70.753 5.7-6.815 11.25-12.602 12.34-12.86 2.11-.5 1.42 1.388-1.92 5.302-1.55 1.82-.85 3.13 5 9.36 3.74 3.984 6.96 7.005 7.16 6.713.2-.292 2.02-2.782 4.04-5.534 4.43-6.018 4.5-7.106.83-11.761-2.55-3.237-2.6-3.658-.55-4.074 1.26-.255 3.24.894 4.41 2.554l2.11 3.017 2.48-3.233c1.83-2.377 2.5-2.664 2.52-1.081.06 4.505-19.77 30.034-39.15 50.402-25.96 27.28-67.64 56.789-80.21 56.789-5.1 0-11.62-5.427-15.31-12.736-1.55-3.08-3.01-5.81-3.23-6.067-.23-.255-5.56 2.341-11.86 5.773-14.82 8.077-19.35 8.242-26.63.968-5.27-5.28-10.73-17.722-8.99-20.53.48-.777-1.53-4.146-4.48-7.487-5.74-6.524-9.26-16.142-7.9-21.567zm23.93-21.074c0 1.885.4 1.582 18.7-14.038 18.55-15.84 22.51-15.925 13.13-.28-9.45 15.763-22.76 25.66-30.55 22.717-2.96-1.116-4.19-.965-5.88.718-1.17 1.172-2.6 1.642-3.18 1.044-.58-.598.33-2.01 2.01-3.14 1.68-1.13 3.05-3.283 3.05-4.786 0-3.488 4.79-11.276 8.57-13.918 5.47-3.833 5.36-2.037-.25 4.046-3.08 3.345-5.6 6.781-5.6 7.637zM159.779 9.682c1.103 0 3.007-1.528 4.231-3.395 1.223-1.868 3.071-3.396 4.106-3.396 2.494 0 2.388 1.963-.22 4.128-2.952 2.45-.175 3.974 7.286 4.001 4.25.015 7.142-.955 10.513-3.526 5.736-4.375 10.623-3.594 13.936 2.23 1.258 2.208 3.32 4.02 4.583 4.025 3.313.012 4.429 2.603 1.524 3.533-1.354.435-4.685 1.959-7.402 3.386-2.716 1.43-5.62 2.597-6.451 2.597-2.917 0-1.478-2.798 2.222-4.323 3.621-1.492 3.511-1.574-3.544-2.694-6.945-1.1-7.501-.96-12.054 3.037-3.7 3.25-5.573 4.002-8.339 3.349-3.899-.921-8.323-5.359-8.323-8.348 0-1.038-.917-1.887-2.037-1.887-1.121 0-2.038-.611-2.038-1.358 0-.747.904-1.359 2.007-1.359zm499.88 2.713c-1.275-1.407-6.039-3.816-10.59-5.352-4.55-1.536-8.71-2.794-9.246-2.794-2.174 0-7.899 8.485-10.006 14.829-2.998 9.024-1.603 11.33 9.031 14.92 9.667 3.266 13.8 3.569 15.711 1.152.741-.933 2.71-5.86 4.38-10.946 2.867-8.738 2.906-9.391.72-11.81zm569.551 17.79c5.86-2.989 16.58-13.98 19.91-20.416 1.25-2.427 2.05-4.641 1.77-4.92-.76-.757-30.93 25.292-30.93 26.705 0 1.972 3.81 1.408 9.25-1.368zm97.2-12.7l-6.29-5.938c-3.45-3.266-6.78-5.912-7.38-5.878-.6.034-3.62 2.947-6.7 6.476l-5.6 6.415 6.49 7.063 6.49 7.062 6.5-7.6 6.49-7.6zm34.33 41.236c13.2-13.146 24.44-27.355 33.76-42.72 5.96-9.818 8.83-12.618 8.83-8.633 0 2.352-10.51 19.273-18.52 29.82-12.82 16.896-35.82 38.782-35.82 34.097 0-.484 5.29-6.138 11.75-12.564zM191.051 12.57c2.988.495 5.704.642 6.036.326.333-.316-.602-1.779-2.074-3.253-2.563-2.561-2.824-2.576-6.038-.324l-3.358 2.352 5.434.9zm323.145 12.733c1.819-5.728 4.367-11.586 5.663-13.018 1.394-1.54 4.146-2.604 6.734-2.604 6.8 0 21.324 6.019 24.371 10.1l2.683 3.592-4.041 11.804c-5.628 16.436-7.365 17.318-23.371 11.85-15.686-5.356-16.672-7.137-12.039-21.724zm768.244-.232c0-.466-2.18-3.509-4.85-6.762-7.59-9.263-8.72-9.447-15.54-2.506l-5.87 5.986 3.73 5.375c7.2 10.398 7.64 10.519 15.56 4.265 3.83-3.032 6.97-5.892 6.97-6.358zM544.615 37.867c6.157-16.624 5.964-17.258-6.646-21.932-5.246-1.946-10.02-3.536-10.608-3.536-3.984 0-12.82 18.858-11.077 23.642 1.182 3.244 14.431 8.746 21.373 8.877 3.989.073 4.517-.46 6.958-7.051zM1371.52 21.59c-1.16-1.769-3.93-4.56-6.15-6.204-2.22-1.643-4.52-2.943-5.12-2.888-1.48.138-12.61 13.278-12.61 14.891 0 .72.51 1.308 1.13 1.308.62 0 3.81 2.471 7.08 5.492.62.573 1.17 1.096 1.66 1.566v.003c1.85 1.759 2.9 2.766 3.96 2.765 1.41-.002 2.82-1.81 6.11-6.042.66-.845 1.4-1.787 2.22-2.83 3.6-4.554 3.7-5.038 1.72-8.062zm-1199.441-2.4c3.204 0 6.652-3.04 5.151-4.54-.492-.492-3.638-.894-6.991-.894-6.011 0-6.061.038-3.638 2.717 1.352 1.494 3.817 2.716 5.478 2.716zM1311.3 35.732l-6.47-6.912c-3.55-3.804-6.86-6.914-7.35-6.914-.49 0-3.57 2.725-6.84 6.055l-5.94 6.054 5.87 6.51c3.23 3.58 6.26 6.964 6.74 7.52.48.556 3.82-1.987 7.43-5.652l6.56-6.661zm-45.32 3.476l-5.69-7.217c-3.14-3.969-6.35-7.25-7.15-7.292-2.17-.114-12.81 8.412-12.81 10.27 0 .888 2.63 4.515 5.83 8.057 5.45 6.02 6.05 6.328 9.17 4.719 1.84-.947 4.98-3.255 6.99-5.13l3.66-3.407zM559.827 53.722c0-5.964 6.051-22.482 9.035-24.664 3.286-2.401 6.766-2.158 16.848 1.18 9.894 3.274 14.866 7.075 14.866 11.363 0 4.834-6.662 22.969-9.106 24.79-3.385 2.522-8.177 2.084-18.606-1.698-11.714-4.248-13.037-5.362-13.037-10.97zm-466.99 7.82c-8.56-7.995-8.624-22.204-.134-29.347 5.243-4.413 15.956-4.86 22.392-.935 8.322 5.075 10.824 17.08 5.312 25.493-5.98 9.127-20.268 11.61-27.57 4.789zm503.122-21.234c-.61-2.433-2.69-3.856-8.621-5.903-4.299-1.484-8.862-3.124-10.141-3.649-3.194-1.305-7.972 4.106-10.943 12.395-2.792 7.792-2.987 11.864-.654 13.763 3.6 2.931 20.177 7.12 22.744 5.746 3.13-1.676 8.7-18.026 7.615-22.352zm763.221 1.798l-6.58-6.024c-3.62-3.314-7.01-6.025-7.53-6.025-.52 0-3.64 2.752-6.94 6.115l-6.01 6.115 6.71 6.806 6.7 6.807 6.83-6.896 6.82-6.898zm-1239.785 3.85c-.453-4.714-1.628-7.623-4.061-10.057-3.919-3.918-13.614-5.526-18.006-2.986-10.688 6.184-9.854 22.294 1.43 27.648 6.69 3.175 13 1.865 17.65-3.663 3.126-3.714 3.537-5.219 2.987-10.941zm-18.674 1.366c-3.751.98-6.623-1.766-6.496-6.214.09-3.16.732-3.755 4.32-3.992 3.076-.205 3.68.066 2.233 1-3.037 1.964 2.026 7.094 6.011 6.094 3.424-.86 5.51 1.243 6.459 6.512.609 3.385.343 3.648-3.268 3.227-4.611-.536-6.812-2.14-3.031-2.204 2.413-.042 2.38-.233-.447-2.592-1.763-1.471-4.204-2.244-5.781-1.831zm1149.309 4.302l-5.74-6.37c-3.15-3.502-6.12-6.82-6.6-7.37-1.11-1.3-10.94 5.37-10.94 7.43 0 2.721 6.98 11.785 9.75 12.666 1.69.537 4.62-.463 8.09-2.758l5.44-3.598zm45.13.232l-5.49-6.486c-3.02-3.567-6.34-6.62-7.38-6.786-1.04-.166-4.57 2.06-7.84 4.947l-5.96 5.248 3.78 4.95c2.07 2.722 5.42 6.12 7.43 7.553l3.66 2.604 5.9-6.016 5.9-6.014zM98.852 44.998c1.806 0 1.899-.368.514-2.037-.93-1.121-1.922-2.038-2.203-2.038-.283 0-.514.917-.514 2.038 0 1.12.992 2.037 2.203 2.037zM610.11 60.534c2.1-6.695 4.408-11.256 6.546-12.938 4.178-3.287 5.456-3.255 16.81.401 15.501 4.993 17.063 8.214 11.749 24.243-4.034 12.167-5.831 13.933-13.396 13.171-3.362-.34-9.768-2.083-14.233-3.875-10.869-4.364-11.838-7.089-7.476-21.002zm677.401 4.838c1.92 0 14.59-11.488 18.1-16.417 1.55-2.176 2.63-3.928 2.39-3.893-1.38.202-21.67 20.31-20.49 20.31zm55.37-6.602l-2.76-3.685c-1.51-2.028-4.69-5.185-7.07-7.016l-4.31-3.33-6.49 6.13-6.49 6.13 5.49 6.477c3.02 3.562 6.21 6.716 7.08 7.006.87.29 4.5-2.225 8.07-5.59l6.48-6.122zM108.901 48.426c1.864 2.245 3.528 1.744 2.066-.62-.492-.798-1.546-1.45-2.339-1.45-.902 0-.799.78.273 2.07zm1120.689 6.735c-3.06-3.315-5.56-6.652-5.56-7.417 0-.763-.46-1.321-1.02-1.241-1.9.276-11.2 5.96-11.2 6.85 0 1.093 12.37 13.379 13.46 13.372.44-.002 2.84-1.25 5.34-2.77l4.53-2.766-5.55-6.028zm-585.758 3.485c-.37-2.517-2.224-3.875-8.62-6.32-4.482-1.712-9.481-3.145-11.107-3.182-3.8-.091-7.821 5.069-10.698 13.726-3.307 9.96-1.897 12.06 10.754 16.027 9.714 3.046 10.475 3.103 12.856.948 3.009-2.722 7.483-16.643 6.815-21.199zm549.458 14.769c-4.34-3.99-8.58-12.8-8.62-17.89-.04-5.586 2.03-4.507 3.93 2.037.92 3.175 3.52 8.408 5.79 11.629 4.74 6.734 4.13 9.05-1.1 4.224zm78.2-.82c3.41-2.599 6.19-5.181 6.19-5.737 0-.555-2.82-4.155-6.28-7.997l-6.28-6.989-6.22 4.843-6.21 4.843 6.31 7.882 6.3 7.883 6.19-4.727zm-53.48-7.714c-1.81-1.19-4.39-4.011-5.72-6.269-2.61-4.424-2.96-4.516-9.71-2.571l-4.47 1.289 3.03 5.391c4.48 7.977 8.42 10.138 14.93 8.188 6.1-1.827 6.49-3.048 1.94-6.028zm108.19 9.148l-3.92-3.99c-2.15-2.193-5.12-5.608-6.6-7.587l-2.68-3.6-6.37 4.854c-7.15 5.44-7.14 5.535.93 14.904 5.46 6.345 5.72 6.331 14.08-.726l4.56-3.855zm-64.37 5.491c.25-.18-2.2-3.697-5.43-7.817-3.24-4.118-6.19-7.487-6.56-7.485-1.89.008-10.77 7.518-10.82 9.144-.02 1.03 2.7 4.622 6.06 7.978l6.1 6.103 5.1-3.798c2.81-2.089 5.31-3.945 5.55-4.125zm41.5 11.138c3.02-1.783 5.64-3.772 5.82-4.417.18-.645-2.55-4.352-6.06-8.235l-6.39-7.063-3.27 2.703c-1.8 1.486-4.17 3.198-5.25 3.806-2.82 1.575-1.15 5.64 4.7 11.496l4.96 4.954 5.49-3.244zm-54.85-1.528c0-.153-3.14-3.423-6.98-7.264-3.85-3.843-7.06-6.961-7.14-6.931-3.22 1.206-7.61 4.528-7.6 5.762.01 2.472 4.62 8.983 8.06 11.393 2.75 1.931 3.49 1.906 8.34-.281 2.93-1.32 5.32-2.525 5.32-2.679zm-31.58 3.464c5.59 5.904 11.87 7.974 15.54 5.122 2.09-1.62 1.71-2.404-4.07-8.586-6.2-6.62-6.51-6.768-11.47-5.532-2.8.698-5.09 1.797-5.09 2.44 0 .645 2.29 3.595 5.09 6.556zm77.61 3.112c.29-.204-1.25-2.07-3.41-4.147-2.17-2.076-4.85-5.117-5.96-6.758l-2.02-2.984-5.1 2.677c-2.8 1.471-5.09 3.195-5.09 3.83 0 1.225 11.64 12.364 12.92 12.364.6 0 5.99-3.101 8.66-4.982zm-14 7.368c.3-.308-2.18-3.414-5.53-6.905-3.34-3.49-6.55-6.256-7.12-6.144-.57.112-2.72.458-4.78.77-5.07.768-4.74 3.726 1.06 9.523 4.31 4.309 5.35 4.718 10.3 4.054 3.03-.407 5.76-.991 6.07-1.298zm-1161.13 2.864c.678-.678 3.941-1.805 7.249-2.505 3.308-.698 11.516-1.043 18.24-.765 18.669.77 36.41 8.247 48.032 20.239 7.075 7.299 3.857 8.927-3.692 1.866-8.506-7.957-17.691-13.162-28.524-16.166-9.935-2.755-26.554-3.261-34.511-1.052-5.294 1.471-9 .589-6.794-1.617zm307.327 19.877c2.414-8.652 13.162-19.93 21.107-22.146 7.208-2.01 19.485-1.115 25.801 1.883 21.573 10.237 27.98 40.314 11.847 55.617-7.934 7.523-13.54 9.434-27.724 9.453-12.379.017-13.457-.213-19.017-4.057-11.576-8.003-16.495-24.686-12.014-40.75zm63.744 11.832c.205-8.848-11.079-24.747-19.342-27.253-21.518-6.529-39.566 5.529-41.339 27.616-.615 7.667-.273 9.414 2.914 14.851 5.248 8.955 12.867 13.025 24.387 13.025 18.502 0 33.01-12.274 33.38-28.239zm-26.298-15.226c3.227 0 6.244-.612 6.706-1.359.461-.747 1.741-1.358 2.844-1.358 1.562 0 1.694.581.599 2.627-.773 1.445-1.406 4.451-1.406 6.68 0 5.024-1.21 8.351-3.04 8.351-.841 0-1.081-2.016-.61-5.094l.781-5.093-5.191 5.76c-4.731 5.25-5.132 6.292-4.519 11.726.553 4.906.133 6.505-2.361 8.999-2.435 2.435-4.075 2.893-8.308 2.325-2.902-.388-5.617-.153-6.035.522-1.758 2.844-2.629.788-2.497-5.902.193-9.845.501-10.525 2.395-5.292l1.649 4.555 5.05-5.59c4.364-4.83 5.017-6.408 4.82-11.624-.298-7.893 1.789-10.233 9.123-10.233zm-2.123 8.828c2.241-2.147 4.075-4.4 4.075-5.008 0-1.193-3.708-1.312-6.452-.205-.933.378-1.698 2.582-1.698 4.901v4.216l4.075-3.904zm-105.341 25.084c-.984-7.644 3.389-16.863 10.122-21.337 3.362-2.235 6.604-3.067 11.939-3.067 24.54 0 33.153 25.75 13.769 41.164-13.708 10.9-33.459 1.66-35.83-16.76zm39.625-11.866c-1.234-2.388-4.038-5.27-6.229-6.403-2.192-1.133-6.98-2.06-10.642-2.06-18.256 0-25.316 20.048-11.815 33.549 3.729 3.729 5.5 4.483 10.53 4.483 14.91 0 24.972-16.388 18.156-29.569zm-19.089-1.214c1.072-.412 1.949-1.6 1.949-2.641 0-3.549 2.033-1.873 4.314 3.555 2.401 5.72 1.949 7.013-1.065 3.042-1.599-2.105-1.809-1.767-1.847 2.97-.03 3.599.885 6.333 2.801 8.372 2.765 2.945 2.684 8.693-.123 8.693-.644 0-2.14.971-3.328 2.159-1.972 1.972-2.386 1.883-4.805-1.019-2.872-3.446-3.769-6.789-1.109-4.128 2.748 2.748 3.804 1.846 3.804-3.249 0-2.805-1.143-6.332-2.687-8.295-2.871-3.651-1.926-7.916 2.096-9.459zm72.357 9.371c1.626 1.625 6.374-.767 7.536-3.795.463-1.207.328-3.11-.3-4.232-.929-1.659-1.826-1.222-4.833 2.35-2.328 2.768-3.215 4.864-2.403 5.677zm-73.831-1.723c1.281 2.073 3.423.349 3.423-2.753 0-1.451-.63-2.636-1.4-2.636-1.834 0-3.164 3.543-2.023 5.389zm5.646 14.702c1.223-1.222 1.853-3.187 1.401-4.365-1.417-3.693-3.624-2.339-3.624 2.222 0 4.044.164 4.201 2.223 2.143zm855.583 46.396c-2.21 3.577-3.44-1.033-3.44-12.915 0-7.054.55-12.824 1.21-12.824 1.47 0 3.52 23.654 2.23 25.739zm38.65.069c-2.27 0-1.55-2.362 4.19-13.784 3.69-7.338 5.99-10.554 6.9-9.648 1.53 1.538-8.82 23.432-11.09 23.432zm-854.452 3.708c1.848-5.599 7.809-11.566 13.148-13.163 2.164-.647 4.747-.924 5.743-.614.994.308 2.961.561 4.368.561 4.282 0 11.779 8.67 12.818 14.824 1.937 11.464-5.486 21.85-15.616 21.85-14.781 0-24.518-11.164-20.461-23.458zm22.249 19.265c13.316-3.82 15.454-18.813 3.8-26.658-5.641-3.797-10.316-3.931-16.011-.458-5.502 3.354-7.218 6.612-7.218 13.696 0 4.523.809 6.412 4.042 9.433 4.683 4.374 9.596 5.646 15.387 3.987zm865.603-7.854c-.45-.731 3.59-4.432 8.97-8.224 9.33-6.57 13.34-8.293 13.34-5.73 0 1.024-4.14 4.019-17.87 12.938-2.17 1.404-3.94 1.812-4.44 1.016zm-876.148-6.183c2.144-.538 4.724-2.157 5.734-3.599 2.128-3.039 3.895-3.243 8.645-1.001l3.431 1.619-2.726 3.135c-2.957 3.401-6.37 4.443-3.594 1.097 3.295-3.97-2.418-2.238-6.823 2.069-4.124 4.03-4.27 4.064-8.068 1.82-3.389-2.002-3.689-2.68-2.42-5.465 1.629-3.576 4.118-4.415 2.783-.937-.723 1.881-.237 2.084 3.038 1.262zm762.778 15.513c-1.54 0-16.45-18.399-16.45-20.302 0-3.263 3.02-.912 10.13 7.889 7.18 8.884 8.97 12.413 6.32 12.413zm-753.406-17.658c1.164 0 2.118-.611 2.118-1.358 0-.747-.575-1.358-1.278-1.358-.704 0-1.656.611-2.118 1.358-.462.747.114 1.358 1.278 1.358zm-9.427 6.792c1.032 0 2.254-.611 2.716-1.359.478-.772-.691-1.358-2.716-1.358-2.026 0-3.195.586-2.717 1.358.462.748 1.684 1.359 2.717 1.359zm155.184 31.34c-8.685-2.877-10.257-3.991-8.341-5.908.859-.857 19.103 5.431 34.488 11.888 15.849 6.65 35.316 17.221 35.316 19.175 0 1.052-.236 1.911-.526 1.911-.289 0-5.683-2.743-11.985-6.096-12.897-6.86-35.199-16.415-48.952-20.97zm581.199 17.558c-3.16 0-22.6-9.509-22.6-11.055 0-2.001 4.58-.705 15.41 4.366 8.48 3.969 11.41 6.689 7.19 6.689zM547.602 263.5c0 .747 1.223 1.746 2.717 2.22 1.673.531 2.716 2.055 2.716 3.968 0 9.537 21.965 19.802 42.371 19.802 5.369 0 10.551 1.78 26.352 9.051 1.094.503 2.141.99 3.142 1.46l6.277-.001a362.956 362.956 0 01-6.277-2.979c-15.866-7.712-17.424-8.75-12.1-8.049 3.362.441 10.493 2.608 15.849 4.815 4.307 1.776 8.531 4.102 11.622 6.213h3.936c-8.462-7.24-28.657-15.147-40.312-14.417-2.492.156-11.416-3.203-23.694-8.919-20.412-9.504-21.201-9.924-20.261-10.781.6-.547 11.159 2.141 15.168 3.862 1.358.583 2.377.439 2.377-.335 0-2.363-10.97-5.856-17.494-5.572-3.453.151-7.651-.17-9.333-.712-1.789-.576-3.056-.421-3.056.374zm32.326 21.749c7.757 1.643 14.806 2.022 13.508.724-.441-.441-9.1-4.676-19.243-9.411-15.21-7.101-18.441-8.192-18.441-6.226 0 5.057 11.685 12.265 24.176 14.913z" fill="#666566"/></svg>