<svg width="640" height="483" viewBox="0 0 640 483" fill="none" xmlns="http://www.w3.org/2000/svg">
<g clip-path="url(#clip0_560_6253)">
<path opacity="0.18" d="M140.765 49.0244C95.7459 101.645 98.0835 182.481 72.1083 247.459C58.2297 282.295 33.693 313.795 29.4101 351.05C25.2253 387.389 42.6511 425.919 73.7102 449.017C141.321 499.3 226.031 454.281 299.575 455.245C354.795 455.981 407.988 486.304 462.832 481.94C479.672 480.421 496.141 476.106 511.562 469.173C547.847 453.178 577.672 425.404 596.206 390.348C607.404 369.097 612.553 341.127 610.919 317.179C608.434 280.676 605.328 242.343 584.306 211.039C556.353 169.436 511.072 162.439 470.58 138.687C426.852 113.039 397.019 72.6293 360.37 39.5105C317.949 1.25872 250.649 -10.3803 197.996 9.71008C172.969 19.3057 154.627 32.8246 140.765 49.0244Z" fill="#52B1A7"/>
<path d="M534.086 436.675C530.016 443.018 521.728 444.848 514.274 445.993C460.999 453.725 406.793 447.627 353.306 441.383C349.17 440.892 344.675 440.239 341.863 437.182L347.993 432.278C303.751 438.066 259.054 439.582 214.52 436.806C208.211 436.413 201.345 435.678 196.899 431.199C193.825 428.125 192.354 423.614 188.938 420.9C184.295 417.222 177.658 417.99 171.79 418.824C152.427 421.577 132.906 423.068 113.35 423.287C99.1767 423.45 83.3856 422.241 73.7246 411.844C82.9116 404.782 93.864 400.483 104.653 396.249C118.515 390.822 132.443 385.378 147.008 382.24C164.63 378.431 182.775 378.104 200.789 377.777L396.396 374.295C416.552 373.936 436.887 373.592 456.684 377.401C479.242 381.733 527.596 401.3 508.536 430.512C510.596 430.676 535.067 435.122 534.086 436.675Z" fill="url(#paint0_linear_560_6253)"/>
<path d="M125.711 410.618C162.934 410.618 193.109 380.443 193.109 343.22C193.109 305.997 162.934 275.821 125.711 275.821C88.4877 275.821 58.3125 305.997 58.3125 343.22C58.3125 380.443 88.4877 410.618 125.711 410.618Z" fill="#E6BD67"/>
<path d="M181.09 358.419C189.502 327.839 171.531 296.23 140.951 287.819C110.371 279.407 78.7615 297.378 70.3498 327.958C61.9381 358.538 79.9092 390.147 110.489 398.559C141.069 406.971 172.678 388.999 181.09 358.419Z" fill="#D99350"/>
<path d="M116.604 378.643L117.585 369.473C112.689 368.932 108.041 367.035 104.164 363.997L106.976 358.161C110.57 361.083 114.927 362.916 119.53 363.441C126.069 364.144 130.744 360.923 131.3 355.758C131.856 350.592 128.652 347.306 122.244 343.841C113.384 339.198 108.12 334.409 108.97 326.546C109.787 319.026 115.738 313.893 124.238 313.468L125.219 304.314L130.842 304.919L129.894 313.697C134.024 314.193 137.961 315.729 141.337 318.16L138.493 323.963C135.268 321.525 131.433 320.025 127.409 319.631C120.429 318.879 117.356 322.77 116.964 326.382C116.457 331.09 119.547 333.804 127.066 337.923C135.992 342.746 140.144 347.96 139.326 356.019C138.558 363.179 132.788 369.358 123.355 369.898L122.342 379.314L116.604 378.643Z" fill="#E6BD67"/>
<path d="M204.959 412.4C242.182 412.4 272.357 382.225 272.357 345.001C272.357 307.778 242.182 277.603 204.959 277.603C167.736 277.603 137.561 307.778 137.561 345.001C137.561 382.225 167.736 412.4 204.959 412.4Z" fill="#E6BD67"/>
<path d="M232.537 395.394C260.351 380.153 270.544 345.251 255.304 317.437C240.063 289.623 205.16 279.429 177.346 294.67C149.532 309.91 139.339 344.813 154.58 372.627C169.82 400.441 204.723 410.634 232.537 395.394Z" fill="#D99350"/>
<path d="M223.055 376.78L217.383 369.522C213.489 372.542 208.83 374.416 203.929 374.933L201.886 368.77C206.502 368.386 210.911 366.683 214.588 363.866C219.737 359.861 220.881 354.254 217.677 350.151C214.473 346.048 209.896 345.933 202.965 347.895C193.386 350.739 186.275 350.968 181.403 344.724C176.744 338.757 177.464 330.927 183.234 324.682L177.578 317.424L182.041 313.942L187.468 320.906C190.775 318.387 194.667 316.75 198.78 316.149L200.774 322.345C196.762 322.836 192.964 324.432 189.806 326.954C184.264 331.27 184.771 336.19 186.994 339.067C189.92 342.795 194.039 342.598 202.295 340.326C212.103 337.564 218.642 338.381 223.693 344.789C228.123 350.461 228.319 358.88 221.878 365.86L227.698 373.347L223.055 376.78Z" fill="#E6BD67"/>
<path d="M411.585 64.1453V397.867C411.585 405.597 408.514 413.011 403.048 418.477C397.582 423.943 390.169 427.014 382.438 427.014H237.997C234.164 427.022 230.367 426.275 226.823 424.814C223.279 423.353 220.059 421.208 217.345 418.5C214.632 415.793 212.479 412.577 211.01 409.036C209.541 405.496 208.785 401.7 208.785 397.867V64.1453C208.783 60.3163 209.535 56.5244 210.999 52.9863C212.463 49.4482 214.609 46.2332 217.316 43.525C220.023 40.8167 223.237 38.6683 226.774 37.2026C230.311 35.7368 234.103 34.9824 237.932 34.9824H382.373C386.207 34.9738 390.006 35.7219 393.551 37.1838C397.096 38.6457 400.317 40.7927 403.031 43.5018C405.744 46.2109 407.897 49.4288 409.365 52.9712C410.833 56.5136 411.587 60.3108 411.585 64.1453Z" fill="#52B1A7"/>
<path d="M379.396 39.9192H241.02C225.455 39.9192 212.838 52.5367 212.838 68.1012V393.258C212.838 408.822 225.455 421.44 241.02 421.44H379.396C394.961 421.44 407.579 408.822 407.579 393.258V68.1012C407.579 52.5367 394.961 39.9192 379.396 39.9192Z" fill="#0D090A"/>
<path d="M402.054 71.6322V386.49C401.98 393.628 399.076 400.444 393.978 405.441C388.88 410.437 382.007 413.205 374.869 413.135H245.221C240.485 413.15 235.827 411.934 231.703 409.604C227.567 407.321 224.117 403.975 221.709 399.911C219.3 395.847 218.021 391.214 218.004 386.49V71.6322C218.082 64.4901 220.992 57.6711 226.096 52.6745C231.2 47.6779 238.079 44.9126 245.221 44.9867H267.126V48.9427C267.182 51.4844 267.987 53.953 269.442 56.0384C270.896 58.1237 272.934 59.7328 275.3 60.6634C276.888 61.2895 278.579 61.6111 280.286 61.6115H340.508C343.942 61.6119 347.239 60.2611 349.686 57.8508C352.133 55.4406 353.534 52.1645 353.585 48.7302V44.9867H374.836C381.809 44.9714 388.525 47.6135 393.619 52.3755C396.273 54.8334 398.391 57.8119 399.842 61.1251C401.294 64.4383 402.046 68.0151 402.054 71.6322Z" fill="#141414"/>
<path opacity="0.18" d="M310.251 171.365C334.491 171.365 354.142 151.714 354.142 127.473C354.142 103.233 334.491 83.5817 310.251 83.5817C286.01 83.5817 266.359 103.233 266.359 127.473C266.359 151.714 286.01 171.365 310.251 171.365Z" fill="#52B1A7"/>
<path opacity="0.18" d="M379.185 203.732H239.713V317.294H379.185V203.732Z" fill="#52B1A7"/>
<g opacity="0.41">
<path opacity="0.41" d="M276.083 291.711H253.1V311.736H276.083V291.711Z" fill="#52B1A7"/>
</g>
<path d="M298.888 276.132H275.904V311.736H298.888V276.132Z" fill="#52B1A7"/>
<g opacity="0.5">
<path opacity="0.5" d="M321.693 259.703H298.709V311.735H321.693V259.703Z" fill="#52B1A7"/>
</g>
<path d="M344.495 243.7H321.512V311.736H344.495V243.7Z" fill="#52B1A7"/>
<path d="M367.3 227.565H344.316V311.736H367.3V227.565Z" fill="#52B1A7"/>
<path d="M367.3 227.565H344.316V311.736H367.3V227.565Z" fill="url(#paint1_linear_560_6253)"/>
<path d="M371.844 311.736H244.322V317.31H371.844V311.736Z" fill="url(#paint2_linear_560_6253)"/>
<path opacity="0.18" d="M306.931 327.755H239.713V412.792H306.931V327.755Z" fill="#52B1A7"/>
<path opacity="0.18" d="M379.183 327.755H311.965V412.792H379.183V327.755Z" fill="#52B1A7"/>
<path d="M307.667 159.922V151.928C303.397 151.946 299.206 150.768 295.57 148.528L297.418 143.215C300.803 145.368 304.735 146.502 308.746 146.485C314.402 146.485 318.145 143.215 318.129 138.704C318.113 134.192 315.023 131.691 309.155 129.337C301.079 126.215 296.077 122.602 296.077 115.736C296.077 109.197 300.671 104.179 307.945 102.953V94.9919H312.849V102.642C316.451 102.661 319.989 103.595 323.131 105.356L321.219 110.669C318.207 108.887 314.762 107.97 311.263 108.02C305.182 108.02 302.91 111.715 302.926 114.853C302.926 118.956 305.885 121 312.735 123.812C320.908 127.081 325.011 131.168 325.06 138.197C325.06 144.425 320.761 150.31 312.653 151.699V159.873L307.667 159.922Z" fill="#52B1A7"/>
<path d="M392.211 279.712C391.671 280.497 391.017 281.657 390.167 282.017C388.925 282.54 387.192 281.592 386.162 280.971C384.429 279.925 382.788 278.733 381.258 277.407C379.836 276.197 378.512 274.873 376.975 273.811C375.479 272.676 373.67 272.031 371.793 271.963C367.837 271.963 365.745 275.887 365.369 279.369C364.993 282.851 366.906 286.708 370.273 287.379C372.088 287.738 373.968 287.117 375.815 287.281C382.043 287.804 385.917 296.647 392.064 295.454C394.208 294.814 396.114 293.55 397.54 291.825L403.866 285.499C407.577 281.788 411.5 277.669 412.138 272.421C412.612 268.449 409.8 259.622 404.929 262.204C402.607 263.43 400.237 268.596 398.668 270.737C396.592 273.631 394.532 276.541 392.407 279.385C392.325 279.532 392.26 279.614 392.211 279.712Z" fill="#F9C6D6"/>
<path d="M353.096 272.944L382.406 280.725L392.655 318.209L364.212 313.566L353.096 272.944Z" fill="#52B1A7"/>
<path d="M382.944 316.509L382.029 312.537C382.046 312.148 381.986 311.76 381.852 311.395C381.718 311.031 381.513 310.696 381.248 310.411C380.983 310.127 380.664 309.898 380.31 309.738C379.956 309.578 379.573 309.49 379.184 309.48C377.115 309.38 375.139 308.585 373.577 307.224C372.556 305.927 372.024 304.313 372.073 302.663C372.073 300.195 372.809 297.432 374.983 296.255L389.434 306.374L392.703 318.225L382.944 316.509Z" fill="url(#paint3_linear_560_6253)"/>
<path d="M394.403 270.688C394.239 271.184 394.156 271.703 394.158 272.225C394.266 272.958 394.571 273.647 395.041 274.219C397.006 277.101 398.583 280.228 399.733 283.521C400.033 284.567 400.473 285.567 401.04 286.496C401.326 286.964 401.721 287.357 402.19 287.641C402.659 287.926 403.19 288.094 403.738 288.131C404.404 288.075 405.036 287.816 405.551 287.389C406.065 286.962 406.436 286.388 406.615 285.744C406.969 284.462 407.064 283.123 406.892 281.804C406.615 277.963 405.863 273.631 406.598 269.789C407.399 265.507 408.838 261.273 409.77 257.006C408.429 256.418 406.991 257.48 405.928 258.477C402.495 261.665 399.062 264.853 395.891 268.285C395.226 268.968 394.718 269.789 394.403 270.688Z" fill="#52B1A7"/>
<path d="M429.058 435.547C389.907 434.975 358.358 421.603 358.587 405.616C358.587 403.834 357.262 393.797 358.031 392.195C364.21 378.791 395.073 377.221 429.957 377.695C464.188 378.202 492.942 377.695 499.35 390.936C500.298 392.816 500.445 405.649 500.412 407.626C500.151 423.614 468.209 436.103 429.058 435.547Z" fill="#D99350"/>
<path d="M499.853 394.308C500.082 378.338 468.536 364.939 429.394 364.378C390.252 363.818 358.336 376.31 358.107 392.279C357.879 408.248 389.424 421.648 428.566 422.208C467.708 422.768 499.625 410.277 499.853 394.308Z" fill="#E6BD67"/>
<path d="M489.357 394.157C489.552 380.553 462.677 369.138 429.331 368.661C395.984 368.184 368.793 378.825 368.599 392.429C368.404 406.033 395.279 417.448 428.625 417.925C461.972 418.403 489.163 407.761 489.357 394.157Z" fill="#D99350"/>
<path d="M390.89 390.397L400.551 390.544C400.74 389.285 401.231 388.09 401.982 387.062C402.734 386.035 403.724 385.204 404.866 384.643L411.274 385.64C410.167 386.152 409.203 386.931 408.47 387.907C407.737 388.882 407.257 390.024 407.073 391.231C407.073 394.009 410.947 395.955 416.391 396.004C418.492 396.17 420.605 395.876 422.581 395.141C424.557 394.407 426.35 393.251 427.834 391.754C429.964 389.532 432.568 387.821 435.453 386.748C438.337 385.675 441.427 385.269 444.491 385.558C452.436 385.558 458.468 388.059 459.857 391.672L469.518 391.819V394.238L460.217 394.091C460.066 395.139 459.678 396.138 459.084 397.013C458.489 397.888 457.702 398.617 456.784 399.142L450.49 398.08C451.381 397.575 452.141 396.869 452.709 396.017C453.277 395.165 453.637 394.192 453.76 393.176C453.76 390.217 449.428 388.975 445.586 388.926C443.516 388.813 441.447 389.177 439.539 389.99C437.632 390.804 435.937 392.045 434.585 393.617C430.514 397.573 425.496 399.535 416.865 399.535C409.263 399.535 402.153 397.164 400.649 393.11L390.693 392.963L390.89 390.397Z" fill="#E6BD67"/>
<path d="M462.031 421.93C422.88 421.374 391.33 407.986 391.559 391.999C391.559 390.233 390.235 380.18 391.003 378.594C397.183 365.174 428.062 363.604 462.93 364.078C497.177 364.585 525.914 364.078 532.339 377.319C533.271 379.216 533.418 392.031 533.401 394.009C533.123 409.997 501.182 422.486 462.031 421.93Z" fill="#D99350"/>
<path d="M532.824 380.695C533.052 364.726 501.507 351.326 462.365 350.766C423.223 350.206 391.306 362.697 391.078 378.666C390.849 394.636 422.395 408.035 461.537 408.596C500.679 409.156 532.595 396.664 532.824 380.695Z" fill="#E6BD67"/>
<path d="M522.33 380.545C522.525 366.941 495.65 355.526 462.303 355.049C428.957 354.571 401.766 365.213 401.571 378.817C401.377 392.421 428.251 403.836 461.598 404.313C494.945 404.79 522.135 394.149 522.33 380.545Z" fill="#D99350"/>
<path d="M423.86 376.78L433.521 376.927C433.71 375.668 434.202 374.473 434.953 373.446C435.705 372.418 436.694 371.587 437.837 371.026L444.245 372.023C443.14 372.536 442.179 373.316 441.448 374.291C440.718 375.267 440.241 376.408 440.06 377.614C440.06 380.392 443.918 382.338 449.361 382.403C451.463 382.565 453.574 382.268 455.549 381.535C457.525 380.801 459.318 379.647 460.804 378.153C462.931 375.927 465.535 374.211 468.42 373.135C471.305 372.06 474.396 371.651 477.462 371.941C485.423 371.941 491.438 374.459 492.828 378.055L502.489 378.202V380.621L493.187 380.474C493.04 381.523 492.654 382.524 492.059 383.399C491.464 384.275 490.675 385.003 489.755 385.525L483.461 384.463C484.352 383.958 485.112 383.252 485.68 382.4C486.247 381.548 486.607 380.575 486.73 379.559C486.73 376.616 482.382 375.374 478.557 375.309C476.489 375.194 474.422 375.558 472.517 376.372C470.612 377.185 468.92 378.427 467.572 380C463.485 383.972 458.467 385.918 449.835 385.918C442.25 385.918 435.123 383.547 433.619 379.51L423.664 379.363L423.86 376.78Z" fill="#E6BD67"/>
<path d="M436.25 386.212C397.1 385.689 365.55 372.268 365.713 356.264C365.713 354.499 364.389 344.446 365.158 342.86C371.337 329.439 402.2 327.87 437.084 328.344C471.315 328.851 500.069 328.344 506.477 341.585C507.425 343.481 507.572 356.297 507.539 358.275C507.343 374.246 475.401 386.784 436.25 386.212Z" fill="#D99350"/>
<path d="M507.039 344.97C507.267 329.001 475.722 315.601 436.58 315.041C397.437 314.481 365.521 326.972 365.293 342.942C365.064 358.911 396.61 372.31 435.752 372.871C474.894 373.431 506.81 360.94 507.039 344.97Z" fill="#E6BD67"/>
<path d="M496.543 344.82C496.738 331.216 469.863 319.801 436.516 319.324C403.169 318.846 375.979 329.488 375.784 343.092C375.589 356.696 402.464 368.111 435.811 368.588C469.158 369.066 496.348 358.424 496.543 344.82Z" fill="#D99350"/>
<path d="M398.081 341.078L407.742 341.225C407.928 339.963 408.419 338.765 409.17 337.735C409.922 336.704 410.913 335.871 412.058 335.308L418.466 336.321C417.36 336.832 416.398 337.609 415.665 338.581C414.932 339.554 414.451 340.692 414.264 341.896C414.264 344.675 418.139 346.62 423.582 346.685C425.683 346.847 427.795 346.55 429.77 345.817C431.746 345.083 433.539 343.929 435.025 342.435C437.154 340.212 439.758 338.498 442.643 337.423C445.527 336.347 448.617 335.937 451.682 336.223C459.627 336.223 465.659 338.741 467.049 342.337L476.71 342.484V344.92L467.408 344.773C467.257 345.82 466.87 346.819 466.275 347.695C465.68 348.57 464.894 349.298 463.975 349.824L457.682 348.761C458.573 348.257 459.332 347.55 459.9 346.698C460.468 345.847 460.828 344.873 460.951 343.857C460.951 340.898 456.619 339.656 452.778 339.591C450.705 339.477 448.635 339.843 446.727 340.659C444.819 341.476 443.125 342.721 441.776 344.299C437.706 348.254 432.687 350.2 424.056 350.2C416.455 350.2 409.344 347.846 407.84 343.792L397.885 343.645L398.081 341.078Z" fill="#E6BD67"/>
<path d="M382.306 394.434C382.927 396.429 383.483 398.799 382.306 400.499C381.737 401.239 380.972 401.805 380.099 402.134C379.095 402.622 377.974 402.818 376.864 402.7C375.754 402.581 374.7 402.153 373.822 401.464C372.896 400.436 372.239 399.195 371.909 397.851C370.342 392.93 369.21 387.881 368.526 382.763C368.403 382.297 368.403 381.807 368.526 381.341C368.786 380.846 369.207 380.454 369.719 380.229C372.416 378.774 376.601 377.614 378.105 380.834C380.066 384.937 380.966 390.037 382.306 394.434Z" fill="#F9C6D6"/>
<path d="M374.215 396.756C373.663 396.686 373.103 396.747 372.58 396.936C372.214 397.144 371.892 397.422 371.632 397.753L365.714 404.39C364.603 405.665 363.409 407.43 364.194 408.934C364.471 409.359 364.839 409.716 365.272 409.979C365.705 410.242 366.191 410.404 366.695 410.454C369.52 410.709 372.359 410.141 374.869 408.82C376.667 408.035 378.416 407.185 380.149 406.237C381.444 405.652 382.569 404.746 383.418 403.605C384.742 401.562 385.151 396.641 382.781 395.105C381.587 394.336 380.541 394.892 379.413 395.415C377.816 396.28 376.031 396.74 374.215 396.756Z" fill="#52B1A7"/>
<path d="M350.103 416.977C350.05 417.351 350.089 417.733 350.217 418.089C350.412 418.453 350.707 418.753 351.067 418.955C352.168 419.729 353.467 420.171 354.811 420.23C355.483 420.249 356.151 420.111 356.761 419.828C357.371 419.544 357.907 419.122 358.325 418.595C358.936 417.604 359.311 416.485 359.421 415.326C359.911 412.8 360.152 410.232 360.14 407.659C360.168 407.294 360.057 406.932 359.829 406.646C359.632 406.502 359.401 406.412 359.159 406.384C357.05 405.943 352.898 404.749 351.836 407.43C350.752 410.5 350.168 413.723 350.103 416.977Z" fill="#F9C6D6"/>
<path d="M341.195 416.748C339.4 416.841 337.628 417.188 335.931 417.778C335.079 418.078 334.298 418.549 333.634 419.162C332.971 419.775 332.44 420.516 332.073 421.342C331.733 422.162 331.693 423.077 331.959 423.924C332.545 425.159 333.562 426.136 334.819 426.671C340.794 429.902 347.559 431.381 354.337 430.937C356.081 430.998 357.778 430.369 359.062 429.188C360.009 427.773 360.452 426.08 360.32 424.382L360.549 416.339C359.045 416.111 357.639 417.091 356.201 417.598C353.716 418.448 352.735 416.388 350.676 415.963C348.06 415.244 343.99 416.454 341.195 416.748Z" fill="#52B1A7"/>
<path d="M374.215 396.756C373.663 396.686 373.103 396.747 372.58 396.936C372.214 397.144 371.892 397.422 371.632 397.753L365.714 404.39C364.603 405.665 363.409 407.43 364.194 408.934C364.471 409.359 364.839 409.716 365.272 409.979C365.705 410.242 366.191 410.404 366.695 410.454C369.52 410.709 372.359 410.141 374.869 408.82C376.667 408.035 378.416 407.185 380.149 406.237C381.444 405.652 382.569 404.746 383.418 403.605C384.742 401.562 385.151 396.641 382.781 395.105C381.587 394.336 380.541 394.892 379.413 395.415C377.816 396.28 376.031 396.74 374.215 396.756Z" fill="url(#paint4_linear_560_6253)"/>
<path d="M341.195 416.748C339.4 416.841 337.628 417.188 335.931 417.778C335.079 418.078 334.298 418.549 333.634 419.162C332.971 419.775 332.44 420.516 332.073 421.342C331.733 422.162 331.693 423.077 331.959 423.924C332.545 425.159 333.562 426.136 334.819 426.671C340.794 429.902 347.559 431.381 354.337 430.937C356.081 430.998 357.778 430.369 359.062 429.188C360.009 427.773 360.452 426.08 360.32 424.382L360.549 416.339C359.045 416.111 357.639 417.091 356.201 417.598C353.716 418.448 352.735 416.388 350.676 415.963C348.06 415.244 343.99 416.454 341.195 416.748Z" fill="url(#paint5_linear_560_6253)"/>
<path d="M362.706 328.05C360.991 328.392 359.406 329.208 358.129 330.404C356.834 332.275 356.254 334.549 356.495 336.812C356.531 353.025 359.546 369.093 365.387 384.218C365.527 384.774 365.774 385.297 366.117 385.757C366.459 386.218 366.889 386.605 367.382 386.899C368.274 387.163 369.229 387.123 370.095 386.784C373.602 385.803 377.056 384.641 380.443 383.302L375.849 352.472C375.635 351.611 375.686 350.705 375.996 349.873C376.337 349.293 376.814 348.805 377.386 348.451C382.601 344.575 388.122 341.131 393.896 338.152C401.089 334.425 405.682 330.093 406.974 321.805C407.415 319.478 406.953 317.07 405.682 315.07C405.033 314.09 404.106 313.325 403.02 312.874C401.934 312.423 400.738 312.305 399.585 312.537C398.729 312.804 397.915 313.189 397.166 313.681C391.608 317.032 368.477 326.333 362.706 328.05Z" fill="#282328"/>
<path d="M365.993 349.562C363.821 352.353 362.105 355.47 360.91 358.798C354.285 375.054 349.987 392.164 348.143 409.621C353.571 410.296 359.061 410.296 364.489 409.621C364.915 397.276 366.791 385.024 370.08 373.118C370.662 370.566 371.656 368.126 373.023 365.893C375.442 362.362 379.398 360.302 383.19 358.39C391.908 354.058 401.037 350.608 410.441 348.091C414.413 346.979 418.418 345.966 422.325 344.626C425.675 343.613 428.811 341.995 431.577 339.852C436.481 335.749 440.241 326.775 433.686 322.426C430.76 320.465 427.065 320.089 423.551 319.746L412.647 318.716C411.56 318.538 410.448 318.583 409.378 318.846C408.465 319.194 407.618 319.697 406.877 320.334C398.704 326.595 390.53 332.169 381.932 337.842C376.652 341.34 370.211 344.593 365.993 349.562Z" fill="#473F47"/>
<path d="M412.385 327.445C409.536 326.327 406.767 325.016 404.097 323.522C393.978 317.849 402.266 315.07 405.732 308.237C408.135 303.333 407.154 297.595 405.911 292.332C403.705 283.096 400.762 273.549 402.887 264.297C403.159 262.797 403.744 261.371 404.604 260.112C405.229 259.345 405.942 258.653 406.729 258.052C408.86 256.189 411.314 254.732 413.97 253.753C419.087 252.118 424.759 253.295 429.549 255.747C449.165 265.703 449.002 297.514 447.155 316.231C446.73 320.546 446.076 325.075 443.444 328.524C439.586 333.591 435.99 331.793 431.086 330.91C424.563 329.799 418.678 329.897 412.385 327.445Z" fill="#52B1A7"/>
<path d="M446.157 293.868C446.157 297.138 445.52 300.227 445.373 303.431C445.193 306.979 445.569 310.559 445.275 314.089C444.786 319.898 442.546 325.422 438.85 329.93C438.524 330.388 438.085 330.754 437.575 330.992C436.856 331.179 436.095 331.116 435.417 330.812L425.985 327.919C424.748 327.586 423.548 327.126 422.405 326.546C420.422 325.42 418.921 323.605 418.188 321.446C417.971 320.895 417.898 320.299 417.975 319.713C418.237 318.438 419.61 317.702 420.623 316.999C424.694 314.351 427.244 309.954 429.647 305.736C431.945 301.933 433.961 297.966 435.679 293.868C436.307 291.908 437.18 290.035 438.278 288.294C439.39 286.741 442.185 284.485 444.13 285.777C446.076 287.068 446.174 291.858 446.157 293.868Z" fill="url(#paint6_linear_560_6253)"/>
<path d="M423.763 266.994C422.941 268.026 421.913 268.876 420.745 269.489C419.578 270.103 418.295 270.466 416.979 270.558C416.561 270.61 416.137 270.512 415.785 270.28C415.413 269.9 415.202 269.39 415.197 268.858C415.083 267.795 414.919 266.422 414.805 265.065C414.69 263.708 414.478 262.041 414.331 260.88C414.013 257.793 412.842 254.855 410.947 252.396C410.559 251.865 410.115 251.378 409.623 250.941C406.353 247.999 419.643 249.16 421.392 245.155C423.419 247.754 423.24 251.432 424.122 254.652C424.705 256.215 425.201 257.808 425.61 259.425C425.848 260.746 425.807 262.102 425.489 263.406C425.171 264.709 424.583 265.932 423.763 266.994Z" fill="#F9C6D6"/>
<path d="M414.985 265.686L414.805 265.065C414.625 263.545 414.478 262.041 414.331 260.88C414.014 257.793 412.842 254.855 410.947 252.396V252.069C410.947 252.069 421.475 245.155 422.603 253.246C423.73 261.338 414.985 265.686 414.985 265.686Z" fill="url(#paint7_linear_560_6253)"/>
<path d="M403.933 247.59C403.714 249.279 404.029 250.993 404.832 252.494C405.248 253.127 405.774 253.681 406.385 254.129C410.57 257.284 416.863 256.646 421.097 253.377C423.117 251.641 424.744 249.496 425.871 247.084C426.999 244.671 427.6 242.047 427.636 239.384C427.937 236.61 427.152 233.827 425.445 231.619C424.416 230.619 423.153 229.893 421.77 229.508C420.388 229.122 418.931 229.09 417.533 229.412C413.706 230.302 410.219 232.284 407.496 235.118C404.799 238.076 404.129 243.781 403.933 247.59Z" fill="#F9C6D6"/>
<path d="M441.842 275.217C441.923 275.805 441.989 276.394 442.054 276.982C443.002 285.728 442.152 294.326 441.825 303.039C441.613 309.038 441.171 316.918 436.055 321.021C422.372 331.989 391.918 309.055 390.578 308.057C388.534 306.537 385.674 306.423 383.222 306.145C380.357 305.963 377.675 304.68 375.735 302.565C374.796 301.494 374.185 300.176 373.973 298.768C373.762 297.359 373.959 295.92 374.541 294.62C376.552 290.664 382.208 290.06 386.278 291.825C390.349 293.59 393.406 297.023 396.937 299.704C399.721 301.699 402.656 303.475 405.715 305.017C409.279 306.913 421.833 309.643 425.871 309.692C430.17 309.692 428.486 284.453 428.911 276.394C428.927 274.31 429.437 272.259 430.399 270.411C430.88 269.508 431.582 268.742 432.44 268.185C433.297 267.627 434.283 267.296 435.303 267.223C436.384 267.305 437.424 267.67 438.319 268.281C439.214 268.892 439.933 269.728 440.403 270.705C441.144 272.112 441.631 273.64 441.842 275.217Z" fill="#F9C6D6"/>
<path d="M419.773 243.193C419.773 243.454 419.691 243.716 419.659 243.978L419.217 248.702L418.286 258.33L434.485 260.602C435.188 255.453 436.676 250.418 437.313 245.253C437.951 240.087 437.689 234.578 435.107 230.066C433.014 226.388 428.012 224.181 424.285 222.481C423.348 222.059 422.374 221.725 421.375 221.484C417.53 220.461 413.462 220.661 409.736 222.056C408.844 222.358 408.013 222.817 407.284 223.413C406.813 224.007 406.387 224.635 406.009 225.293C404.563 227.17 403.335 229.204 402.347 231.358C401.826 232.376 401.51 233.487 401.416 234.627C401.374 234.749 401.374 234.881 401.416 235.003C401.496 235.111 401.603 235.195 401.726 235.248L406.074 237.586C406.169 237.643 406.275 237.677 406.385 237.684C406.551 237.665 406.703 237.583 406.81 237.455L409.851 234.807L409.017 236.654C408.974 236.743 408.951 236.841 408.951 236.94C408.951 237.039 408.974 237.137 409.017 237.226C409.09 237.319 409.186 237.393 409.295 237.439L413.643 239.58C413.729 239.602 413.819 239.602 413.905 239.58C414.052 239.58 414.15 239.466 414.248 239.368L416.357 237.145L415.736 239.891C415.694 240.024 415.694 240.166 415.736 240.3C415.807 240.416 415.917 240.503 416.046 240.545L418.367 241.738C418.449 241.738 418.531 241.82 418.596 241.738C418.667 241.72 418.73 241.68 418.776 241.624L420.329 239.875C420.225 240.993 420.039 242.102 419.773 243.193Z" fill="#473F47"/>
<path d="M444.359 274.759C446.305 279.663 444.539 284.305 444.441 289.128C444.445 289.612 444.39 290.095 444.278 290.566C444.072 291.228 443.707 291.828 443.215 292.315C442.247 293.216 441.106 293.91 439.861 294.354C438.615 294.798 437.293 294.983 435.973 294.898C433.336 294.697 430.743 294.114 428.274 293.165C427.465 293.004 426.747 292.543 426.263 291.874C426.053 291.408 425.963 290.896 426.002 290.386C425.871 283.014 423.975 271.113 431.151 266.209C436.84 262.302 442.545 269.953 444.359 274.759Z" fill="#52B1A7"/>
<path d="M406.042 274.301C403.693 275.574 401.554 277.2 399.7 279.123C399.327 279.459 399.05 279.888 398.899 280.366C398.825 280.738 398.825 281.121 398.899 281.494C399.269 283.324 399.902 285.092 400.778 286.741C400.963 287.12 401.206 287.467 401.498 287.771C404.26 290.288 404.898 285.711 405.094 284.224C405.563 280.922 405.879 277.614 406.042 274.301Z" fill="url(#paint8_linear_560_6253)"/>
<path d="M405.289 244.37C407.067 244.37 408.509 242.928 408.509 241.15C408.509 239.371 407.067 237.929 405.289 237.929C403.51 237.929 402.068 239.371 402.068 241.15C402.068 242.928 403.51 244.37 405.289 244.37Z" stroke="#473F47" stroke-width="0.331842" stroke-miterlimit="10"/>
<path d="M411.617 247.149C413.395 247.149 414.837 245.707 414.837 243.929C414.837 242.15 413.395 240.708 411.617 240.708C409.838 240.708 408.396 242.15 408.396 243.929C408.396 245.707 409.838 247.149 411.617 247.149Z" stroke="#473F47" stroke-width="0.331842" stroke-miterlimit="10"/>
<path d="M370.963 274.301L375.998 263.855C375.998 263.855 378.057 263.954 378.45 265.131L372.892 275.396C372.892 275.396 372.565 276.165 370.963 274.301Z" fill="#473F47"/>
</g>
<defs>
<linearGradient id="paint0_linear_560_6253" x1="313.207" y1="263.005" x2="291.138" y2="645.621" gradientUnits="userSpaceOnUse">
<stop offset="0.01"/>
<stop offset="0.13" stop-opacity="0.69"/>
<stop offset="0.25" stop-opacity="0.32"/>
<stop offset="1" stop-opacity="0"/>
</linearGradient>
<linearGradient id="paint1_linear_560_6253" x1="298.087" y1="228.742" x2="504.581" y2="375.096" gradientUnits="userSpaceOnUse">
<stop offset="0.01"/>
<stop offset="0.08" stop-opacity="0.69"/>
<stop offset="0.21" stop-opacity="0.32"/>
<stop offset="1" stop-opacity="0"/>
</linearGradient>
<linearGradient id="paint2_linear_560_6253" x1="309.922" y1="279.303" x2="302.991" y2="412.073" gradientUnits="userSpaceOnUse">
<stop offset="0.01"/>
<stop offset="0.08" stop-opacity="0.69"/>
<stop offset="0.21" stop-opacity="0.32"/>
<stop offset="1" stop-opacity="0"/>
</linearGradient>
<linearGradient id="paint3_linear_560_6253" x1="397.558" y1="292.888" x2="360.157" y2="331.548" gradientUnits="userSpaceOnUse">
<stop offset="0.01"/>
<stop offset="0.13" stop-opacity="0.69"/>
<stop offset="0.25" stop-opacity="0.32"/>
<stop offset="1" stop-opacity="0"/>
</linearGradient>
<linearGradient id="paint4_linear_560_6253" x1="365.257" y1="398.162" x2="397.656" y2="414.231" gradientUnits="userSpaceOnUse">
<stop offset="0.01"/>
<stop offset="0.13" stop-opacity="0.69"/>
<stop offset="0.25" stop-opacity="0.32"/>
<stop offset="1" stop-opacity="0"/>
</linearGradient>
<linearGradient id="paint5_linear_560_6253" x1="338.808" y1="440.778" x2="357.77" y2="398.113" gradientUnits="userSpaceOnUse">
<stop offset="0.01"/>
<stop offset="0.13" stop-opacity="0.69"/>
<stop offset="0.25" stop-opacity="0.32"/>
<stop offset="1" stop-opacity="0"/>
</linearGradient>
<linearGradient id="paint6_linear_560_6253" x1="410.783" y1="289.242" x2="477.2" y2="339.362" gradientUnits="userSpaceOnUse">
<stop offset="0.01"/>
<stop offset="0.13" stop-opacity="0.69"/>
<stop offset="0.25" stop-opacity="0.32"/>
<stop offset="1" stop-opacity="0"/>
</linearGradient>
<linearGradient id="paint7_linear_560_6253" x1="410.146" y1="240.316" x2="430.662" y2="285.123" gradientUnits="userSpaceOnUse">
<stop offset="0.01"/>
<stop offset="0.13" stop-opacity="0.69"/>
<stop offset="0.25" stop-opacity="0.32"/>
<stop offset="1" stop-opacity="0"/>
</linearGradient>
<linearGradient id="paint8_linear_560_6253" x1="416.651" y1="279.369" x2="382.078" y2="285.204" gradientUnits="userSpaceOnUse">
<stop offset="0.01"/>
<stop offset="0.13" stop-opacity="0.69"/>
<stop offset="0.25" stop-opacity="0.32"/>
<stop offset="1" stop-opacity="0"/>
</linearGradient>
<clipPath id="clip0_560_6253">
<rect width="640" height="482.365" fill="white"/>
</clipPath>
</defs>
</svg>
