<svg width="248" height="96" fill="none" xmlns="http://www.w3.org/2000/svg"><rect y="14" width="248" height="68" rx="16" fill="#1B998B"/><path d="M17 8a7 7 0 017-7h52a7 7 0 017 7v80a7 7 0 01-7 7H24a7 7 0 01-7-7V8z" stroke="#FFFCFF" stroke-width="2"/><path d="M17 14.063V8a7 7 0 017-7h52a7 7 0 017 7v6.063M17 81.936V88a7 7 0 007 7h52a7 7 0 007-7v-6.063" stroke="#0D090A" stroke-width="2"/><rect x="22.5" y="8.5" width="55" height="15" rx="3.5" stroke="#FFFCFF"/><path d="M22.5 14v-2 0a3.564 3.564 0 013.563-3.5H74a3.5 3.5 0 013.5 3.5v2" stroke="#0D090A"/><rect x="22.5" y="30.5" width="9" height="9" rx="1.5" stroke="#FFFCFF"/><rect x="37.833" y="30.5" width="9" height="9" rx="1.5" stroke="#FFFCFF"/><rect x="53.166" y="30.5" width="9" height="9" rx="1.5" stroke="#FFFCFF"/><rect x="68.499" y="30.5" width="9" height="9" rx="1.5" stroke="#FFFCFF"/><rect x="22.5" y="46.5" width="9" height="9" rx="1.5" stroke="#FFFCFF"/><rect x="37.833" y="46.5" width="9" height="9" rx="1.5" stroke="#FFFCFF"/><rect x="53.166" y="46.5" width="9" height="9" rx="1.5" stroke="#FFFCFF"/><rect x="68.499" y="46.5" width="9" height="9" rx="1.5" stroke="#FFFCFF"/><rect x="22.5" y="62.5" width="9" height="9" rx="1.5" stroke="#FFFCFF"/><rect x="37.833" y="62.5" width="9" height="9" rx="1.5" stroke="#FFFCFF"/><rect x="53.166" y="62.5" width="9" height="9" rx="1.5" stroke="#FFFCFF"/><rect x="68.499" y="62.5" width="9" height="9" rx="1.5" stroke="#FFFCFF"/><path d="M22.5 82v3.5a2 2 0 002 2h5a2 2 0 002-2V82" stroke="#0D090A"/><path d="M22.5 82v-1.346 0c0-1.19.964-2.154 2.154-2.154h4.692c1.19 0 2.154.964 2.154 2.154V82" stroke="#FFFCFF"/><path d="M37.833 82v3.5a2 2 0 002 2h5a2 2 0 002-2V82" stroke="#0D090A"/><path d="M37.833 82v-1.346 0c0-1.19.964-2.154 2.154-2.154h4.692c1.19 0 2.154.964 2.154 2.154V82" stroke="#FFFCFF"/><path d="M53.166 82v3.5a2 2 0 002 2h5a2 2 0 002-2V82" stroke="#0D090A"/><path d="M53.166 82v-1.346 0c0-1.19.964-2.154 2.154-2.154h4.692c1.19 0 2.154.964 2.154 2.154V82" stroke="#FFFCFF"/><path d="M68.499 82v3.5a2 2 0 002 2h5a2 2 0 002-2V82" stroke="#0D090A"/><path d="M68.499 82v-1.346 0c0-1.19.964-2.154 2.154-2.154h4.692c1.19 0 2.154.964 2.154 2.154V82" stroke="#FFFCFF"/><path d="M108.496 59.332c-1.576 0-2.995-.25-4.258-.747-1.263-.507-2.336-1.216-3.221-2.129a9.315 9.315 0 01-2.032-3.234c-.47-1.245-.705-2.609-.705-4.092 0-1.982.405-3.742 1.216-5.281a9.008 9.008 0 013.429-3.622c1.474-.875 3.212-1.313 5.211-1.313.646 0 1.277.046 1.894.138a12.56 12.56 0 011.756.36 14.82 14.82 0 011.562.497c.479.175.899.364 1.258.567l-.276 3.069a13.734 13.734 0 00-2.074-1.05 10.69 10.69 0 00-1.963-.581 9.306 9.306 0 00-1.852-.194c-1.309 0-2.475.3-3.498.899-1.023.59-1.825 1.437-2.405 2.543-.581 1.106-.871 2.429-.871 3.968a9.25 9.25 0 00.442 2.889 7.066 7.066 0 001.355 2.378c.599.682 1.35 1.22 2.253 1.617.903.387 1.949.58 3.138.58.461 0 .917-.027 1.369-.082.461-.065.917-.162 1.368-.29a7.608 7.608 0 001.355-.526 9.818 9.818 0 001.327-.788l.221 3.041a9.54 9.54 0 01-1.299.623c-.47.175-.963.317-1.479.428-.516.11-1.046.194-1.59.249-.544.055-1.087.083-1.631.083zm16.66 0c-1.18 0-2.212-.198-3.097-.595a6.488 6.488 0 01-2.226-1.603 6.944 6.944 0 01-1.327-2.323 8.557 8.557 0 01-.442-2.75c0-1.374.276-2.595.829-3.664a6.15 6.15 0 012.406-2.544c1.05-.626 2.318-.94 3.801-.94 1.134 0 2.139.18 3.014.54a5.95 5.95 0 012.198 1.52 6.41 6.41 0 011.355 2.267 8.46 8.46 0 01.456 2.82c0 1.373-.276 2.608-.829 3.705a6.381 6.381 0 01-2.406 2.613c-1.041.636-2.285.954-3.732.954zm-.014-2.489c.885 0 1.622-.225 2.212-.677a4.13 4.13 0 001.313-1.783 6.125 6.125 0 00.442-2.323c0-.949-.166-1.77-.497-2.46-.323-.7-.784-1.24-1.383-1.618-.59-.387-1.29-.58-2.101-.58-.875 0-1.617.207-2.226.622-.599.405-1.055.963-1.368 1.672-.304.7-.456 1.489-.456 2.364 0 .82.147 1.595.442 2.323a4.29 4.29 0 001.355 1.783c.608.452 1.364.678 2.267.678zm15.037 2.475a12.78 12.78 0 01-1.783-.124 12.306 12.306 0 01-1.645-.346 9.973 9.973 0 01-1.341-.512l.221-2.681c.415.24.867.451 1.355.636.488.175.995.313 1.521.414a9.411 9.411 0 001.603.139c.443 0 .848-.042 1.217-.125.378-.092.677-.263.898-.511.231-.25.346-.618.346-1.106 0-.323-.106-.59-.318-.802-.212-.212-.558-.401-1.037-.567a27.12 27.12 0 00-1.963-.608 9.371 9.371 0 01-2.004-.76c-.562-.305-1-.71-1.314-1.217-.313-.507-.47-1.175-.47-2.005 0-1.336.429-2.373 1.286-3.11.857-.737 2.005-1.106 3.442-1.106.608 0 1.198.05 1.77.152a9.974 9.974 0 011.562.373 7.99 7.99 0 011.216.47l-.235 2.682a6.824 6.824 0 00-1.382-.663 8.227 8.227 0 00-1.41-.401 5.898 5.898 0 00-1.148-.138c-.359 0-.7.05-1.023.152a1.494 1.494 0 00-.76.497c-.193.23-.29.544-.29.94 0 .314.074.581.221.802.147.221.415.424.802.608.396.185.968.378 1.714.581.931.267 1.719.548 2.364.843.654.295 1.147.682 1.479 1.162.332.479.498 1.142.498 1.99 0 .848-.185 1.6-.553 2.254-.369.654-.949 1.165-1.742 1.534s-1.825.553-3.097.553zm14.836.014c-.95 0-1.761-.157-2.433-.47a3.251 3.251 0 01-1.521-1.466c-.341-.663-.511-1.52-.511-2.57V40.793l2.916-.58V54.01c0 .94.189 1.65.567 2.128.378.47.968.706 1.77.706a3.8 3.8 0 001.064-.166c.387-.12.742-.3 1.065-.54l.207 2.489a3.568 3.568 0 01-.816.373c-.322.101-.686.18-1.092.235a7.559 7.559 0 01-1.216.097zm-6.968-11.792v-2.281h9.981v2.28h-9.981zM165.979 59c-.267-.977-.558-2.023-.871-3.138l-.871-3.097-1.728-6.179c-.304-1.097-.64-2.3-1.009-3.608-.369-1.309-.714-2.539-1.037-3.691h3.636l1.05 4.216c.369 1.475.715 2.88 1.037 4.217l1.853 7.437h.276l1.825-7.534c.212-.857.433-1.765.663-2.723l.692-2.876c.239-.958.465-1.87.677-2.737h3.608l1.037 4.175c.359 1.447.709 2.843 1.05 4.188l1.867 7.507h.276l1.866-7.548c.323-1.3.664-2.686 1.023-4.161.369-1.475.715-2.862 1.037-4.161h3.622a391.1 391.1 0 01-1.037 3.691 384.87 384.87 0 01-1.009 3.567l-1.755 6.22c-.286.986-.586 2.037-.899 3.152a205.176 205.176 0 01-.871 3.083h-4.05c-.332-1.263-.682-2.59-1.051-3.981-.359-1.401-.7-2.719-1.023-3.954l-1.866-7.175h-.277l-1.824 7.175c-.314 1.235-.65 2.558-1.01 3.968-.359 1.4-.7 2.723-1.023 3.967h-3.884zm29.541.332c-1.18 0-2.212-.198-3.097-.595a6.479 6.479 0 01-2.226-1.603 6.944 6.944 0 01-1.327-2.323 8.557 8.557 0 01-.442-2.75c0-1.374.276-2.595.829-3.664a6.15 6.15 0 012.406-2.544c1.05-.626 2.318-.94 3.801-.94 1.134 0 2.138.18 3.014.54a5.95 5.95 0 012.198 1.52 6.41 6.41 0 011.355 2.267 8.46 8.46 0 01.456 2.82c0 1.373-.277 2.608-.829 3.705a6.381 6.381 0 01-2.406 2.613c-1.041.636-2.285.954-3.732.954zm-.014-2.489c.885 0 1.622-.225 2.212-.677a4.137 4.137 0 001.313-1.783 6.125 6.125 0 00.442-2.323c0-.949-.166-1.77-.497-2.46-.323-.7-.784-1.24-1.383-1.618-.59-.387-1.29-.58-2.101-.58-.876 0-1.617.207-2.226.622-.599.405-1.055.963-1.368 1.672-.304.7-.456 1.489-.456 2.364 0 .82.147 1.595.442 2.323a4.29 4.29 0 001.355 1.783c.608.452 1.364.678 2.267.678zM206.735 59V45.259l2.53-.166.111 2.71h.276c.369-.811.788-1.424 1.258-1.839.47-.415.949-.691 1.438-.83a4.746 4.746 0 011.368-.22c.24 0 .489.018.747.055.258.036.502.096.733.18l-.263 2.93a14.186 14.186 0 00-.871-.124 8.407 8.407 0 00-.885-.042c-.258 0-.544.037-.857.11a2.768 2.768 0 00-.954.415c-.313.212-.617.53-.912.954-.286.415-.539.963-.76 1.645V59h-2.959zm21.062 0a146.11 146.11 0 00-1.645-1.81 149.807 149.807 0 00-1.631-1.798l-2.073-2.281h-.996v-2.046h1.106l1.77-2.046 1.631-1.88c.544-.636 1.083-1.263 1.617-1.88h3.539c-.746.811-1.488 1.622-2.226 2.433-.737.811-1.469 1.622-2.198 2.433l-2.198 2.392-.11-1.369 2.599 2.944c.755.82 1.516 1.64 2.281 2.461.765.82 1.52 1.636 2.267 2.447h-3.733zm-8.999 0V38.762l2.958-.318V59h-2.958z" fill="#FFFCFF"/></svg>