<svg width="640" height="483" viewBox="0 0 640 483" fill="none" xmlns="http://www.w3.org/2000/svg">
<g clip-path="url(#clip0_475_3822)">
<path opacity="0.18" d="M140.765 49.0244C95.7459 101.645 98.0835 182.481 72.1083 247.459C58.2297 282.295 33.693 313.795 29.4101 351.05C25.2253 387.389 42.6511 425.919 73.7102 449.017C141.321 499.3 226.031 454.281 299.575 455.245C354.795 455.981 407.988 486.304 462.832 481.94C479.672 480.421 496.141 476.106 511.562 469.173C547.847 453.178 577.672 425.404 596.206 390.348C607.404 369.097 612.553 341.127 610.919 317.179C608.434 280.676 605.328 242.343 584.306 211.039C556.353 169.436 511.072 162.439 470.58 138.687C426.852 113.039 397.019 72.6293 360.37 39.5105C317.949 1.25872 250.649 -10.3803 197.996 9.71008C172.969 19.3057 154.627 32.8246 140.765 49.0244Z" fill="#52B1A7"/>
<path d="M534.087 436.675C530.017 443.018 521.729 444.848 514.275 445.993C461 453.725 406.794 447.627 353.307 441.383C349.171 440.892 344.676 440.239 341.864 437.182L347.994 432.278C303.751 438.066 259.055 439.582 214.521 436.806C208.212 436.413 201.346 435.678 196.9 431.199C193.826 428.125 192.355 423.614 188.939 420.9C184.296 417.222 177.659 417.99 171.791 418.824C152.428 421.577 132.907 423.068 113.35 423.287C99.1777 423.45 83.3866 422.241 73.7256 411.844C82.9125 404.782 93.865 400.483 104.654 396.249C118.516 390.822 132.444 385.378 147.009 382.24C164.631 378.431 182.776 378.104 200.79 377.777L396.397 374.295C416.553 373.936 436.888 373.592 456.685 377.401C479.243 381.733 527.597 401.3 508.537 430.512C510.597 430.676 535.068 435.122 534.087 436.675Z" fill="url(#paint0_linear_475_3822)"/>
<path d="M125.71 410.618C162.933 410.618 193.108 380.443 193.108 343.22C193.108 305.997 162.933 275.821 125.71 275.821C88.4868 275.821 58.3115 305.997 58.3115 343.22C58.3115 380.443 88.4868 410.618 125.71 410.618Z" fill="#E6BD67"/>
<path d="M181.091 358.419C189.503 327.839 171.532 296.23 140.952 287.819C110.372 279.407 78.7625 297.378 70.3508 327.958C61.9391 358.538 79.9102 390.147 110.49 398.559C141.07 406.971 172.679 388.999 181.091 358.419Z" fill="#D99350"/>
<path d="M116.605 378.643L117.586 369.473C112.69 368.932 108.042 367.035 104.165 363.997L106.977 358.161C110.571 361.083 114.928 362.916 119.531 363.441C126.07 364.144 130.745 360.923 131.301 355.758C131.857 350.592 128.653 347.306 122.245 343.841C113.385 339.198 108.121 334.409 108.971 326.546C109.788 319.026 115.739 313.893 124.239 313.468L125.22 304.314L130.843 304.919L129.895 313.697C134.025 314.193 137.962 315.729 141.338 318.16L138.494 323.963C135.269 321.525 131.434 320.025 127.41 319.631C120.43 318.879 117.357 322.77 116.965 326.382C116.458 331.09 119.547 333.804 127.067 337.923C135.992 342.746 140.145 347.96 139.327 356.019C138.559 363.179 132.788 369.358 123.356 369.898L122.343 379.314L116.605 378.643Z" fill="#E6BD67"/>
<path d="M204.959 412.4C242.182 412.4 272.357 382.225 272.357 345.001C272.357 307.778 242.182 277.603 204.959 277.603C167.736 277.603 137.561 307.778 137.561 345.001C137.561 382.225 167.736 412.4 204.959 412.4Z" fill="#E6BD67"/>
<path d="M232.537 395.394C260.351 380.153 270.544 345.251 255.304 317.437C240.063 289.623 205.16 279.429 177.346 294.67C149.532 309.91 139.339 344.813 154.58 372.627C169.82 400.441 204.723 410.634 232.537 395.394Z" fill="#D99350"/>
<path d="M223.054 376.78L217.382 369.522C213.488 372.542 208.829 374.416 203.928 374.933L201.885 368.77C206.501 368.386 210.91 366.683 214.587 363.866C219.736 359.861 220.88 354.254 217.676 350.151C214.472 346.048 209.895 345.933 202.964 347.895C193.385 350.739 186.274 350.968 181.402 344.724C176.743 338.757 177.463 330.927 183.233 324.682L177.577 317.424L182.04 313.942L187.467 320.906C190.774 318.387 194.666 316.75 198.779 316.149L200.773 322.345C196.761 322.836 192.963 324.432 189.805 326.954C184.263 331.27 184.77 336.19 186.993 339.067C189.919 342.795 194.038 342.598 202.294 340.326C212.102 337.564 218.641 338.381 223.692 344.789C228.122 350.461 228.318 358.88 221.877 365.86L227.697 373.347L223.054 376.78Z" fill="#E6BD67"/>
<path d="M411.584 64.1453V397.867C411.584 405.597 408.513 413.011 403.047 418.477C397.581 423.943 390.168 427.014 382.437 427.014H237.996C234.163 427.022 230.366 426.275 226.822 424.814C223.278 423.353 220.058 421.208 217.344 418.5C214.631 415.793 212.478 412.577 211.009 409.036C209.54 405.496 208.784 401.7 208.784 397.867V64.1453C208.782 60.3163 209.534 56.5244 210.998 52.9863C212.462 49.4482 214.609 46.2332 217.315 43.525C220.022 40.8167 223.236 38.6683 226.773 37.2026C230.31 35.7368 234.102 34.9824 237.931 34.9824H382.372C386.206 34.9738 390.005 35.7219 393.55 37.1838C397.095 38.6457 400.316 40.7927 403.03 43.5018C405.743 46.2109 407.896 49.4288 409.364 52.9712C410.832 56.5136 411.586 60.3108 411.584 64.1453Z" fill="#52B1A7"/>
<path d="M379.396 39.9192H241.02C225.455 39.9192 212.838 52.5367 212.838 68.1012V393.258C212.838 408.822 225.455 421.44 241.02 421.44H379.396C394.961 421.44 407.579 408.822 407.579 393.258V68.1012C407.579 52.5367 394.961 39.9192 379.396 39.9192Z" fill="#0D090A"/>
<path d="M402.053 71.6322V386.49C401.979 393.628 399.075 400.444 393.977 405.441C388.879 410.437 382.006 413.205 374.868 413.135H245.221C240.484 413.15 235.826 411.934 231.702 409.604C227.566 407.321 224.116 403.975 221.708 399.911C219.299 395.847 218.02 391.214 218.003 386.49V71.6322C218.081 64.4901 220.991 57.6711 226.095 52.6745C231.199 47.6779 238.078 44.9126 245.221 44.9867H267.125V48.9427C267.181 51.4844 267.986 53.953 269.441 56.0384C270.895 58.1237 272.933 59.7328 275.299 60.6634C276.887 61.2895 278.578 61.6111 280.285 61.6115H340.507C343.941 61.6119 347.238 60.2611 349.685 57.8508C352.132 55.4406 353.533 52.1645 353.584 48.7302V44.9867H374.835C381.808 44.9714 388.524 47.6135 393.618 52.3755C396.272 54.8334 398.39 57.8119 399.841 61.1251C401.293 64.4383 402.046 68.0151 402.053 71.6322Z" fill="#FFFCFF"/>
<path opacity="0.18" d="M310.25 171.365C334.49 171.365 354.141 151.714 354.141 127.473C354.141 103.233 334.49 83.5817 310.25 83.5817C286.009 83.5817 266.358 103.233 266.358 127.473C266.358 151.714 286.009 171.365 310.25 171.365Z" fill="#52B1A7"/>
<path opacity="0.18" d="M379.185 203.732H239.713V317.294H379.185V203.732Z" fill="#52B1A7"/>
<g opacity="0.41">
<path opacity="0.41" d="M276.084 291.711H253.101V311.736H276.084V291.711Z" fill="#52B1A7"/>
</g>
<path d="M298.888 276.132H275.904V311.736H298.888V276.132Z" fill="#52B1A7"/>
<g opacity="0.5">
<path opacity="0.5" d="M321.692 259.703H298.708V311.735H321.692V259.703Z" fill="#52B1A7"/>
</g>
<path d="M344.495 243.7H321.512V311.736H344.495V243.7Z" fill="#52B1A7"/>
<path d="M367.3 227.565H344.316V311.736H367.3V227.565Z" fill="#52B1A7"/>
<path d="M367.3 227.565H344.316V311.736H367.3V227.565Z" fill="url(#paint1_linear_475_3822)"/>
<path d="M371.845 311.736H244.323V317.31H371.845V311.736Z" fill="url(#paint2_linear_475_3822)"/>
<path opacity="0.18" d="M306.931 327.755H239.713V412.792H306.931V327.755Z" fill="#52B1A7"/>
<path opacity="0.18" d="M379.184 327.755H311.966V412.792H379.184V327.755Z" fill="#52B1A7"/>
<path d="M307.667 159.922V151.928C303.397 151.946 299.206 150.768 295.57 148.528L297.418 143.215C300.803 145.368 304.735 146.502 308.746 146.485C314.402 146.485 318.145 143.215 318.129 138.704C318.113 134.192 315.023 131.691 309.155 129.337C301.079 126.215 296.077 122.602 296.077 115.736C296.077 109.197 300.671 104.179 307.945 102.953V94.9919H312.849V102.642C316.451 102.661 319.989 103.595 323.131 105.356L321.219 110.669C318.207 108.887 314.762 107.97 311.263 108.02C305.182 108.02 302.91 111.715 302.926 114.853C302.926 118.956 305.885 121 312.735 123.812C320.908 127.081 325.011 131.168 325.06 138.197C325.06 144.425 320.761 150.31 312.653 151.699V159.873L307.667 159.922Z" fill="#52B1A7"/>
<path d="M392.212 279.712C391.672 280.497 391.018 281.657 390.168 282.017C388.926 282.54 387.193 281.592 386.163 280.971C384.43 279.925 382.789 278.733 381.259 277.407C379.837 276.197 378.513 274.873 376.976 273.811C375.48 272.676 373.671 272.031 371.794 271.963C367.838 271.963 365.746 275.887 365.37 279.369C364.994 282.851 366.907 286.708 370.274 287.379C372.089 287.738 373.969 287.117 375.816 287.281C382.044 287.804 385.918 296.647 392.065 295.454C394.209 294.814 396.115 293.55 397.541 291.825L403.867 285.499C407.578 281.788 411.501 277.669 412.139 272.421C412.613 268.449 409.801 259.622 404.93 262.204C402.608 263.43 400.238 268.596 398.669 270.737C396.593 273.631 394.533 276.541 392.408 279.385C392.326 279.532 392.261 279.614 392.212 279.712Z" fill="#F9C6D6"/>
<path d="M353.095 272.944L382.405 280.725L392.654 318.209L364.211 313.566L353.095 272.944Z" fill="#52B1A7"/>
<path d="M382.945 316.509L382.03 312.537C382.047 312.148 381.987 311.76 381.853 311.395C381.719 311.031 381.514 310.696 381.249 310.411C380.984 310.127 380.665 309.898 380.311 309.738C379.957 309.578 379.574 309.49 379.185 309.48C377.116 309.38 375.14 308.585 373.578 307.224C372.557 305.927 372.025 304.313 372.074 302.663C372.074 300.195 372.81 297.432 374.984 296.255L389.435 306.374L392.704 318.225L382.945 316.509Z" fill="url(#paint3_linear_475_3822)"/>
<path d="M394.403 270.688C394.239 271.184 394.156 271.703 394.158 272.225C394.266 272.958 394.571 273.647 395.041 274.219C397.006 277.101 398.583 280.228 399.733 283.521C400.033 284.567 400.473 285.567 401.04 286.496C401.326 286.964 401.721 287.357 402.19 287.641C402.659 287.926 403.19 288.094 403.738 288.131C404.404 288.075 405.036 287.816 405.551 287.389C406.065 286.962 406.436 286.388 406.615 285.744C406.969 284.462 407.064 283.123 406.892 281.804C406.615 277.963 405.863 273.631 406.598 269.789C407.399 265.507 408.838 261.273 409.77 257.006C408.429 256.418 406.991 257.48 405.928 258.477C402.495 261.665 399.062 264.853 395.891 268.285C395.226 268.968 394.718 269.789 394.403 270.688Z" fill="#52B1A7"/>
<path d="M429.058 435.547C389.907 434.975 358.358 421.603 358.587 405.616C358.587 403.834 357.262 393.797 358.031 392.195C364.21 378.791 395.073 377.221 429.957 377.695C464.188 378.202 492.942 377.695 499.35 390.936C500.298 392.816 500.445 405.649 500.412 407.626C500.151 423.614 468.209 436.103 429.058 435.547Z" fill="#D99350"/>
<path d="M499.852 394.308C500.081 378.338 468.535 364.939 429.393 364.378C390.251 363.818 358.335 376.31 358.106 392.279C357.878 408.248 389.423 421.648 428.565 422.208C467.707 422.768 499.624 410.277 499.852 394.308Z" fill="#E6BD67"/>
<path d="M489.358 394.157C489.553 380.553 462.678 369.138 429.331 368.661C395.985 368.184 368.794 378.825 368.6 392.429C368.405 406.033 395.28 417.448 428.626 417.925C461.973 418.403 489.164 407.761 489.358 394.157Z" fill="#D99350"/>
<path d="M390.89 390.397L400.551 390.544C400.74 389.285 401.231 388.09 401.982 387.062C402.734 386.035 403.724 385.204 404.866 384.643L411.274 385.64C410.167 386.152 409.203 386.931 408.47 387.907C407.737 388.882 407.257 390.024 407.073 391.231C407.073 394.009 410.947 395.955 416.391 396.004C418.492 396.17 420.605 395.876 422.581 395.141C424.557 394.407 426.35 393.251 427.834 391.754C429.964 389.532 432.568 387.821 435.453 386.748C438.337 385.675 441.427 385.269 444.491 385.558C452.436 385.558 458.468 388.059 459.857 391.672L469.518 391.819V394.238L460.217 394.091C460.066 395.139 459.678 396.138 459.084 397.013C458.489 397.888 457.702 398.617 456.784 399.142L450.49 398.08C451.381 397.575 452.141 396.869 452.709 396.017C453.277 395.165 453.637 394.192 453.76 393.176C453.76 390.217 449.428 388.975 445.586 388.926C443.516 388.813 441.447 389.177 439.539 389.99C437.632 390.804 435.937 392.045 434.585 393.617C430.514 397.573 425.496 399.535 416.865 399.535C409.263 399.535 402.153 397.164 400.649 393.11L390.693 392.963L390.89 390.397Z" fill="#E6BD67"/>
<path d="M462.031 421.93C422.88 421.374 391.33 407.986 391.559 391.999C391.559 390.233 390.235 380.18 391.003 378.594C397.183 365.174 428.062 363.604 462.93 364.078C497.177 364.585 525.914 364.078 532.339 377.319C533.271 379.216 533.418 392.031 533.401 394.009C533.123 409.997 501.182 422.486 462.031 421.93Z" fill="#D99350"/>
<path d="M532.824 380.695C533.052 364.726 501.507 351.326 462.365 350.766C423.223 350.206 391.306 362.697 391.078 378.666C390.849 394.636 422.395 408.035 461.537 408.596C500.679 409.156 532.595 396.664 532.824 380.695Z" fill="#E6BD67"/>
<path d="M522.329 380.545C522.524 366.941 495.649 355.526 462.302 355.049C428.956 354.571 401.765 365.213 401.57 378.817C401.376 392.421 428.251 403.836 461.597 404.313C494.944 404.79 522.134 394.149 522.329 380.545Z" fill="#D99350"/>
<path d="M423.86 376.78L433.521 376.927C433.71 375.668 434.202 374.473 434.953 373.446C435.705 372.418 436.694 371.587 437.837 371.026L444.245 372.023C443.14 372.536 442.179 373.316 441.448 374.291C440.718 375.267 440.241 376.408 440.06 377.614C440.06 380.392 443.918 382.338 449.361 382.403C451.463 382.565 453.574 382.268 455.549 381.535C457.525 380.801 459.318 379.647 460.804 378.153C462.931 375.927 465.535 374.211 468.42 373.135C471.305 372.06 474.396 371.651 477.462 371.941C485.423 371.941 491.438 374.459 492.828 378.055L502.489 378.202V380.621L493.187 380.474C493.04 381.523 492.654 382.524 492.059 383.399C491.464 384.275 490.675 385.003 489.755 385.525L483.461 384.463C484.352 383.958 485.112 383.252 485.68 382.4C486.247 381.548 486.607 380.575 486.73 379.559C486.73 376.616 482.382 375.374 478.557 375.309C476.489 375.194 474.422 375.558 472.517 376.372C470.612 377.185 468.92 378.427 467.572 380C463.485 383.972 458.467 385.918 449.835 385.918C442.25 385.918 435.123 383.547 433.619 379.51L423.664 379.363L423.86 376.78Z" fill="#E6BD67"/>
<path d="M436.251 386.212C397.101 385.689 365.551 372.268 365.714 356.264C365.714 354.499 364.39 344.446 365.159 342.86C371.338 329.439 402.201 327.87 437.085 328.344C471.315 328.851 500.07 328.344 506.478 341.585C507.426 343.481 507.573 356.297 507.54 358.275C507.344 374.246 475.402 386.784 436.251 386.212Z" fill="#D99350"/>
<path d="M507.038 344.97C507.266 329.001 475.721 315.601 436.579 315.041C397.437 314.481 365.52 326.972 365.292 342.942C365.063 358.911 396.609 372.31 435.751 372.871C474.893 373.431 506.809 360.94 507.038 344.97Z" fill="#E6BD67"/>
<path d="M496.544 344.82C496.739 331.216 469.864 319.801 436.517 319.324C403.17 318.846 375.98 329.488 375.785 343.092C375.59 356.696 402.465 368.111 435.812 368.588C469.159 369.066 496.349 358.424 496.544 344.82Z" fill="#D99350"/>
<path d="M398.082 341.078L407.743 341.225C407.929 339.963 408.42 338.765 409.171 337.735C409.923 336.704 410.914 335.871 412.059 335.308L418.466 336.321C417.361 336.832 416.399 337.609 415.666 338.581C414.933 339.554 414.452 340.692 414.265 341.896C414.265 344.675 418.14 346.62 423.583 346.685C425.684 346.847 427.796 346.55 429.771 345.817C431.747 345.083 433.54 343.929 435.026 342.435C437.155 340.212 439.759 338.498 442.644 337.423C445.528 336.347 448.618 335.937 451.683 336.223C459.628 336.223 465.66 338.741 467.049 342.337L476.711 342.484V344.92L467.409 344.773C467.258 345.82 466.871 346.819 466.276 347.695C465.681 348.57 464.895 349.298 463.976 349.824L457.683 348.761C458.574 348.257 459.333 347.55 459.901 346.698C460.469 345.847 460.829 344.873 460.952 343.857C460.952 340.898 456.62 339.656 452.779 339.591C450.706 339.477 448.636 339.843 446.728 340.659C444.82 341.476 443.126 342.721 441.777 344.299C437.707 348.254 432.688 350.2 424.057 350.2C416.456 350.2 409.345 347.846 407.841 343.792L397.886 343.645L398.082 341.078Z" fill="#E6BD67"/>
<path d="M382.307 394.434C382.928 396.429 383.484 398.799 382.307 400.499C381.738 401.239 380.973 401.805 380.1 402.134C379.096 402.622 377.975 402.818 376.865 402.7C375.755 402.581 374.701 402.153 373.823 401.464C372.897 400.436 372.24 399.195 371.91 397.851C370.343 392.93 369.211 387.881 368.527 382.763C368.404 382.297 368.404 381.807 368.527 381.341C368.787 380.846 369.208 380.454 369.72 380.229C372.417 378.774 376.602 377.614 378.106 380.834C380.067 384.937 380.967 390.037 382.307 394.434Z" fill="#F9C6D6"/>
<path d="M374.214 396.756C373.662 396.686 373.102 396.747 372.579 396.936C372.213 397.144 371.891 397.422 371.631 397.753L365.713 404.39C364.602 405.665 363.408 407.43 364.193 408.934C364.47 409.359 364.838 409.716 365.271 409.979C365.704 410.242 366.19 410.404 366.694 410.454C369.519 410.709 372.358 410.141 374.868 408.82C376.666 408.035 378.415 407.185 380.148 406.237C381.443 405.652 382.569 404.746 383.417 403.605C384.741 401.562 385.15 396.641 382.78 395.105C381.586 394.336 380.54 394.892 379.412 395.415C377.815 396.28 376.03 396.74 374.214 396.756Z" fill="#52B1A7"/>
<path d="M350.103 416.977C350.05 417.351 350.089 417.733 350.217 418.089C350.412 418.453 350.707 418.753 351.067 418.955C352.168 419.729 353.467 420.171 354.811 420.23C355.483 420.249 356.151 420.111 356.761 419.828C357.371 419.544 357.907 419.122 358.325 418.595C358.936 417.604 359.311 416.485 359.421 415.326C359.911 412.8 360.152 410.232 360.14 407.659C360.168 407.294 360.057 406.932 359.829 406.646C359.632 406.502 359.401 406.412 359.159 406.384C357.05 405.943 352.898 404.749 351.836 407.43C350.752 410.5 350.168 413.723 350.103 416.977Z" fill="#F9C6D6"/>
<path d="M341.194 416.748C339.399 416.841 337.627 417.188 335.93 417.778C335.078 418.078 334.297 418.549 333.633 419.162C332.97 419.775 332.439 420.516 332.072 421.342C331.733 422.162 331.692 423.077 331.958 423.924C332.544 425.159 333.561 426.136 334.818 426.671C340.793 429.902 347.558 431.381 354.336 430.937C356.08 430.998 357.777 430.369 359.061 429.188C360.008 427.773 360.451 426.08 360.319 424.382L360.548 416.339C359.044 416.111 357.638 417.091 356.2 417.598C353.715 418.448 352.734 416.388 350.675 415.963C348.059 415.244 343.989 416.454 341.194 416.748Z" fill="#52B1A7"/>
<path d="M374.214 396.756C373.662 396.686 373.102 396.747 372.579 396.936C372.213 397.144 371.891 397.422 371.631 397.753L365.713 404.39C364.602 405.665 363.408 407.43 364.193 408.934C364.47 409.359 364.838 409.716 365.271 409.979C365.704 410.242 366.19 410.404 366.694 410.454C369.519 410.709 372.358 410.141 374.868 408.82C376.666 408.035 378.415 407.185 380.148 406.237C381.443 405.652 382.569 404.746 383.417 403.605C384.741 401.562 385.15 396.641 382.78 395.105C381.586 394.336 380.54 394.892 379.412 395.415C377.815 396.28 376.03 396.74 374.214 396.756Z" fill="url(#paint4_linear_475_3822)"/>
<path d="M341.194 416.748C339.399 416.841 337.627 417.188 335.93 417.778C335.078 418.078 334.297 418.549 333.633 419.162C332.97 419.775 332.439 420.516 332.072 421.342C331.733 422.162 331.692 423.077 331.958 423.924C332.544 425.159 333.561 426.136 334.818 426.671C340.793 429.902 347.558 431.381 354.336 430.937C356.08 430.998 357.777 430.369 359.061 429.188C360.008 427.773 360.451 426.08 360.319 424.382L360.548 416.339C359.044 416.111 357.638 417.091 356.2 417.598C353.715 418.448 352.734 416.388 350.675 415.963C348.059 415.244 343.989 416.454 341.194 416.748Z" fill="url(#paint5_linear_475_3822)"/>
<path d="M362.705 328.05C360.99 328.392 359.405 329.208 358.128 330.404C356.833 332.275 356.253 334.549 356.494 336.812C356.53 353.025 359.545 369.093 365.386 384.218C365.526 384.774 365.773 385.297 366.116 385.757C366.458 386.218 366.888 386.605 367.381 386.899C368.273 387.163 369.228 387.123 370.094 386.784C373.601 385.803 377.055 384.641 380.442 383.302L375.848 352.472C375.634 351.611 375.685 350.705 375.995 349.873C376.336 349.293 376.813 348.805 377.385 348.451C382.6 344.575 388.121 341.131 393.895 338.152C401.088 334.425 405.681 330.093 406.973 321.805C407.414 319.478 406.952 317.07 405.681 315.07C405.032 314.09 404.105 313.325 403.019 312.874C401.933 312.423 400.737 312.305 399.584 312.537C398.728 312.804 397.914 313.189 397.165 313.681C391.607 317.032 368.476 326.333 362.705 328.05Z" fill="#282328"/>
<path d="M365.992 349.562C363.82 352.353 362.104 355.47 360.909 358.798C354.284 375.054 349.986 392.164 348.142 409.621C353.57 410.296 359.06 410.296 364.489 409.621C364.914 397.276 366.79 385.024 370.079 373.118C370.661 370.566 371.655 368.126 373.022 365.893C375.441 362.362 379.397 360.302 383.189 358.39C391.907 354.058 401.036 350.608 410.44 348.091C414.412 346.979 418.417 345.966 422.324 344.626C425.674 343.613 428.81 341.995 431.576 339.852C436.48 335.749 440.24 326.775 433.685 322.426C430.759 320.465 427.064 320.089 423.55 319.746L412.647 318.716C411.559 318.538 410.447 318.583 409.377 318.846C408.464 319.194 407.617 319.697 406.876 320.334C398.703 326.595 390.529 332.169 381.931 337.842C376.651 341.34 370.21 344.593 365.992 349.562Z" fill="#473F47"/>
<path d="M412.384 327.445C409.535 326.327 406.766 325.016 404.096 323.522C393.977 317.849 402.265 315.07 405.731 308.237C408.134 303.333 407.153 297.595 405.91 292.332C403.704 283.096 400.761 273.549 402.886 264.297C403.158 262.797 403.743 261.371 404.603 260.112C405.228 259.345 405.941 258.653 406.728 258.052C408.859 256.189 411.313 254.732 413.969 253.753C419.086 252.118 424.758 253.295 429.548 255.747C449.164 265.703 449.001 297.514 447.154 316.231C446.729 320.546 446.075 325.075 443.443 328.524C439.585 333.591 435.989 331.793 431.085 330.91C424.562 329.799 418.677 329.897 412.384 327.445Z" fill="#52B1A7"/>
<path d="M446.157 293.868C446.157 297.138 445.52 300.227 445.373 303.431C445.193 306.979 445.569 310.559 445.275 314.089C444.786 319.898 442.546 325.422 438.85 329.93C438.524 330.388 438.085 330.754 437.575 330.992C436.856 331.179 436.095 331.116 435.417 330.812L425.985 327.919C424.748 327.586 423.548 327.126 422.405 326.546C420.422 325.42 418.921 323.605 418.188 321.446C417.971 320.895 417.898 320.299 417.975 319.713C418.237 318.438 419.61 317.702 420.623 316.999C424.694 314.351 427.244 309.954 429.647 305.736C431.945 301.933 433.961 297.966 435.679 293.868C436.307 291.908 437.18 290.035 438.278 288.294C439.39 286.741 442.185 284.485 444.13 285.777C446.076 287.068 446.174 291.858 446.157 293.868Z" fill="url(#paint6_linear_475_3822)"/>
<path d="M423.763 266.994C422.941 268.026 421.913 268.876 420.745 269.489C419.578 270.103 418.295 270.466 416.979 270.558C416.561 270.61 416.137 270.512 415.785 270.28C415.413 269.9 415.202 269.39 415.197 268.858C415.083 267.795 414.919 266.422 414.805 265.065C414.69 263.708 414.478 262.041 414.331 260.88C414.013 257.793 412.842 254.855 410.947 252.396C410.559 251.865 410.115 251.378 409.623 250.941C406.353 247.999 419.643 249.16 421.392 245.155C423.419 247.754 423.24 251.432 424.122 254.652C424.705 256.215 425.201 257.808 425.61 259.425C425.848 260.746 425.807 262.102 425.489 263.406C425.171 264.709 424.583 265.932 423.763 266.994Z" fill="#F9C6D6"/>
<path d="M414.985 265.686L414.805 265.065C414.625 263.545 414.478 262.041 414.331 260.88C414.014 257.793 412.842 254.855 410.947 252.396V252.069C410.947 252.069 421.475 245.155 422.603 253.246C423.73 261.338 414.985 265.686 414.985 265.686Z" fill="url(#paint7_linear_475_3822)"/>
<path d="M403.934 247.59C403.715 249.279 404.03 250.993 404.833 252.494C405.249 253.127 405.775 253.681 406.386 254.129C410.571 257.284 416.864 256.646 421.098 253.377C423.117 251.641 424.745 249.496 425.872 247.084C427 244.671 427.601 242.047 427.637 239.384C427.938 236.61 427.153 233.827 425.446 231.619C424.417 230.619 423.154 229.893 421.771 229.508C420.389 229.122 418.932 229.09 417.534 229.412C413.707 230.302 410.22 232.284 407.497 235.118C404.8 238.076 404.13 243.781 403.934 247.59Z" fill="#F9C6D6"/>
<path d="M441.842 275.217C441.923 275.805 441.989 276.394 442.054 276.982C443.002 285.728 442.152 294.326 441.825 303.039C441.613 309.038 441.171 316.918 436.055 321.021C422.372 331.989 391.918 309.055 390.578 308.057C388.534 306.537 385.674 306.423 383.222 306.145C380.357 305.963 377.675 304.68 375.735 302.565C374.796 301.494 374.185 300.176 373.973 298.768C373.762 297.359 373.959 295.92 374.541 294.62C376.552 290.664 382.208 290.06 386.278 291.825C390.349 293.59 393.406 297.023 396.937 299.704C399.721 301.699 402.656 303.475 405.715 305.017C409.279 306.913 421.833 309.643 425.871 309.692C430.17 309.692 428.486 284.453 428.911 276.394C428.927 274.31 429.437 272.259 430.399 270.411C430.88 269.508 431.582 268.742 432.44 268.185C433.297 267.627 434.283 267.296 435.303 267.223C436.384 267.305 437.424 267.67 438.319 268.281C439.214 268.892 439.933 269.728 440.403 270.705C441.144 272.112 441.631 273.64 441.842 275.217Z" fill="#F9C6D6"/>
<path d="M419.774 243.193C419.774 243.454 419.692 243.716 419.66 243.978L419.218 248.702L418.287 258.33L434.486 260.602C435.189 255.453 436.677 250.418 437.314 245.253C437.952 240.087 437.69 234.578 435.108 230.066C433.015 226.388 428.013 224.181 424.286 222.481C423.349 222.059 422.375 221.725 421.376 221.484C417.531 220.461 413.463 220.661 409.737 222.056C408.845 222.358 408.014 222.817 407.285 223.413C406.814 224.007 406.387 224.635 406.01 225.293C404.564 227.17 403.336 229.204 402.348 231.358C401.827 232.376 401.511 233.487 401.417 234.627C401.375 234.749 401.375 234.881 401.417 235.003C401.497 235.111 401.604 235.195 401.727 235.248L406.075 237.586C406.17 237.643 406.276 237.677 406.386 237.684C406.552 237.665 406.704 237.583 406.811 237.455L409.852 234.807L409.018 236.654C408.975 236.743 408.952 236.841 408.952 236.94C408.952 237.039 408.975 237.137 409.018 237.226C409.091 237.319 409.187 237.393 409.296 237.439L413.644 239.58C413.73 239.602 413.82 239.602 413.906 239.58C414.053 239.58 414.151 239.466 414.249 239.368L416.358 237.145L415.736 239.891C415.695 240.024 415.695 240.166 415.736 240.3C415.808 240.416 415.918 240.503 416.047 240.545L418.368 241.738C418.45 241.738 418.532 241.82 418.597 241.738C418.668 241.72 418.731 241.68 418.777 241.624L420.33 239.875C420.226 240.993 420.04 242.102 419.774 243.193Z" fill="#473F47"/>
<path d="M444.359 274.759C446.305 279.663 444.539 284.305 444.441 289.128C444.445 289.612 444.39 290.095 444.278 290.566C444.072 291.228 443.707 291.828 443.215 292.315C442.247 293.216 441.106 293.91 439.861 294.354C438.615 294.798 437.293 294.983 435.973 294.898C433.336 294.697 430.743 294.114 428.274 293.165C427.465 293.004 426.747 292.543 426.263 291.874C426.053 291.408 425.963 290.896 426.002 290.386C425.871 283.014 423.975 271.113 431.151 266.209C436.84 262.302 442.545 269.953 444.359 274.759Z" fill="#52B1A7"/>
<path d="M406.042 274.301C403.693 275.574 401.554 277.2 399.7 279.123C399.327 279.459 399.05 279.888 398.899 280.366C398.825 280.738 398.825 281.121 398.899 281.494C399.269 283.324 399.902 285.092 400.778 286.741C400.963 287.12 401.206 287.467 401.498 287.771C404.26 290.288 404.898 285.711 405.094 284.224C405.563 280.922 405.879 277.614 406.042 274.301Z" fill="url(#paint8_linear_475_3822)"/>
<path d="M405.29 244.37C407.068 244.37 408.51 242.928 408.51 241.15C408.51 239.371 407.068 237.929 405.29 237.929C403.511 237.929 402.069 239.371 402.069 241.15C402.069 242.928 403.511 244.37 405.29 244.37Z" stroke="#473F47" stroke-width="0.331842" stroke-miterlimit="10"/>
<path d="M411.617 247.149C413.395 247.149 414.837 245.707 414.837 243.929C414.837 242.15 413.395 240.708 411.617 240.708C409.838 240.708 408.396 242.15 408.396 243.929C408.396 245.707 409.838 247.149 411.617 247.149Z" stroke="#473F47" stroke-width="0.331842" stroke-miterlimit="10"/>
<path d="M370.963 274.301L375.998 263.855C375.998 263.855 378.057 263.954 378.45 265.131L372.892 275.396C372.892 275.396 372.565 276.165 370.963 274.301Z" fill="#473F47"/>
</g>
<defs>
<linearGradient id="paint0_linear_475_3822" x1="313.208" y1="263.005" x2="291.139" y2="645.621" gradientUnits="userSpaceOnUse">
<stop offset="0.01"/>
<stop offset="0.13" stop-opacity="0.69"/>
<stop offset="0.25" stop-opacity="0.32"/>
<stop offset="1" stop-opacity="0"/>
</linearGradient>
<linearGradient id="paint1_linear_475_3822" x1="298.087" y1="228.742" x2="504.581" y2="375.096" gradientUnits="userSpaceOnUse">
<stop offset="0.01"/>
<stop offset="0.08" stop-opacity="0.69"/>
<stop offset="0.21" stop-opacity="0.32"/>
<stop offset="1" stop-opacity="0"/>
</linearGradient>
<linearGradient id="paint2_linear_475_3822" x1="309.923" y1="279.303" x2="302.992" y2="412.073" gradientUnits="userSpaceOnUse">
<stop offset="0.01"/>
<stop offset="0.08" stop-opacity="0.69"/>
<stop offset="0.21" stop-opacity="0.32"/>
<stop offset="1" stop-opacity="0"/>
</linearGradient>
<linearGradient id="paint3_linear_475_3822" x1="397.559" y1="292.888" x2="360.158" y2="331.548" gradientUnits="userSpaceOnUse">
<stop offset="0.01"/>
<stop offset="0.13" stop-opacity="0.69"/>
<stop offset="0.25" stop-opacity="0.32"/>
<stop offset="1" stop-opacity="0"/>
</linearGradient>
<linearGradient id="paint4_linear_475_3822" x1="365.256" y1="398.162" x2="397.655" y2="414.231" gradientUnits="userSpaceOnUse">
<stop offset="0.01"/>
<stop offset="0.13" stop-opacity="0.69"/>
<stop offset="0.25" stop-opacity="0.32"/>
<stop offset="1" stop-opacity="0"/>
</linearGradient>
<linearGradient id="paint5_linear_475_3822" x1="338.807" y1="440.778" x2="357.769" y2="398.113" gradientUnits="userSpaceOnUse">
<stop offset="0.01"/>
<stop offset="0.13" stop-opacity="0.69"/>
<stop offset="0.25" stop-opacity="0.32"/>
<stop offset="1" stop-opacity="0"/>
</linearGradient>
<linearGradient id="paint6_linear_475_3822" x1="410.783" y1="289.242" x2="477.2" y2="339.362" gradientUnits="userSpaceOnUse">
<stop offset="0.01"/>
<stop offset="0.13" stop-opacity="0.69"/>
<stop offset="0.25" stop-opacity="0.32"/>
<stop offset="1" stop-opacity="0"/>
</linearGradient>
<linearGradient id="paint7_linear_475_3822" x1="410.146" y1="240.316" x2="430.662" y2="285.123" gradientUnits="userSpaceOnUse">
<stop offset="0.01"/>
<stop offset="0.13" stop-opacity="0.69"/>
<stop offset="0.25" stop-opacity="0.32"/>
<stop offset="1" stop-opacity="0"/>
</linearGradient>
<linearGradient id="paint8_linear_475_3822" x1="416.651" y1="279.369" x2="382.078" y2="285.204" gradientUnits="userSpaceOnUse">
<stop offset="0.01"/>
<stop offset="0.13" stop-opacity="0.69"/>
<stop offset="0.25" stop-opacity="0.32"/>
<stop offset="1" stop-opacity="0"/>
</linearGradient>
<clipPath id="clip0_475_3822">
<rect width="640" height="482.365" fill="white"/>
</clipPath>
</defs>
</svg>
