<svg width="640" height="483" fill="none" xmlns="http://www.w3.org/2000/svg"><g clip-path="url(#clip0_475_3822)"><path opacity=".18" d="M140.765 49.024c-45.02 52.621-42.681 133.457-68.657 198.435C58.23 282.295 33.693 313.795 29.41 351.05c-4.185 36.339 13.241 74.869 44.3 97.967 67.611 50.283 152.321 5.264 225.865 6.228 55.22.736 108.413 31.059 163.257 26.695a152.182 152.182 0 0048.73-12.767 176.09 176.09 0 0084.644-78.825c11.198-21.251 16.347-49.221 14.713-73.169-2.485-36.503-5.591-74.836-26.613-106.14-27.953-41.603-73.234-48.6-113.726-72.352-43.728-25.648-73.561-66.058-110.21-99.177-42.421-38.25-109.721-49.89-162.374-29.8-25.027 9.596-43.369 23.115-57.231 39.314z" fill="#52B1A7"/><path d="M534.087 436.675c-4.07 6.343-12.358 8.173-19.812 9.318-53.275 7.732-107.481 1.634-160.968-4.61-4.136-.491-8.631-1.144-11.443-4.201l6.13-4.904a695.412 695.412 0 01-133.473 4.528c-6.309-.393-13.175-1.128-17.621-5.607-3.074-3.074-4.545-7.585-7.961-10.299-4.643-3.678-11.28-2.91-17.148-2.076a451.048 451.048 0 01-58.441 4.463c-14.172.163-29.963-1.046-39.624-11.443 9.186-7.062 20.139-11.361 30.928-15.595 13.862-5.427 27.79-10.871 42.355-14.009 17.622-3.809 35.767-4.136 53.781-4.463l195.607-3.482c20.156-.359 40.491-.703 60.288 3.106 22.558 4.332 70.912 23.899 51.852 53.111 2.06.164 26.531 4.61 25.55 6.163z" fill="url(#paint0_linear_475_3822)"/><path d="M125.71 410.618c37.223 0 67.398-30.175 67.398-67.398s-30.175-67.399-67.398-67.399-67.398 30.176-67.398 67.399 30.175 67.398 67.398 67.398z" fill="#E6BD67"/><path d="M181.091 358.419c8.412-30.58-9.559-62.189-40.139-70.6-30.58-8.412-62.19 9.559-70.601 40.139-8.412 30.58 9.56 62.189 40.139 70.601 30.58 8.412 62.189-9.56 70.601-40.14z" fill="#D99350"/><path d="M116.605 378.643l.981-9.17a26.475 26.475 0 01-13.421-5.476l2.812-5.836a24.26 24.26 0 0012.554 5.28c6.539.703 11.214-2.518 11.77-7.683.556-5.166-2.648-8.452-9.056-11.917-8.86-4.643-14.124-9.432-13.274-17.295.817-7.52 6.768-12.653 15.268-13.078l.981-9.154 5.623.605-.948 8.778a24.604 24.604 0 0111.443 4.463l-2.844 5.803a21.922 21.922 0 00-11.084-4.332c-6.98-.752-10.053 3.139-10.445 6.751-.507 4.708 2.582 7.422 10.102 11.541 8.925 4.823 13.078 10.037 12.26 18.096-.768 7.16-6.539 13.339-15.971 13.879l-1.013 9.416-5.738-.671z" fill="#E6BD67"/><path d="M204.959 412.4c37.223 0 67.398-30.175 67.398-67.399 0-37.223-30.175-67.398-67.398-67.398s-67.398 30.175-67.398 67.398c0 37.224 30.175 67.399 67.398 67.399z" fill="#E6BD67"/><path d="M232.537 395.394c27.814-15.241 38.007-50.143 22.767-77.957-15.241-27.814-50.144-38.008-77.958-22.767-27.814 15.24-38.007 50.143-22.766 77.957 15.24 27.814 50.143 38.007 77.957 22.767z" fill="#D99350"/><path d="M223.054 376.78l-5.672-7.258a26.487 26.487 0 01-13.454 5.411l-2.043-6.163a24.185 24.185 0 0012.702-4.904c5.149-4.005 6.293-9.612 3.089-13.715s-7.781-4.218-14.712-2.256c-9.579 2.844-16.69 3.073-21.562-3.171-4.659-5.967-3.939-13.797 1.831-20.042l-5.656-7.258 4.463-3.482 5.427 6.964a24.518 24.518 0 0111.312-4.757l1.994 6.196a21.827 21.827 0 00-10.968 4.609c-5.542 4.316-5.035 9.236-2.812 12.113 2.926 3.728 7.045 3.531 15.301 1.259 9.808-2.762 16.347-1.945 21.398 4.463 4.43 5.672 4.626 14.091-1.815 21.071l5.82 7.487-4.643 3.433z" fill="#E6BD67"/><path d="M411.584 64.145v333.722a29.148 29.148 0 01-29.147 29.147H237.996a29.157 29.157 0 01-20.652-8.514 29.147 29.147 0 01-8.56-20.633V64.145a29.146 29.146 0 0129.147-29.163h144.441a29.15 29.15 0 0126.992 17.99 29.147 29.147 0 012.22 11.173z" fill="#52B1A7"/><path d="M379.396 39.92H241.02c-15.565 0-28.182 12.617-28.182 28.181v325.157c0 15.564 12.617 28.182 28.182 28.182h138.376c15.565 0 28.183-12.618 28.183-28.182V68.101c0-15.564-12.618-28.182-28.183-28.182z" fill="#0D090A"/><path d="M402.053 71.632V386.49a26.926 26.926 0 01-27.185 26.645H245.221a27.304 27.304 0 01-13.519-3.531 26.506 26.506 0 01-13.699-23.114V71.632a26.94 26.94 0 0127.218-26.645h21.904v3.956a12.896 12.896 0 008.174 11.72 13.6 13.6 0 004.986.949h60.222a13.077 13.077 0 0013.077-12.882v-3.743h21.251a27.416 27.416 0 0118.783 7.389 26.31 26.31 0 016.223 8.75 26.303 26.303 0 012.212 10.506z" fill="#FFFCFF"/><path opacity=".18" d="M310.25 171.365c24.24 0 43.891-19.651 43.891-43.892 0-24.24-19.651-43.891-43.891-43.891-24.241 0-43.892 19.651-43.892 43.891 0 24.241 19.651 43.892 43.892 43.892zm68.935 32.367H239.713v113.562h139.472V203.732z" fill="#52B1A7"/><path opacity=".41" d="M276.084 291.711h-22.983v20.025h22.983v-20.025z" fill="#52B1A7"/><path d="M298.888 276.132h-22.984v35.604h22.984v-35.604z" fill="#52B1A7"/><path opacity=".5" d="M321.692 259.703h-22.984v52.032h22.984v-52.032z" fill="#52B1A7"/><path d="M344.495 243.7h-22.983v68.036h22.983V243.7z" fill="#52B1A7"/><path d="M367.3 227.565h-22.984v84.171H367.3v-84.171z" fill="#52B1A7"/><path d="M367.3 227.565h-22.984v84.171H367.3v-84.171z" fill="url(#paint1_linear_475_3822)"/><path d="M371.845 311.736H244.323v5.574h127.522v-5.574z" fill="url(#paint2_linear_475_3822)"/><path opacity=".18" d="M306.931 327.755h-67.218v85.037h67.218v-85.037zm72.253 0h-67.218v85.037h67.218v-85.037z" fill="#52B1A7"/><path d="M307.667 159.922v-7.994a22.881 22.881 0 01-12.097-3.4l1.848-5.313a20.941 20.941 0 0011.328 3.27c5.656 0 9.399-3.27 9.383-7.781-.016-4.512-3.106-7.013-8.974-9.367-8.076-3.122-13.078-6.735-13.078-13.601 0-6.539 4.594-11.557 11.868-12.783v-7.961h4.904v7.65a21.26 21.26 0 0110.282 2.714l-1.912 5.313a19.02 19.02 0 00-9.956-2.649c-6.081 0-8.353 3.695-8.337 6.833 0 4.103 2.959 6.147 9.809 8.959 8.173 3.269 12.276 7.356 12.325 14.385 0 6.228-4.299 12.113-12.407 13.502v8.174l-4.986.049z" fill="#52B1A7"/><path d="M392.212 279.712c-.54.785-1.194 1.945-2.044 2.305-1.242.523-2.975-.425-4.005-1.046a35.487 35.487 0 01-4.904-3.564c-1.422-1.21-2.746-2.534-4.283-3.596a9.118 9.118 0 00-5.182-1.848c-3.956 0-6.048 3.924-6.424 7.406-.376 3.482 1.537 7.339 4.904 8.01 1.815.359 3.695-.262 5.542-.098 6.228.523 10.102 9.366 16.249 8.173a11.3 11.3 0 005.476-3.629l6.326-6.326c3.711-3.711 7.634-7.83 8.272-13.078.474-3.972-2.338-12.799-7.209-10.217-2.322 1.226-4.692 6.392-6.261 8.533-2.076 2.894-4.136 5.804-6.261 8.648-.082.147-.147.229-.196.327z" fill="#F9C6D6"/><path d="M353.095 272.944l29.31 7.781 10.249 37.484-28.443-4.643-11.116-40.622z" fill="#52B1A7"/><path d="M382.945 316.509l-.915-3.972a2.94 2.94 0 00-.781-2.126 2.94 2.94 0 00-2.064-.931 9.214 9.214 0 01-5.607-2.256 7.035 7.035 0 01-1.504-4.561c0-2.468.736-5.231 2.91-6.408l14.451 10.119 3.269 11.851-9.759-1.716z" fill="url(#paint3_linear_475_3822)"/><path d="M394.403 270.688a4.837 4.837 0 00-.245 1.537c.108.733.413 1.422.883 1.994a39.81 39.81 0 014.692 9.302c.3 1.046.74 2.046 1.307 2.975a3.431 3.431 0 002.698 1.635 3.269 3.269 0 002.877-2.387 9.96 9.96 0 00.277-3.94c-.277-3.841-1.029-8.173-.294-12.015.801-4.282 2.24-8.516 3.172-12.783-1.341-.588-2.779.474-3.842 1.471-3.433 3.188-6.866 6.376-10.037 9.808a6.552 6.552 0 00-1.488 2.403z" fill="#52B1A7"/><path d="M429.058 435.547c-39.151-.572-70.7-13.944-70.471-29.931 0-1.782-1.325-11.819-.556-13.421 6.179-13.404 37.042-14.974 71.926-14.5 34.231.507 62.985 0 69.393 13.241.948 1.88 1.095 14.713 1.062 16.69-.261 15.988-32.203 28.477-71.354 27.921z" fill="#D99350"/><path d="M499.852 394.308c.229-15.97-31.317-29.369-70.459-29.93-39.142-.56-71.058 11.932-71.287 27.901-.228 15.969 31.317 29.369 70.459 29.929 39.142.56 71.059-11.931 71.287-27.9z" fill="#E6BD67"/><path d="M489.358 394.157c.195-13.604-26.68-25.019-60.027-25.496-33.346-.477-60.537 10.164-60.731 23.768-.195 13.604 26.68 25.019 60.026 25.496 33.347.478 60.538-10.164 60.732-23.768z" fill="#D99350"/><path d="M390.89 390.397l9.661.147a7.889 7.889 0 011.431-3.482 7.886 7.886 0 012.884-2.419l6.408.997a7.384 7.384 0 00-4.201 5.591c0 2.778 3.874 4.724 9.318 4.773a14.514 14.514 0 0011.443-4.25 20.408 20.408 0 0116.657-6.196c7.945 0 13.977 2.501 15.366 6.114l9.661.147v2.419l-9.301-.147a6.973 6.973 0 01-3.433 5.051l-6.294-1.062a6.544 6.544 0 003.27-4.904c0-2.959-4.332-4.201-8.174-4.25a13.544 13.544 0 00-6.047 1.064 13.552 13.552 0 00-4.954 3.627c-4.071 3.956-9.089 5.918-17.72 5.918-7.602 0-14.712-2.371-16.216-6.425l-9.956-.147.197-2.566z" fill="#E6BD67"/><path d="M462.031 421.93c-39.151-.556-70.701-13.944-70.472-29.931 0-1.766-1.324-11.819-.556-13.405 6.18-13.42 37.059-14.99 71.927-14.516 34.247.507 62.984 0 69.409 13.241.932 1.897 1.079 14.712 1.062 16.69-.278 15.988-32.219 28.477-71.37 27.921z" fill="#D99350"/><path d="M532.824 380.695c.228-15.969-31.317-29.369-70.459-29.929-39.142-.56-71.059 11.931-71.287 27.9-.229 15.97 31.317 29.369 70.459 29.93 39.142.56 71.058-11.932 71.287-27.901z" fill="#E6BD67"/><path d="M522.329 380.545c.195-13.604-26.68-25.019-60.027-25.496-33.346-.478-60.537 10.164-60.732 23.768-.194 13.604 26.681 25.019 60.027 25.496 33.347.477 60.537-10.164 60.732-23.768z" fill="#D99350"/><path d="M423.86 376.78l9.661.147a7.881 7.881 0 014.316-5.901l6.408.997a7.374 7.374 0 00-4.185 5.591c0 2.778 3.858 4.724 9.301 4.789a14.567 14.567 0 0011.443-4.25 20.39 20.39 0 0116.658-6.212c7.961 0 13.976 2.518 15.366 6.114l9.661.147v2.419l-9.302-.147a6.907 6.907 0 01-3.432 5.051l-6.294-1.062a6.544 6.544 0 003.269-4.904c0-2.943-4.348-4.185-8.173-4.25A13.484 13.484 0 00467.572 380c-4.087 3.972-9.105 5.918-17.737 5.918-7.585 0-14.712-2.371-16.216-6.408l-9.955-.147.196-2.583z" fill="#E6BD67"/><path d="M436.251 386.212c-39.15-.523-70.7-13.944-70.537-29.948 0-1.765-1.324-11.818-.555-13.404 6.179-13.421 37.042-14.99 71.926-14.516 34.23.507 62.985 0 69.393 13.241.948 1.896 1.095 14.712 1.062 16.69-.196 15.971-32.138 28.509-71.289 27.937z" fill="#D99350"/><path d="M507.038 344.97c.228-15.969-31.317-29.369-70.459-29.929-39.142-.56-71.059 11.931-71.287 27.901-.229 15.969 31.317 29.368 70.459 29.929 39.142.56 71.058-11.931 71.287-27.901z" fill="#E6BD67"/><path d="M496.544 344.82c.195-13.604-26.68-25.019-60.027-25.496-33.347-.478-60.537 10.164-60.732 23.768-.195 13.604 26.68 25.019 60.027 25.496 33.347.478 60.537-10.164 60.732-23.768z" fill="#D99350"/><path d="M398.082 341.078l9.661.147a7.875 7.875 0 014.316-5.917l6.407 1.013a7.397 7.397 0 00-4.201 5.575c0 2.779 3.875 4.724 9.318 4.789a14.57 14.57 0 0011.443-4.25 20.429 20.429 0 0116.657-6.212c7.945 0 13.977 2.518 15.366 6.114l9.662.147v2.436l-9.302-.147a6.97 6.97 0 01-3.433 5.051l-6.293-1.063a6.53 6.53 0 003.269-4.904c0-2.959-4.332-4.201-8.173-4.266a13.501 13.501 0 00-11.002 4.708c-4.07 3.955-9.089 5.901-17.72 5.901-7.601 0-14.712-2.354-16.216-6.408l-9.955-.147.196-2.567z" fill="#E6BD67"/><path d="M382.307 394.434c.621 1.995 1.177 4.365 0 6.065a5.015 5.015 0 01-2.207 1.635 5.955 5.955 0 01-6.277-.67 8.385 8.385 0 01-1.913-3.613 88.262 88.262 0 01-3.383-15.088 2.786 2.786 0 010-1.422 2.47 2.47 0 011.193-1.112c2.697-1.455 6.882-2.615 8.386.605 1.961 4.103 2.861 9.203 4.201 13.6z" fill="#F9C6D6"/><path d="M374.214 396.756a3.51 3.51 0 00-1.635.18 3.246 3.246 0 00-.948.817l-5.918 6.637c-1.111 1.275-2.305 3.04-1.52 4.544a3.383 3.383 0 002.501 1.52 14.713 14.713 0 008.174-1.634 65.85 65.85 0 005.28-2.583 8.364 8.364 0 003.269-2.632c1.324-2.043 1.733-6.964-.637-8.5-1.194-.769-2.24-.213-3.368.31a11.12 11.12 0 01-5.198 1.341z" fill="#52B1A7"/><path d="M350.103 416.977c-.053.374-.014.756.114 1.112.195.364.49.664.85.866a7.047 7.047 0 003.744 1.275 4.327 4.327 0 003.514-1.635 7.598 7.598 0 001.096-3.269c.49-2.526.731-5.094.719-7.667a1.447 1.447 0 00-.311-1.013 1.41 1.41 0 00-.67-.262c-2.109-.441-6.261-1.635-7.323 1.046a30.502 30.502 0 00-1.733 9.547z" fill="#F9C6D6"/><path d="M341.194 416.748c-1.795.093-3.567.44-5.264 1.03a6.634 6.634 0 00-3.858 3.564 3.79 3.79 0 00-.114 2.582 5.588 5.588 0 002.86 2.747 36.075 36.075 0 0019.518 4.266 6.637 6.637 0 004.725-1.749 7.584 7.584 0 001.258-4.806l.229-8.043c-1.504-.228-2.91.752-4.348 1.259-2.485.85-3.466-1.21-5.525-1.635-2.616-.719-6.686.491-9.481.785z" fill="#52B1A7"/><path d="M374.214 396.756a3.51 3.51 0 00-1.635.18 3.246 3.246 0 00-.948.817l-5.918 6.637c-1.111 1.275-2.305 3.04-1.52 4.544a3.383 3.383 0 002.501 1.52 14.713 14.713 0 008.174-1.634 65.85 65.85 0 005.28-2.583 8.364 8.364 0 003.269-2.632c1.324-2.043 1.733-6.964-.637-8.5-1.194-.769-2.24-.213-3.368.31a11.12 11.12 0 01-5.198 1.341z" fill="url(#paint4_linear_475_3822)"/><path d="M341.194 416.748c-1.795.093-3.567.44-5.264 1.03a6.634 6.634 0 00-3.858 3.564 3.79 3.79 0 00-.114 2.582 5.588 5.588 0 002.86 2.747 36.075 36.075 0 0019.518 4.266 6.637 6.637 0 004.725-1.749 7.584 7.584 0 001.258-4.806l.229-8.043c-1.504-.228-2.91.752-4.348 1.259-2.485.85-3.466-1.21-5.525-1.635-2.616-.719-6.686.491-9.481.785z" fill="url(#paint5_linear_475_3822)"/><path d="M362.705 328.05a9.38 9.38 0 00-4.577 2.354 9.493 9.493 0 00-1.634 6.408 132.407 132.407 0 008.892 47.406 4.349 4.349 0 001.995 2.681 4.185 4.185 0 002.713-.115 105.308 105.308 0 0010.348-3.482l-4.594-30.83a4.403 4.403 0 01.147-2.599 4.14 4.14 0 011.39-1.422 119.617 119.617 0 0116.51-10.299c7.193-3.727 11.786-8.059 13.078-16.347a9.321 9.321 0 00-1.292-6.735 5.914 5.914 0 00-6.097-2.533 9.627 9.627 0 00-2.419 1.144c-5.558 3.351-28.689 12.652-34.46 14.369z" fill="#282328"/><path d="M365.992 349.562a33.44 33.44 0 00-5.083 9.236 186.606 186.606 0 00-12.767 50.823 66.234 66.234 0 0016.347 0 157.43 157.43 0 015.59-36.503 24.101 24.101 0 012.943-7.225c2.419-3.531 6.375-5.591 10.167-7.503a146.163 146.163 0 0127.251-10.299c3.972-1.112 7.977-2.125 11.884-3.465a28.643 28.643 0 009.252-4.774c4.904-4.103 8.664-13.077 2.109-17.426-2.926-1.961-6.621-2.337-10.135-2.68l-10.903-1.03a8.171 8.171 0 00-3.27.13 8.457 8.457 0 00-2.501 1.488c-8.173 6.261-16.347 11.835-24.945 17.508-5.28 3.498-11.721 6.751-15.939 11.72z" fill="#473F47"/><path d="M412.384 327.445a67.38 67.38 0 01-8.288-3.923c-10.119-5.673-1.831-8.452 1.635-15.285 2.403-4.904 1.422-10.642.179-15.905-2.206-9.236-5.149-18.783-3.024-28.035.272-1.5.857-2.926 1.717-4.185a12.631 12.631 0 012.125-2.06 23.184 23.184 0 017.241-4.299c5.117-1.635 10.789-.458 15.579 1.994 19.616 9.956 19.453 41.767 17.606 60.484-.425 4.315-1.079 8.844-3.711 12.293-3.858 5.067-7.454 3.269-12.358 2.386-6.523-1.111-12.408-1.013-18.701-3.465z" fill="#52B1A7"/><path d="M446.157 293.868c0 3.27-.637 6.359-.784 9.563-.18 3.548.196 7.128-.098 10.658a28.794 28.794 0 01-6.425 15.841 3.254 3.254 0 01-1.275 1.062 3.265 3.265 0 01-2.158-.18l-9.432-2.893a18.592 18.592 0 01-3.58-1.373 9.306 9.306 0 01-4.217-5.1 3.488 3.488 0 01-.213-1.733c.262-1.275 1.635-2.011 2.648-2.714 4.071-2.648 6.621-7.045 9.024-11.263a90.912 90.912 0 006.032-11.868 24.413 24.413 0 012.599-5.574c1.112-1.553 3.907-3.809 5.852-2.517 1.946 1.291 2.044 6.081 2.027 8.091z" fill="url(#paint6_linear_475_3822)"/><path d="M423.763 266.994a9.508 9.508 0 01-6.784 3.564 1.773 1.773 0 01-1.194-.278 2.061 2.061 0 01-.588-1.422c-.114-1.063-.278-2.436-.392-3.793-.115-1.357-.327-3.024-.474-4.185a16.702 16.702 0 00-3.384-8.484 9.228 9.228 0 00-1.324-1.455c-3.27-2.942 10.02-1.781 11.769-5.786 2.027 2.599 1.848 6.277 2.73 9.497a45.767 45.767 0 011.488 4.773 9.61 9.61 0 01-1.847 7.569z" fill="#F9C6D6"/><path d="M414.985 265.686l-.18-.621c-.18-1.52-.327-3.024-.474-4.185a16.693 16.693 0 00-3.384-8.484v-.327s10.528-6.914 11.656 1.177c1.127 8.092-7.618 12.44-7.618 12.44z" fill="url(#paint7_linear_475_3822)"/><path d="M403.934 247.59a8.168 8.168 0 00.899 4.904 6.356 6.356 0 001.553 1.635c4.185 3.155 10.478 2.517 14.712-.752a18.792 18.792 0 006.539-13.993 10.792 10.792 0 00-2.191-7.765 8.587 8.587 0 00-7.912-2.207 20.294 20.294 0 00-10.037 5.706c-2.697 2.958-3.367 8.663-3.563 12.472zm37.908 27.627c.081.588.147 1.177.212 1.765.948 8.746.098 17.344-.229 26.057-.212 5.999-.654 13.879-5.77 17.982-13.683 10.968-44.137-11.966-45.477-12.964-2.044-1.52-4.904-1.634-7.356-1.912a11.115 11.115 0 01-7.487-3.58 7.44 7.44 0 01-1.194-7.945c2.011-3.956 7.667-4.56 11.737-2.795 4.071 1.765 7.128 5.198 10.659 7.879a66.322 66.322 0 008.778 5.313c3.564 1.896 16.118 4.626 20.156 4.675 4.299 0 2.615-25.239 3.04-33.298a13.178 13.178 0 011.488-5.983 6.037 6.037 0 012.041-2.226 6.039 6.039 0 012.863-.962 6.178 6.178 0 015.1 3.482 13.537 13.537 0 011.439 4.512z" fill="#F9C6D6"/><path d="M419.774 243.193c0 .261-.082.523-.114.785l-.442 4.724-.931 9.628 16.199 2.272c.703-5.149 2.191-10.184 2.828-15.349.638-5.166.376-10.675-2.206-15.187-2.093-3.678-7.095-5.885-10.822-7.585a16.521 16.521 0 00-2.91-.997 19.151 19.151 0 00-11.639.572 7.85 7.85 0 00-2.452 1.357 15.146 15.146 0 00-1.275 1.88 31.36 31.36 0 00-3.662 6.065 8.755 8.755 0 00-.931 3.269.577.577 0 000 .376c.08.108.187.192.31.245l4.348 2.338a.689.689 0 00.311.098.65.65 0 00.425-.229l3.041-2.648-.834 1.847a.659.659 0 000 .572.702.702 0 00.278.213l4.348 2.141a.528.528 0 00.262 0c.147 0 .245-.114.343-.212l2.109-2.223-.622 2.746a.695.695 0 000 .409.577.577 0 00.311.245l2.321 1.193c.082 0 .164.082.229 0a.341.341 0 00.18-.114l1.553-1.749a23.003 23.003 0 01-.556 3.318z" fill="#473F47"/><path d="M444.359 274.759c1.946 4.904.18 9.546.082 14.369.004.484-.051.967-.163 1.438a4.227 4.227 0 01-1.063 1.749 9.71 9.71 0 01-7.242 2.583 27.222 27.222 0 01-7.699-1.733 3.27 3.27 0 01-2.011-1.291c-.21-.466-.3-.978-.261-1.488-.131-7.372-2.027-19.273 5.149-24.177 5.689-3.907 11.394 3.744 13.208 8.55z" fill="#52B1A7"/><path d="M406.042 274.301a26.05 26.05 0 00-6.342 4.822c-.373.336-.65.765-.801 1.243a2.893 2.893 0 000 1.128 19.367 19.367 0 001.879 5.247c.185.379.428.726.72 1.03 2.762 2.517 3.4-2.06 3.596-3.547.469-3.302.785-6.61.948-9.923z" fill="url(#paint8_linear_475_3822)"/><path d="M405.29 244.37a3.22 3.22 0 100-6.44 3.22 3.22 0 000 6.44z" stroke="#473F47" stroke-width=".332" stroke-miterlimit="10"/><path d="M411.617 247.149a3.22 3.22 0 100-6.44 3.22 3.22 0 000 6.44z" stroke="#473F47" stroke-width=".332" stroke-miterlimit="10"/><path d="M370.963 274.301l5.035-10.446s2.059.099 2.452 1.276l-5.558 10.265s-.327.769-1.929-1.095z" fill="#473F47"/></g><defs><linearGradient id="paint0_linear_475_3822" x1="313.208" y1="263.005" x2="291.139" y2="645.621" gradientUnits="userSpaceOnUse"><stop offset=".01"/><stop offset=".13" stop-opacity=".69"/><stop offset=".25" stop-opacity=".32"/><stop offset="1" stop-opacity="0"/></linearGradient><linearGradient id="paint1_linear_475_3822" x1="298.087" y1="228.742" x2="504.581" y2="375.096" gradientUnits="userSpaceOnUse"><stop offset=".01"/><stop offset=".08" stop-opacity=".69"/><stop offset=".21" stop-opacity=".32"/><stop offset="1" stop-opacity="0"/></linearGradient><linearGradient id="paint2_linear_475_3822" x1="309.923" y1="279.303" x2="302.992" y2="412.073" gradientUnits="userSpaceOnUse"><stop offset=".01"/><stop offset=".08" stop-opacity=".69"/><stop offset=".21" stop-opacity=".32"/><stop offset="1" stop-opacity="0"/></linearGradient><linearGradient id="paint3_linear_475_3822" x1="397.559" y1="292.888" x2="360.158" y2="331.548" gradientUnits="userSpaceOnUse"><stop offset=".01"/><stop offset=".13" stop-opacity=".69"/><stop offset=".25" stop-opacity=".32"/><stop offset="1" stop-opacity="0"/></linearGradient><linearGradient id="paint4_linear_475_3822" x1="365.256" y1="398.162" x2="397.655" y2="414.231" gradientUnits="userSpaceOnUse"><stop offset=".01"/><stop offset=".13" stop-opacity=".69"/><stop offset=".25" stop-opacity=".32"/><stop offset="1" stop-opacity="0"/></linearGradient><linearGradient id="paint5_linear_475_3822" x1="338.807" y1="440.778" x2="357.769" y2="398.113" gradientUnits="userSpaceOnUse"><stop offset=".01"/><stop offset=".13" stop-opacity=".69"/><stop offset=".25" stop-opacity=".32"/><stop offset="1" stop-opacity="0"/></linearGradient><linearGradient id="paint6_linear_475_3822" x1="410.783" y1="289.242" x2="477.2" y2="339.362" gradientUnits="userSpaceOnUse"><stop offset=".01"/><stop offset=".13" stop-opacity=".69"/><stop offset=".25" stop-opacity=".32"/><stop offset="1" stop-opacity="0"/></linearGradient><linearGradient id="paint7_linear_475_3822" x1="410.146" y1="240.316" x2="430.662" y2="285.123" gradientUnits="userSpaceOnUse"><stop offset=".01"/><stop offset=".13" stop-opacity=".69"/><stop offset=".25" stop-opacity=".32"/><stop offset="1" stop-opacity="0"/></linearGradient><linearGradient id="paint8_linear_475_3822" x1="416.651" y1="279.369" x2="382.078" y2="285.204" gradientUnits="userSpaceOnUse"><stop offset=".01"/><stop offset=".13" stop-opacity=".69"/><stop offset=".25" stop-opacity=".32"/><stop offset="1" stop-opacity="0"/></linearGradient><clipPath id="clip0_475_3822"><path fill="#fff" d="M0 0h640v482.365H0z"/></clipPath></defs></svg>