<svg width="390" height="1093" fill="none" xmlns="http://www.w3.org/2000/svg"><path fill-rule="evenodd" clip-rule="evenodd" d="M390 0H0v1012h390V0zM0 1012v56.25l16.25-5.62C32.5 1057 65 1045.75 97.5 1042c21.667-2.5 43.333-1.67 65-.83 10.833.41 21.667.83 32.5.83 9.982 0 19.964-.84 29.947-1.69 22.517-1.91 45.035-3.81 67.553 3.98 7.675 1.32 11.397 2.7 15.57 4.26 4.073 1.51 8.577 3.19 17.607 5.12 18.281 3.9 37.781 15.49 48.073 25.62 10.292 10.13 16.25 13.13 16.25 13.13V1012H0z" fill="#FFFCFF"/></svg>