<svg width="1920" height="454" fill="none" xmlns="http://www.w3.org/2000/svg"><path fill-rule="evenodd" clip-rule="evenodd" d="M80 79.67C3.234 100.466 0 106.866 0 106.866V454h1920V111.66l-80-7.2c-35.62-3.206-84.72-9.884-143.41-17.869-73.14-9.948-161.17-21.923-256.59-31.731-43.82-4.504-85.1-12.01-128.28-19.862-26.41-4.803-53.54-9.736-82.39-14.188-65.46-12.943-133.56-14.743-201.45-16.538-22.68-.6-45.347-1.198-67.88-2.212-160-7.2-308.667 5.224-480 25.602-50.443 6-99.201 11.172-144.854 16.015C225.736 55.283 134.165 64.997 80 79.67z" fill="#141414"/></svg>